<svg width="852" height="717" viewBox="0 0 852 717" fill="none" xmlns="http://www.w3.org/2000/svg">
<path d="M488.608 553.025C623.391 489.486 715.355 401.282 694.016 356.017C672.677 310.751 546.115 325.565 411.332 389.105C276.549 452.644 184.585 540.848 205.924 586.114C227.263 631.379 353.825 616.565 488.608 553.025Z" fill="#FFB905"/>
<path d="M334.726 405.859C235.047 475.271 176.605 554.209 199.957 594.646C227.212 641.812 355.589 618.674 486.701 542.901C617.813 467.16 701.974 367.512 674.719 320.315C663.934 301.664 637.325 293.982 601.005 296.256" stroke="black" stroke-linecap="round"/>
<path d="M230.838 634.56C258.093 681.726 386.47 658.588 517.582 582.816C648.663 507.074 732.855 407.426 705.6 360.229" stroke="black" stroke-linecap="round"/>
<path d="M269.277 626.355L283.32 651.89" stroke="black" stroke-linecap="round"/>
<path d="M308.823 621.899L324.187 651.889" stroke="black" stroke-linecap="round"/>
<path d="M580.756 490.111L596.119 520.101" stroke="black" stroke-linecap="round"/>
<path d="M678.56 379.71L692.663 412.158" stroke="black" stroke-linecap="round"/>
<path d="M686.488 353.407L697.427 378.511" stroke="black" stroke-linecap="round"/>
<path d="M349.721 613.542L365.084 643.531" stroke="black" stroke-linecap="round"/>
<path d="M390.004 594.03L405.982 628.506" stroke="black" stroke-linecap="round"/>
<path d="M435.971 576.793L451.949 611.269" stroke="black" stroke-linecap="round"/>
<path d="M476.931 554.577L492.909 589.053" stroke="black" stroke-linecap="round"/>
<path d="M537.063 520.102L553.041 554.577" stroke="black" stroke-linecap="round"/>
<path d="M653.026 416.644L669.004 451.119" stroke="black" stroke-linecap="round"/>
<path d="M451.272 569.449L464.178 598.701" stroke="black" stroke-linecap="round"/>
<path d="M599.93 470.908L615.262 500.652" stroke="black" stroke-linecap="round"/>
<path d="M653.026 335.617C642.364 317.15 596.151 317.672 541.119 335.77M242.698 569.172C227.611 543.085 280.124 482.645 362.626 426.415L242.698 569.172Z" stroke="black" stroke-linecap="round"/>
<path d="M652.965 342.038C642.425 323.817 602.081 325.507 548.032 342.96M249.335 575.256C234.709 549.937 274.255 500.221 352.393 445.588L249.335 575.256Z" stroke="black" stroke-linecap="round"/>
<path d="M392.492 458.34L403.923 454.1" stroke="black" stroke-linecap="round"/>
<path d="M391.478 465.592L409.637 458.341" stroke="black" stroke-linecap="round"/>
<path d="M433.175 468.572L328.642 533.928" stroke="black" stroke-linecap="round"/>
<path d="M344.896 550.582L357.401 556.85" stroke="black" stroke-linecap="round"/>
<path d="M303.262 529.104L315.768 535.373" stroke="black" stroke-linecap="round"/>
<path d="M291.862 532.914L356.051 565.546" stroke="black" stroke-linecap="round"/>
<path d="M548.586 399.559L594.185 383.704L541.887 418.303M353.347 537.339L447.433 476.838L353.347 537.339Z" stroke="black" stroke-linecap="round"/>
<path d="M646.42 195.133C643.194 186.806 639.506 163.177 666.485 167.817C688.67 171.627 689.253 150.641 686.58 139.917" stroke="black" stroke-linecap="round"/>
<path d="M676.102 302.494C674.627 298.653 672.907 287.745 685.382 289.896C695.614 291.648 695.89 281.969 694.661 277.021" stroke="black" stroke-linecap="round"/>
<path d="M470.416 131.59C468.88 127.626 467.128 116.349 480.003 118.562C490.573 120.374 490.88 110.388 489.59 105.257" stroke="#5022AF" stroke-linecap="round"/>
<path d="M243.467 715.557C241.93 711.593 240.179 700.316 253.054 702.528C263.624 704.341 263.931 694.355 262.64 689.224" stroke="#5022AF" stroke-linecap="round"/>
<path d="M63.8985 275.76C60.6721 267.464 56.9849 243.804 83.9632 248.444C106.148 252.254 106.732 231.268 104.059 220.544" stroke="black" stroke-linecap="round"/>
<path d="M601.958 427.275C600.483 424.264 598.332 415.507 608.626 416.367C617.076 417.105 616.645 409.208 615.293 405.244" stroke="black" stroke-linecap="round"/>
<path d="M461.874 686.55C459.447 681.572 455.913 667.1 472.874 668.574C486.824 669.773 486.087 656.745 483.875 650.23" stroke="black" stroke-linecap="round"/>
<path d="M241.93 323.295C239.533 318.471 235.539 305.32 249.612 310.667C261.165 315.06 259.567 303.814 257.232 297.73" stroke="black" stroke-linecap="round"/>
<path d="M779.376 518.873C776.795 511.805 774.183 491.649 797.167 495.643C816.064 498.931 817.047 481.048 814.989 471.922" stroke="black" stroke-linecap="round"/>
<path d="M63.5915 517.52C60.8875 510.761 57.7534 491.403 79.9383 494.875C98.1594 497.732 98.5588 480.525 96.285 471.737" stroke="black" stroke-linecap="round"/>
<path d="M564.471 639.844C568.849 639.844 572.398 636.295 572.398 631.917C572.398 627.538 568.849 623.989 564.471 623.989C560.092 623.989 556.543 627.538 556.543 631.917C556.543 636.295 560.092 639.844 564.471 639.844Z" stroke="#FF7A00"/>
<path d="M749.263 248.444C763.161 248.444 774.428 237.177 774.428 223.279C774.428 209.38 763.161 198.113 749.263 198.113C735.365 198.113 724.098 209.38 724.098 223.279C724.098 237.177 735.365 248.444 749.263 248.444Z" stroke="#FF7A00" stroke-width="10"/>
<path d="M193.781 592.556C209.546 592.556 222.326 579.775 222.326 564.01C222.326 548.245 209.546 535.465 193.781 535.465C178.016 535.465 165.235 548.245 165.235 564.01C165.235 579.775 178.016 592.556 193.781 592.556Z" stroke="#7432FF" stroke-width="5"/>
<path d="M557.742 153.344C574.61 153.344 588.284 139.67 588.284 122.801C588.284 105.933 574.61 92.2588 557.742 92.2588C540.874 92.2588 527.199 105.933 527.199 122.801C527.199 139.67 540.874 153.344 557.742 153.344Z" stroke="#7432FF" stroke-width="5"/>
<path d="M660.984 489.866C668.349 489.866 674.319 483.896 674.319 476.531C674.319 469.166 668.349 463.195 660.984 463.195C653.619 463.195 647.648 469.166 647.648 476.531C647.648 483.896 653.619 489.866 660.984 489.866Z" stroke="#7432FF" stroke-width="2"/>
<path d="M123.816 168.247C151.273 168.247 173.532 145.988 173.532 118.531C173.532 91.0732 151.273 68.8145 123.816 68.8145C96.3583 68.8145 74.0996 91.0732 74.0996 118.531C74.0996 145.988 96.3583 168.247 123.816 168.247Z" stroke="#FF7A00" stroke-width="10"/>
<path d="M693.985 571.324C697.922 571.324 701.114 568.132 701.114 564.195C701.114 560.258 697.922 557.066 693.985 557.066C690.048 557.066 686.856 560.258 686.856 564.195C686.856 568.132 690.048 571.324 693.985 571.324Z" stroke="black"/>
<path d="M322.988 170.183C325.296 170.183 327.167 168.312 327.167 166.004C327.167 163.696 325.296 161.825 322.988 161.825C320.681 161.825 318.81 163.696 318.81 166.004C318.81 168.312 320.681 170.183 322.988 170.183Z" stroke="black"/>
<path d="M780.758 169.015C808.25 169.015 830.536 146.729 830.536 119.238C830.536 91.7462 808.25 69.46 780.758 69.46C753.267 69.46 730.98 91.7462 730.98 119.238C730.98 146.729 753.267 169.015 780.758 169.015Z" stroke="black"/>
<path d="M750.43 680.312C772.118 680.312 789.699 662.731 789.699 641.043C789.699 619.356 772.118 601.774 750.43 601.774C728.743 601.774 711.161 619.356 711.161 641.043C711.161 662.731 728.743 680.312 750.43 680.312Z" stroke="black"/>
<path d="M14.5813 492.816C22.0821 492.816 28.1626 486.735 28.1626 479.235C28.1626 471.734 22.0821 465.653 14.5813 465.653C7.08056 465.653 1 471.734 1 479.235C1 486.735 7.08056 492.816 14.5813 492.816Z" stroke="black"/>
<path d="M65.9264 103.536C79.2139 103.536 89.9856 92.7647 89.9856 79.4772C89.9856 66.1896 79.2139 55.418 65.9264 55.418C52.6389 55.418 41.8672 66.1896 41.8672 79.4772C41.8672 92.7647 52.6389 103.536 65.9264 103.536Z" stroke="black"/>
<path d="M101.231 564.501L14.5811 668.512" stroke="#2039D2" stroke-linecap="round"/>
<path d="M155.925 522.652L45.0928 655.854" stroke="#2039D2" stroke-linecap="round"/>
<path d="M111.71 599.254L50.5322 674.811" stroke="#2039D2" stroke-linecap="round"/>
<path d="M281.937 64.9434L255.266 96.9301L228.595 128.917" stroke="black" stroke-linecap="round"/>
<path d="M350.151 1L250.165 120.651" stroke="black" stroke-linecap="round"/>
<path d="M296.47 90.3232L214.091 190.954" stroke="black" stroke-linecap="round"/>
<path d="M851 281.782L721.147 438.92" stroke="black" stroke-linecap="round"/>
<path d="M814.281 362.933L698.993 501.972" stroke="black" stroke-linecap="round"/>
<path d="M485.411 195.441C511.16 179.617 524.465 196.67 527.875 207.148C528.859 209.115 530.211 214.769 527.875 221.774C524.956 230.562 508.118 239.35 508.118 241.04C510.453 252.962 518.535 261.136 522.283 263.717L505.199 288.36C498.623 281.784 485.442 268.387 485.442 267.619C478.129 251.272 478.221 239.319 478.129 239.319C470.754 237.66 453.178 215.199 485.411 195.441Z" fill="#FF6B6B"/>
<path d="M506.029 231.73C504.032 231.054 503.325 229.548 503.202 228.872C502.864 229.517 502.403 230.962 503.171 231.515C503.97 232.098 505.414 231.914 506.029 231.73Z" fill="#E34545"/>
<path d="M515.431 222.204C513.034 221.251 510.392 222.849 509.378 223.771C509.378 223.771 512.297 223.034 514.171 223.279C515.953 223.525 516.845 225 516.845 225C516.937 224.355 516.783 222.849 515.431 222.204Z" fill="#E34545"/>
<path d="M496.319 236.523C496.319 236.523 492.202 237.906 478.067 239.35C478.067 239.35 478.682 248.415 480.771 255.113C490.205 243.867 496.319 236.523 496.319 236.523Z" fill="#E34545"/>
<path d="M479.204 215.659C479.204 215.659 476.838 211.511 478.374 209.76C479.357 208.653 488.422 206.134 488.422 206.134" stroke="black" stroke-linecap="round"/>
<path d="M480.863 239.534C484.766 239.534 497.179 237.506 502.341 233.973" stroke="black" stroke-linecap="round"/>
<path d="M517.95 181.983C516.26 173.994 509.408 160.074 495.489 168.217C483.136 175.407 504.983 197.1 516.444 211.265C517.889 213.078 512.911 219.746 512.911 219.746C516.967 219.132 522.559 222.665 518.626 227.643C515.215 231.945 507.319 232.467 506.612 231.945C506.612 231.945 506.612 234.864 508.056 240.733C516.045 237.598 532.945 229.456 536.816 222.112C541.641 212.925 544.775 196.732 536.816 187.544C530.425 180.2 526.093 182.228 524.741 184.164C525.294 182.782 525.663 179.709 522.559 178.357C520.316 177.404 518.165 180.231 517.95 181.983Z" fill="black"/>
<path d="M495.952 211.665C496.902 211.665 497.673 210.881 497.673 209.914C497.673 208.946 496.902 208.162 495.952 208.162C495.002 208.162 494.231 208.946 494.231 209.914C494.231 210.881 495.002 211.665 495.952 211.665Z" fill="black"/>
<path d="M484.688 200.619C485.371 199.958 485.561 199.047 485.112 198.583C484.664 198.12 483.747 198.28 483.064 198.94C482.381 199.601 482.191 200.512 482.639 200.976C483.087 201.439 484.005 201.279 484.688 200.619Z" fill="black"/>
<path d="M462.582 184.718C462.367 187.821 438.707 215.783 426.939 229.395L423.344 235.356L399.07 224.386C398.885 224.54 398.824 224.448 398.793 224.263L399.07 224.386C399.53 224.018 400.637 222.174 402.972 216.643C406.997 207.056 407.12 190.433 407.827 182.782C408.533 175.162 410.193 155.158 413.665 156.019C417.137 156.848 415.263 173.902 415.14 175.438C414.986 176.975 416.891 177.374 416.891 175.438C418.95 148.46 421.869 151.287 423.405 152.977C424.942 154.636 422.115 175.438 425.31 175.438C426.877 175.438 427.861 157.063 428.69 153.315C429.52 149.566 430.503 145.326 432.838 146.862C435.204 148.398 432.838 170.153 432.838 173.349C432.838 175.899 433.852 176.329 434.744 175.438C435.85 171.321 437.908 159.245 440.459 156.019C443.009 152.792 444.115 154.667 444.33 156.019L440.459 185.978C439.475 190.31 439.906 197.992 444.33 193.045C456.805 179.033 462.859 180.846 462.582 184.718Z" fill="#FF6B6B"/>
<path d="M556.206 125.23C556.299 128.487 574.09 157.186 572.553 173.042L572.522 182.598L603.557 183.212C603.618 183.335 603.68 183.335 603.741 183.212H603.557C603.342 182.69 603.28 179.986 603.741 173.042C604.478 162.164 611.822 147.446 614.741 139.949C617.66 132.451 625.465 112.847 621.839 112.018C618.213 111.188 611.945 128.119 611.361 129.624C610.778 131.13 608.811 130.638 609.733 128.825C620.456 102.462 616.401 103.783 614.188 104.643C611.976 105.504 605.308 125.876 602.328 124.401C600.883 123.663 608.104 106.426 609.088 102.523C610.071 98.6209 611.146 94.1655 608.227 94.5035C605.308 94.8415 597.565 115.582 596.059 118.593C594.861 120.99 594.031 120.652 593.601 119.392C594.492 114.998 597.657 103.814 596.797 99.6041C595.906 95.3945 594.001 96.6543 593.171 97.7912L582.755 127.811C581.618 132.359 578.883 139.764 573.813 134.387C561.338 117.887 555.991 118.071 556.206 125.23Z" fill="#FF6B6B"/>
<path d="M436.219 196.824C431.303 197.039 421.931 201.003 417.476 207.364" stroke="black" stroke-linecap="round"/>
<path d="M578.607 143.759C582.694 145.848 589.085 152.823 590.407 159.86" stroke="black" stroke-linecap="round"/>
<path d="M596.674 152.915C598.272 147.354 602.42 140.317 607.705 134.571" stroke="black" stroke-linecap="round"/>
<path d="M418.857 198.146C419.902 194.397 419.994 188.928 419.011 183.766" stroke="black" stroke-linecap="round"/>
<path d="M402.909 216.212L425.678 231.391L419.778 249.151L415.568 247.707C413.049 251.64 409.73 256.464 407.61 259.967C404.63 254.068 392.492 243.528 384.534 240.056C385.763 238.335 387.423 235.693 388.713 234.003L386.9 232.344C385.948 231.606 384.995 230.899 385.118 230.746C385.763 230.377 400.205 217.933 402.909 216.212Z" fill="#7432FF"/>
<path d="M467.128 266.112C456.281 265.559 436.493 273.702 427.951 278.28C425.431 279.263 423.096 279.97 420.884 280.431L446.817 320.284C450.074 320.683 452.379 321.236 453.331 322.035C458.893 326.675 460.153 329.994 456.773 337.214L480.863 374.025C509.255 368.648 531.654 373.81 541.426 376.791C540.412 359.645 542.071 313.34 548.186 310.636C595.013 289.219 606.014 284.979 613.726 266.88C620.087 251.916 610.315 222.357 608.902 195.87H611.883C611.883 195.686 607.396 169.722 607.396 169.322H571.415C570.954 170.459 566.652 193.689 566.652 193.689C566.652 193.935 570.463 194.58 570.463 194.58C569.572 211.818 575.686 234.218 573.505 242.514C569.234 258.738 556.728 259.567 541.825 261.78C528.397 263.777 520.347 261.903 519.825 261.78C519.763 261.78 504.707 284.979 504.707 284.979L485.042 266.88C480.494 269.369 482.399 266.911 467.128 266.112Z" fill="#7432FF"/>
<path d="M494.69 300.22L461.751 266.39C461.751 266.39 452.932 267.865 447.985 269.8L494.69 306.673L499.699 293.491L494.69 300.22Z" fill="#6322EE"/>
<path d="M515.001 300.864L542.194 261.903C542.194 261.903 549.292 260.643 557.22 259.106L516.537 307.409L510.515 294.35L515.001 300.864Z" fill="#6322EE"/>
<path d="M555.868 287.099C552.088 296.286 544.376 318.102 543.977 331.899" stroke="black" stroke-linecap="round"/>
<path d="M564.194 291.492C559.432 294.596 554.669 301.233 552.61 306.333" stroke="black" stroke-linecap="round"/>
<path d="M569.572 229.854C574.058 238.242 574.581 250.01 572.368 257.323" stroke="black" stroke-linecap="round"/>
<path d="M443.807 310.39C446.664 311.742 453.178 315.275 456.159 318.44" stroke="black" stroke-linecap="round"/>
<path d="M608.81 195.563H597.134L601.128 202.354L609.394 201.832L608.81 195.563Z" fill="#6322EE"/>
<path d="M570.556 194.518L582.14 195.777L578.237 201.308L570.433 200.878L570.556 194.518Z" fill="#6322EE"/>
<path d="M475.763 358.601C478.359 358.601 480.464 356.496 480.464 353.899C480.464 351.303 478.359 349.198 475.763 349.198C473.166 349.198 471.062 351.303 471.062 353.899C471.062 356.496 473.166 358.601 475.763 358.601Z" stroke="white"/>
<path d="M596.704 267.495C599.301 267.495 601.405 265.39 601.405 262.794C601.405 260.198 599.301 258.093 596.704 258.093C594.108 258.093 592.003 260.198 592.003 262.794C592.003 265.39 594.108 267.495 596.704 267.495Z" stroke="white"/>
<path d="M576.425 207.393C579.021 207.393 581.126 205.288 581.126 202.691C581.126 200.095 579.021 197.99 576.425 197.99C573.828 197.99 571.724 200.095 571.724 202.691C571.724 205.288 573.828 207.393 576.425 207.393Z" stroke="white"/>
<path d="M602.142 231.084C604.738 231.084 606.843 228.979 606.843 226.383C606.843 223.786 604.738 221.682 602.142 221.682C599.545 221.682 597.44 223.786 597.44 226.383C597.44 228.979 599.545 231.084 602.142 231.084Z" stroke="white"/>
<path d="M439.259 288.052C441.855 288.052 443.96 285.947 443.96 283.351C443.96 280.754 441.855 278.649 439.259 278.649C436.662 278.649 434.558 280.754 434.558 283.351C434.558 285.947 436.662 288.052 439.259 288.052Z" stroke="white"/>
<path d="M509.193 346.648C511.79 346.648 513.895 344.543 513.895 341.946C513.895 339.35 511.79 337.245 509.193 337.245C506.597 337.245 504.492 339.35 504.492 341.946C504.492 344.543 506.597 346.648 509.193 346.648Z" stroke="white"/>
<path d="M531.439 366.467C534.036 366.467 536.141 364.362 536.141 361.766C536.141 359.169 534.036 357.064 531.439 357.064C528.843 357.064 526.738 359.169 526.738 361.766C526.738 364.362 528.843 366.467 531.439 366.467Z" stroke="white"/>
<path d="M475.763 319.454C478.359 319.454 480.464 317.349 480.464 314.753C480.464 312.157 478.359 310.052 475.763 310.052C473.166 310.052 471.062 312.157 471.062 314.753C471.062 317.349 473.166 319.454 475.763 319.454Z" stroke="white"/>
<path d="M542.133 302.155C544.729 302.155 546.834 300.051 546.834 297.454C546.834 294.858 544.729 292.753 542.133 292.753C539.536 292.753 537.432 294.858 537.432 297.454C537.432 300.051 539.536 302.155 542.133 302.155Z" stroke="white"/>
<path d="M504.523 292.476C501.45 299.973 495.643 316.35 497.179 321.851C499.084 328.703 508.978 337.982 508.824 348.337C508.701 356.634 504.953 363.916 503.078 366.528" stroke="black" stroke-linecap="round"/>
<path d="M501.911 289.158L494.936 299.758L470.293 276.16" stroke="black" stroke-linecap="round"/>
<path d="M507.872 289.465L514.847 300.065L533.099 276.19" stroke="black" stroke-linecap="round"/>
<path d="M486.117 267.648L504.922 284.733L515.83 267.648" stroke="black" stroke-linecap="round"/>
<path d="M396.641 239.902L414.155 229.086L413.049 245.955" stroke="black" stroke-linecap="round"/>
<path d="M593.815 191.783L581.555 175.252L576.362 191.353" stroke="black" stroke-linecap="round"/>
<path d="M527.979 459.597C555.083 443.257 574.272 425.392 570.837 419.695C567.402 413.998 542.646 422.626 515.542 438.967C488.437 455.307 469.249 473.172 472.684 478.869C476.118 484.566 500.875 475.938 527.979 459.597Z" fill="black"/>
<path d="M479.849 471.523C542.963 467.221 547.479 404.477 541.426 376.546C511.99 366.683 484.182 373.043 484.182 373.043C454.991 332.054 415.2 266.236 398.792 249.705C385.671 236.493 355.098 225.247 270.629 218.917C262.272 217.35 253.699 210.928 251.394 210.129L202.508 276.929C214.768 280.34 227.489 283.198 238.581 284.335C274.716 288.022 300.22 287.714 317.611 290.48C334.972 293.245 357.71 303.047 370.185 324.894C370.185 324.894 363.456 320.469 354.76 315.215C338.444 305.352 321.575 305.198 302.893 310.668C284.211 316.168 221.313 380.295 214.368 382.753L225.338 466.269C252.101 447.065 268.571 419.81 287.314 398.547C316.228 365.73 322.589 371.599 336.293 379.434C349.997 387.27 400.973 476.9 479.849 471.523Z" fill="#00C471" class="fill-primary"/>
<path d="M181.245 491.434C196.762 487.162 218.516 471.891 225.369 466.115L215.505 391.571C214.46 391.725 211.419 392.769 207.762 392.063C199.681 390.465 188.803 383.336 168.186 365.33C151.685 350.95 130.023 346.525 120.805 346.341C142.068 393.875 181.245 491.434 181.245 491.434Z" fill="black"/>
<path d="M153.498 264.853C167.694 272.443 193.996 276.345 202.907 276.868L247.062 215.998C246.201 215.414 243.252 214.062 241.131 211.02C236.369 204.291 233.388 191.631 230.807 164.376C228.748 142.591 216.058 124.462 209.513 117.979C192.245 167.111 153.498 264.853 153.498 264.853Z" fill="black"/>
<path d="M370.184 324.679C373.749 326.216 409.945 381.924 427.49 416.307C427.336 416.031 395.872 391.879 364.807 337.032C338.597 290.757 276.406 329.166 276.252 328.735C327.505 279.88 370.492 324.895 370.184 324.679Z" fill="#07A358" class="fill-primary"/>
<path d="M527.107 429.458C517.09 416.307 513.863 390.312 516.352 382.2C513.28 386.594 508.179 403.002 510.637 415.662C512.696 426.201 520.101 430.442 527.107 429.458Z" fill="#07A358" class="fill-primary"/>
<path d="M516.26 382.2C512.081 390.527 500.467 426.816 526.523 429.581" stroke="black" stroke-linecap="round"/>
<path d="M471.983 386.717L482.676 399.622" stroke="black" stroke-linecap="round"/>
<path d="M455.053 447.34L470.816 453.055" stroke="black" stroke-linecap="round"/>
<path d="M336.415 364.378L352.178 370.093" stroke="black" stroke-linecap="round"/>
<path d="M382.291 373.351L393.506 385.795" stroke="black" stroke-linecap="round"/>
<path d="M429.765 329.533L437.815 344.221" stroke="black" stroke-linecap="round"/>
<path d="M368.402 308.209L381.062 319.178" stroke="black" stroke-linecap="round"/>
<path d="M313.432 229.763L326.091 240.732" stroke="black" stroke-linecap="round"/>
<path d="M553.194 379.742C537.8 375.163 523.143 368.588 495.212 371.845" stroke="black" stroke-linecap="round"/>
<path d="M284.148 291.985C304.613 292.108 345.541 294.689 374.086 328.673C394.151 352.548 419.624 402.787 434.311 426.723" stroke="black" stroke-linecap="round"/>
<path d="M345.449 226.229C363.885 228.135 384.38 234.065 398.668 246.202C408.716 254.744 421.345 273.242 421.345 273.242" stroke="black" stroke-linecap="round"/>
<path d="M502.864 381.031C499.239 380.755 495.367 379.587 492.479 377.621C483.384 371.506 468.112 346.679 468.112 346.679" stroke="black" stroke-linecap="round"/>
<path d="M301.571 369.355C311.404 369.632 322.527 372.059 330.762 378.236C336.539 382.568 344.282 392.401 344.282 392.401" stroke="black" stroke-linecap="round"/>
<path d="M232.437 390.281L244.666 468.02" stroke="black" stroke-linecap="round"/>
<path d="M263.562 227.429L217.718 291.187" stroke="black" stroke-linecap="round"/>
<path d="M235.171 203.615C246.356 196.578 268.848 184.81 269.155 194.12C269.462 203.4 246.632 204.321 235.171 203.615Z" stroke="black"/>
<path d="M235.171 204.107C240.364 192.338 251.886 170.768 256.373 178.603C260.889 186.408 244.112 198.852 235.171 204.107Z" stroke="black"/>
<path d="M196.67 392.432C201.955 380.295 213.846 357.926 219.346 365.392C224.847 372.89 206.533 386.532 196.67 392.432Z" stroke="black"/>
<path d="M196.946 392.831C194.58 380.202 191.937 355.897 200.049 359.799C208.192 363.701 201.371 383.459 196.946 392.831Z" stroke="black"/>
</svg>
