<svg width="216" height="122" viewBox="0 0 216 122" fill="none" xmlns="http://www.w3.org/2000/svg">
<path d="M75.6493 121.284C92.7318 121.284 106.58 107.436 106.58 90.3534C106.58 73.2709 92.7318 59.4229 75.6493 59.4229C58.5668 59.4229 44.7188 73.2709 44.7188 90.3534C44.7188 107.436 58.5668 121.284 75.6493 121.284Z" fill="#BED0E2"/>
<path d="M78.3119 121.367C95.3944 121.367 109.243 107.519 109.243 90.4364C109.243 73.3539 95.3944 59.5059 78.3119 59.5059C61.2294 59.5059 47.3813 73.3539 47.3813 90.4364C47.3813 107.519 61.2294 121.367 78.3119 121.367Z" fill="#E4EAEF"/>
<path d="M78.312 114.246C91.4619 114.246 102.122 103.586 102.122 90.436C102.122 77.2861 91.4619 66.626 78.312 66.626C65.1621 66.626 54.502 77.2861 54.502 90.436C54.502 103.586 65.1621 114.246 78.312 114.246Z" fill="white"/>
<path d="M74.8359 90.9551H81.7873L78.3113 103.174L74.8359 90.9551Z" fill="#FEE3DF"/>
<path d="M75.9287 75.7743V70.4941H76.966L79.1266 74.0194V70.4941H80.1171V75.7743H79.0475L76.9193 72.3307V75.7743H75.9287Z" fill="black"/>
<path d="M75.6479 108.377L76.6852 108.276C76.7474 108.624 76.8738 108.88 77.065 109.043C77.2563 109.206 77.513 109.288 77.8371 109.288C78.1807 109.288 78.44 109.215 78.6131 109.07C78.7881 108.925 78.8743 108.755 78.8743 108.561C78.8743 108.436 78.8374 108.33 78.7648 108.242C78.6915 108.154 78.5632 108.078 78.381 108.013C78.2559 107.97 77.9713 107.893 77.5279 107.783C76.9555 107.641 76.5555 107.467 76.3247 107.26C76.0006 106.971 75.8392 106.616 75.8392 106.198C75.8392 105.929 75.915 105.677 76.068 105.443C76.221 105.209 76.4395 105.031 76.7273 104.909C77.0132 104.787 77.3607 104.726 77.7658 104.726C78.429 104.726 78.9282 104.871 79.2627 105.161C79.5985 105.452 79.7742 105.839 79.7904 106.324L78.724 106.371C78.6786 106.1 78.5807 105.904 78.4303 105.786C78.2812 105.667 78.0556 105.608 77.7554 105.608C77.4456 105.608 77.2031 105.672 77.0274 105.799C76.9146 105.881 76.8583 105.99 76.8583 106.126C76.8583 106.252 76.9108 106.358 77.0171 106.447C77.1513 106.56 77.478 106.678 77.9966 106.8C78.5152 106.923 78.899 107.05 79.1473 107.18C79.3956 107.311 79.59 107.49 79.7301 107.717C79.8701 107.943 79.9401 108.224 79.9401 108.557C79.9401 108.86 79.8565 109.144 79.6879 109.408C79.52 109.672 79.2828 109.868 78.9748 109.997C78.6676 110.125 78.2851 110.189 77.8268 110.189C77.1597 110.189 76.6469 110.036 76.2884 109.726C75.9312 109.416 75.7173 108.967 75.6479 108.377Z" fill="black"/>
<path d="M57.7903 93.3426L56.5308 88.0625H57.6218L58.4179 91.6895L59.3831 88.0625H60.6511L61.5768 91.7505L62.3872 88.0625H63.46L62.1778 93.3426H61.0472L59.9951 89.396L58.9468 93.3426H57.7903Z" fill="black"/>
<path d="M95.1494 93.3426V88.0625H99.063V88.9558H96.2138V90.1266H98.8653V91.016H96.2138V92.4532H99.1641V93.3426H95.1494Z" fill="black"/>
<path d="M81.7802 90.9302C81.7821 90.8828 81.7879 90.8355 81.7879 90.7875C81.7879 90.0608 78.3113 78.7363 78.3113 78.7363C78.3113 78.7363 74.8359 90.0608 74.8359 90.7875C74.8359 90.8355 74.8412 90.8822 74.8431 90.9302L74.8359 90.9554H74.8444C74.9332 92.7972 76.4495 94.2642 78.3119 94.2642C80.175 94.2642 81.6913 92.7972 81.7802 90.9554H81.7892L81.7802 90.9302Z" fill="#2D48C3" class="fill-primary"/>
<path d="M78.3122 92.6304C79.3301 92.6304 80.1552 91.8052 80.1552 90.7874C80.1552 89.7695 79.3301 88.9443 78.3122 88.9443C77.2944 88.9443 76.4692 89.7695 76.4692 90.7874C76.4692 91.8052 77.2944 92.6304 78.3122 92.6304Z" fill="white"/>
<path d="M50.9523 34.0393C50.199 30.9186 48.3534 28.5071 46.546 25.925C42.6383 20.3441 41.7087 13.4564 38.3319 7.61745C35.7239 3.10554 30.882 -0.895549 25.3335 0.175381C19.2677 1.34485 17.2069 8.1166 15.1726 13.0648C13.8534 16.273 12.0831 19.023 9.81154 21.64C7.99575 23.7326 6.04579 25.7105 4.3415 27.8983C0.760497 32.4971 -0.742189 37.7565 0.349486 43.539C1.60906 50.2096 5.44289 56.4135 9.69679 61.597C13.7238 66.5037 18.8969 70.7323 25.3316 71.7378C25.4366 71.754 25.5248 71.7248 25.5922 71.6717C25.6765 71.7209 25.7796 71.73 25.8878 71.6529C31.6937 67.493 37.7037 63.5172 43.3118 59.0947C45.6047 57.2867 47.7583 55.1993 49.0418 52.5356C50.3591 49.8006 50.7882 46.7187 51.1558 43.7348C51.5532 40.5233 51.7172 37.2107 50.9523 34.0393Z" fill="#E4EAEF"/>
<path d="M47.0038 71.8127C46.5157 69.5483 44.7647 69.5114 42.6883 69.7519C40.5069 70.0047 39.0088 69.9457 36.8727 69.4705C36.0319 69.2838 35.3169 69.1963 34.5098 69.5736C29.5772 71.8808 30.0796 78.5482 31.9758 82.5797C32.1359 82.9207 32.3926 83.0802 32.6662 83.1132C32.755 83.2247 32.8509 83.3265 32.9598 83.414C34.22 84.4214 38.3754 83.8095 39.6577 82.9635C40.3753 82.489 40.6379 81.7733 41.0696 81.0751C42.1516 79.3241 43.5667 78.7848 45.0778 77.581C46.7989 76.2105 47.466 73.9565 47.0038 71.8127Z" fill="#E4EAEF"/>
<path d="M29.2631 120.992H21.9131L25.5881 39.4805L29.2631 120.992Z" fill="#881A0B"/>
<path d="M26.2363 55.0764L36.7064 42.2207L26.2363 59.6544V55.0764Z" fill="#565B82"/>
<path d="M26.9429 87.3674L37.413 74.5117L26.9429 91.9461V87.3674Z" fill="#565B82"/>
<path d="M25.318 69.3111V65.2089L13.0107 51.4463L25.318 69.3111Z" fill="#565B82"/>
<path d="M37.869 111.087C38.1367 110.869 31.4499 112.627 29.942 115.315C30.0257 113.834 29.7223 110.415 29.5874 110.708C28.5586 112.937 27.3159 115.03 25.8684 117.004C25.683 114.164 23.3531 108.447 23.3622 108.842C23.429 111.648 23.2494 114.422 22.43 117.095C21.8141 113.46 15.9875 107.721 16.1392 108.025C17.4824 110.728 18.554 113.528 19.387 116.422C17.6063 115.296 13.0133 115.077 13.3128 115.209C15.9992 116.396 18.9326 117.771 19.8596 120.806C19.8642 120.82 19.8732 120.829 19.8797 120.842C19.8985 120.911 19.9439 120.975 20.0288 121.018C21.42 121.722 22.8838 121.66 24.4124 121.617C26.6204 121.556 28.8264 121.416 31.024 121.199C32.0703 121.095 33.1159 120.972 34.159 120.834C34.5933 120.776 35.2364 120.77 35.6293 120.493C35.0977 118.258 37.2065 115.856 36.9815 115.908C35.4088 116.269 34.0961 117.041 33.0615 118.182C33.9308 115.381 35.5638 112.966 37.869 111.087Z" fill="#FEE3DF"/>
<path d="M193.123 110.45C192.515 110.768 191.968 111.555 191.503 112.274C191.421 110.924 191.298 109.58 191.115 108.249C191.148 108.181 191.161 108.104 191.159 108.027C192.362 106.424 193.657 104.862 194.754 103.151C195.226 102.417 195.719 101.129 194.95 100.382C193.324 98.8038 191.546 104.258 190.858 106.574C190.613 105.195 190.299 103.835 189.897 102.503C189.756 102.04 189.601 101.589 189.443 101.139C190.762 100.266 191.992 99.207 193.09 97.9358C193.586 97.3621 195.03 95.9262 194.287 94.8993C193.643 94.0099 192.245 94.4572 191.656 95.169C190.576 96.4746 189.892 98.6035 189.316 100.299C189.303 100.339 189.3 100.378 189.296 100.416C189.266 100.436 189.238 100.459 189.207 100.48C188.596 98.8453 187.873 97.2888 187.043 95.827C188.728 94.0157 191.68 89.5479 189.369 87.4812C186.98 85.3459 186.319 91.9666 186.16 94.3684C185.309 93.0492 184.374 91.8129 183.354 90.6798C183.33 90.6519 183.303 90.6383 183.276 90.6227C183.315 90.5663 183.343 90.4937 183.341 90.3945C183.31 89.0008 182.823 87.6926 181.942 86.8304C181.158 86.0635 179.868 85.5708 178.994 86.409C178.028 87.3367 179.371 88.9165 179.912 89.6445C180.743 90.7621 181.815 91.4758 183.037 91.2898C184.095 92.4768 185.056 93.7843 185.928 95.1774C184.806 94.9369 178.204 93.0816 179.255 96.4869C179.754 98.1056 181.964 98.0752 183.039 98.0907C184.415 98.1102 185.671 97.7296 186.501 96.3333C186.53 96.3223 186.558 96.3093 186.588 96.2827C186.59 96.2814 186.591 96.2795 186.591 96.2795C187.345 97.6019 188 99.0099 188.568 100.478C188.32 100.36 188.046 100.303 187.778 100.264C187.744 100.212 187.7 100.168 187.631 100.149C186.23 99.7613 183.947 99.0035 182.586 99.8222C181.849 100.266 181.514 101.258 181.988 102.15C182.587 103.272 183.918 103.718 184.929 103.601C185.746 103.506 186.461 103.031 187.177 102.563C187.686 102.229 188.472 101.883 188.896 101.329C189.117 101.954 189.32 102.588 189.504 103.235C189.867 104.509 190.138 105.808 190.355 107.12C189.501 106.121 188.448 105.458 187.27 105.268C186.474 105.139 184.928 105.039 184.655 106.344C184.004 109.465 188.829 109.109 190.571 108.565C190.711 109.617 190.803 110.68 190.879 111.745C190.759 111.63 190.628 111.53 190.487 111.448C189.996 111.161 189.201 110.878 188.664 111.132C188.256 111.325 187.988 111.927 188.23 112.439C188.542 113.095 190.324 113.548 190.367 113.386C190.547 113.442 190.731 113.484 190.917 113.517C190.932 113.584 190.956 113.646 190.999 113.689C191.077 115.567 191.083 117.452 191.05 119.325C191.042 119.789 191.612 119.789 191.621 119.325C191.653 117.457 191.651 115.575 191.577 113.698C192.346 113.578 193.087 113.302 193.767 112.816C194.191 112.513 195.06 111.955 194.704 111.179C194.404 110.529 193.661 110.168 193.123 110.45Z" fill="#FEE3DF"/>
<path d="M200.121 112.399C199.745 112.973 200.368 113.52 200.668 113.812C201.149 114.279 201.706 114.588 202.301 114.775C202.017 116.256 201.789 117.751 201.59 119.238C201.54 119.607 201.993 119.676 202.043 119.307C202.242 117.815 202.473 116.319 202.76 114.837C202.8 114.808 202.826 114.762 202.846 114.711C202.997 114.706 203.148 114.696 203.298 114.672C203.312 114.806 204.782 114.66 205.109 114.177C205.362 113.8 205.222 113.289 204.922 113.087C204.526 112.822 203.86 112.949 203.436 113.119C203.315 113.167 203.199 113.231 203.088 113.308C203.276 112.471 203.478 111.639 203.715 110.819C205.034 111.46 208.822 112.323 208.68 109.767C208.62 108.698 207.38 108.592 206.734 108.598C205.775 108.608 204.859 109.008 204.061 109.698C204.391 108.682 204.762 107.683 205.203 106.714C205.426 106.223 205.665 105.743 205.915 105.275C206.185 105.765 206.767 106.134 207.132 106.46C207.644 106.918 208.155 107.382 208.792 107.555C209.582 107.769 210.692 107.575 211.301 106.756C211.786 106.104 211.639 105.277 211.107 104.836C210.125 104.022 208.221 104.35 207.062 104.488C207.005 104.495 206.964 104.525 206.932 104.563C206.714 104.562 206.49 104.575 206.278 104.637C206.905 103.54 207.595 102.501 208.352 101.54L208.355 101.545C208.375 101.569 208.396 101.583 208.418 101.595C208.909 102.803 209.861 103.257 210.956 103.406C211.81 103.524 213.562 103.813 214.154 102.588C215.397 100.009 209.931 100.69 209.012 100.747C209.87 99.7443 210.791 98.8219 211.775 98.0063C212.723 98.3007 213.66 97.8624 214.454 97.0748C214.971 96.562 216.227 95.4684 215.572 94.6159C214.979 93.8458 213.895 94.0824 213.181 94.5965C212.377 95.1754 211.834 96.1549 211.642 97.2589C211.628 97.3367 211.641 97.3976 211.665 97.4475C211.643 97.4566 211.619 97.4638 211.597 97.4832C210.65 98.2598 209.759 99.1298 208.926 100.075C209.088 98.149 209.358 92.8125 207.205 94.2211C205.121 95.5851 206.929 99.487 208.049 101.127C207.215 102.188 206.453 103.338 205.771 104.562C205.75 104.542 205.73 104.521 205.708 104.501C205.71 104.47 205.712 104.438 205.706 104.405C205.452 102.99 205.165 101.217 204.465 100.051C204.083 99.415 203.026 98.8912 202.408 99.5207C201.695 100.247 202.668 101.56 202.992 102.075C203.712 103.216 204.562 104.206 205.504 105.057C205.325 105.395 205.146 105.736 204.98 106.086C204.5 107.096 204.087 108.138 203.726 109.204C203.458 107.281 202.702 102.737 201.221 103.795C200.521 104.296 200.758 105.378 201.044 106.018C201.709 107.509 202.55 108.904 203.313 110.322C203.301 110.383 203.304 110.445 203.322 110.504C203.016 111.538 202.757 112.591 202.53 113.652C202.247 113.026 201.907 112.336 201.462 112.01C201.068 111.724 200.435 111.92 200.121 112.399Z" fill="#FEE3DF"/>
<path d="M193.514 110.917C194.027 111.202 194.49 111.91 194.882 112.556C194.951 111.342 195.056 110.134 195.209 108.938C195.183 108.876 195.17 108.808 195.172 108.738C194.156 107.296 193.062 105.894 192.135 104.355C191.737 103.695 191.319 102.537 191.97 101.865C193.344 100.446 194.846 105.348 195.427 107.431C195.633 106.191 195.899 104.969 196.239 103.771C196.358 103.354 196.489 102.949 196.622 102.543C195.508 101.76 194.47 100.807 193.541 99.6645C193.123 99.1491 191.903 97.8584 192.531 96.9346C193.074 96.1353 194.255 96.5379 194.753 97.1777C195.665 98.3511 196.242 100.265 196.73 101.789C196.741 101.825 196.743 101.859 196.746 101.894C196.772 101.912 196.796 101.933 196.822 101.951C197.337 100.482 197.948 99.0823 198.649 97.7689C197.227 96.1405 194.732 92.1245 196.685 90.2666C198.702 88.3471 199.261 94.2988 199.396 96.4581C200.114 95.2718 200.904 94.1601 201.766 93.1416C201.786 93.117 201.809 93.1041 201.832 93.0904C201.799 93.0399 201.776 92.9744 201.778 92.8862C201.804 91.6325 202.215 90.4572 202.959 89.6825C203.621 88.9934 204.711 88.5493 205.449 89.3033C206.266 90.1369 205.131 91.5579 204.673 92.2114C203.972 93.2162 203.066 93.858 202.035 93.6907C201.141 94.7578 200.328 95.9331 199.592 97.1862C200.54 96.969 206.116 95.3017 205.229 98.3621C204.808 99.8175 202.94 99.7902 202.032 99.8045C200.869 99.8213 199.808 99.4797 199.108 98.224C199.084 98.2149 199.06 98.2033 199.035 98.1793L199.03 98.1748C198.395 99.365 197.841 100.63 197.362 101.95C197.571 101.845 197.803 101.793 198.029 101.758C198.057 101.711 198.095 101.671 198.152 101.654C199.336 101.306 201.265 100.625 202.414 101.361C203.037 101.76 203.32 102.652 202.919 103.454C202.414 104.463 201.289 104.863 200.434 104.758C199.745 104.674 199.141 104.246 198.536 103.826C198.105 103.526 197.442 103.215 197.084 102.717C196.898 103.278 196.724 103.848 196.57 104.43C196.265 105.575 196.035 106.742 195.851 107.923C196.574 107.026 197.463 106.429 198.458 106.258C199.13 106.142 200.436 106.053 200.666 107.226C201.216 110.03 197.141 109.711 195.668 109.222C195.55 110.168 195.472 111.123 195.409 112.081C195.51 111.978 195.622 111.887 195.741 111.814C196.157 111.556 196.827 111.301 197.281 111.53C197.625 111.703 197.852 112.245 197.646 112.704C197.384 113.294 195.877 113.701 195.842 113.555C195.689 113.606 195.534 113.644 195.377 113.674C195.364 113.734 195.344 113.789 195.308 113.828C195.242 115.516 195.239 117.211 195.266 118.895C195.273 119.312 194.791 119.312 194.784 118.895C194.756 117.215 194.758 115.523 194.821 113.835C194.172 113.728 193.545 113.48 192.971 113.043C192.612 112.77 191.878 112.269 192.179 111.57C192.432 110.987 193.06 110.664 193.514 110.917Z" fill="#881A0B"/>
<path d="M188.225 113.513C187.809 113.886 187.511 114.57 187.266 115.186C186.996 114.269 186.693 113.366 186.349 112.488C186.363 112.433 186.363 112.376 186.348 112.324C187.024 110.907 187.775 109.498 188.352 108.032C188.601 107.404 188.781 106.386 188.076 106.06C186.586 105.373 186.064 109.608 185.894 111.39C185.494 110.494 185.044 109.628 184.53 108.804C184.351 108.519 184.162 108.245 183.971 107.971C184.848 107.034 185.628 105.988 186.273 104.829C186.564 104.305 187.45 102.946 186.722 102.419C186.092 101.963 185.089 102.626 184.747 103.269C184.121 104.447 183.925 106.097 183.745 107.42C183.741 107.451 183.745 107.479 183.748 107.507C183.728 107.528 183.709 107.551 183.689 107.573C182.97 106.592 182.176 105.693 181.315 104.886C182.326 103.204 183.9 99.3598 181.811 98.5054C179.653 97.6231 180.165 102.387 180.412 104.095C179.558 103.393 178.651 102.77 177.696 102.24C177.672 102.226 177.649 102.225 177.627 102.22C177.648 102.171 177.658 102.114 177.641 102.046C177.403 101.085 176.828 100.299 176.019 99.9225C175.301 99.5867 174.236 99.5692 173.696 100.371C173.098 101.258 174.371 102.018 174.898 102.387C175.706 102.954 176.638 103.18 177.545 102.743C178.539 103.301 179.478 103.968 180.36 104.716C179.463 104.831 174.118 105.203 175.448 107.304C176.08 108.303 177.769 107.725 178.595 107.465C179.651 107.133 180.555 106.552 180.976 105.373C180.997 105.359 181.017 105.342 181.035 105.317C181.037 105.315 181.037 105.313 181.037 105.313C181.819 106.042 182.538 106.854 183.199 107.731C182.992 107.712 182.773 107.741 182.561 107.781C182.527 107.754 182.487 107.734 182.431 107.739C181.298 107.822 179.432 107.87 178.515 108.78C178.018 109.274 177.914 110.048 178.416 110.548C179.047 111.177 180.136 111.151 180.893 110.815C181.504 110.544 181.979 110.034 182.455 109.53C182.794 109.169 183.343 108.732 183.582 108.24C183.846 108.618 184.101 109.008 184.342 109.411C184.814 110.205 185.223 111.038 185.591 111.895C184.784 111.417 183.874 111.221 182.942 111.385C182.313 111.496 181.113 111.816 181.105 112.791C181.087 115.121 184.728 113.66 185.98 112.844C186.249 113.54 186.484 114.254 186.706 114.975C186.596 114.926 186.48 114.889 186.359 114.868C185.939 114.792 185.287 114.796 184.914 115.107C184.63 115.343 184.518 115.829 184.782 116.123C185.121 116.501 186.557 116.366 186.566 116.243C186.713 116.237 186.86 116.22 187.007 116.196C187.029 116.239 187.057 116.276 187.097 116.294C187.445 117.579 187.74 118.887 188.004 120.196C188.07 120.52 188.506 120.377 188.442 120.052C188.179 118.747 187.888 117.441 187.541 116.156C188.111 115.879 188.636 115.5 189.082 114.991C189.361 114.675 189.941 114.069 189.549 113.619C189.22 113.244 188.595 113.181 188.225 113.513Z" fill="#881A0B"/>
<path d="M172.587 43.7265C172.237 43.7635 171.543 43.8886 170.321 44.2873C170.69 44.0474 171.281 43.4932 171.693 43.2403C172.212 42.9214 171.586 42.5117 170.797 42.9149C169.614 43.5191 167.441 45.0509 166.544 45.8256C164.94 46.8012 164.329 46.8816 162.396 47.5552C161.64 47.8184 164.018 49.8429 164.567 50.0452C165.225 50.2863 165.373 49.8046 165.884 49.4176C166.933 48.6241 168.248 48.243 169.711 48.0025C171.076 47.7775 171.926 47.2446 173.035 46.8252C173.942 46.6119 173.749 46.3073 173.607 45.9838C173.591 45.9442 173.557 45.9157 173.529 45.8826C173.661 45.7698 173.739 45.6382 173.715 45.4911C173.677 45.2597 173.456 45.1203 173.166 45.0438C173.319 44.7806 173.237 44.4921 172.809 44.345C173.146 44.2497 173.275 43.6539 172.587 43.7265Z" fill="#EA3E72"/>
<path d="M169.493 46.9235C169.464 46.9235 169.435 46.9106 169.415 46.8866C169.38 46.8438 169.386 46.7803 169.429 46.744C169.91 46.344 169.223 45.2666 169.216 45.2556L169.192 45.2186L169.203 45.1765C169.246 44.9988 170.175 44.2721 170.725 43.8553C170.768 43.8222 170.834 43.83 170.866 43.8747C170.9 43.9188 170.891 43.9824 170.847 44.0161C170.227 44.4867 169.559 45.0306 169.42 45.1998C169.567 45.4455 170.11 46.4406 169.559 46.8995C169.539 46.9151 169.516 46.9235 169.493 46.9235Z" fill="#2A2B3C"/>
<path d="M125.987 34.6252C124.867 34.4508 123.446 33.975 122.334 34.3873C121.348 34.7529 120.68 35.7246 120.08 36.5356C119.57 37.2234 118.597 38.2055 118.799 39.1403C118.997 40.0486 119.997 40.5853 120.817 40.7895C120.915 40.8142 120.998 40.7954 121.068 40.7578C121.29 40.8336 121.508 40.8822 121.711 40.8803C122.336 40.8738 122.732 40.164 123.102 39.7471C124.302 38.3981 125.602 37.1709 125.636 35.2968C125.688 35.3052 125.74 35.3137 125.793 35.3221C126.249 35.3934 126.445 34.6959 125.987 34.6252Z" fill="#2D48C3" class="fill-primary"/>
<path d="M119.274 42.0852C119.221 42.0586 119.168 42.0457 119.118 42.0444C119.108 42.0418 119.101 42.0359 119.091 42.0346C116.674 41.7325 116.089 44.2459 115.646 46.2159C115.236 48.0395 114.727 50.3933 116.884 51.1466C118.975 51.8766 119.654 49.6556 120.179 47.9546C120.723 46.1894 121.307 43.1004 119.274 42.0852Z" fill="#2D48C3" class="fill-primary"/>
<path d="M141.201 35.1518C141.008 32.3073 137.781 32.0512 135.49 31.5481C133.044 31.0107 130.069 30.3132 127.899 31.8969C127.869 31.906 127.839 31.9105 127.808 31.93C123.245 34.7382 119.752 38.952 117.61 43.8496C115.73 48.1456 115.054 53.6325 120.097 55.9488C122.147 56.89 124.588 57.1273 126.498 55.7899C128.81 54.1706 130.798 51.9347 132.589 49.7741C134.443 47.5369 136.122 45.161 137.751 42.7566C139.288 40.4883 141.397 38.0671 141.201 35.1518Z" fill="#ABB6E7" class="fill-primary-light"/>
<path d="M144.965 27.2793H127.75V32.2618H144.965V27.2793Z" fill="#FFD357"/>
<path d="M129.005 27.7806C128.086 26.8257 126.813 27.3754 125.988 28.13C125.858 28.2493 125.769 28.3783 125.714 28.5099C125.602 28.6291 125.518 28.7717 125.489 28.9396C125.305 29.9853 125.547 31.0679 126.35 31.8108C127.438 32.8195 128.6 31.967 129.167 30.8799C129.657 29.9412 129.804 28.6116 129.005 27.7806Z" fill="#EDF1F4"/>
<path d="M127.53 31.689C127.417 31.689 127.291 31.6695 127.149 31.6241C126.39 31.381 126.003 30.6083 126.163 29.6547C126.307 28.7919 126.899 27.9277 127.753 27.9277C127.763 27.9277 127.772 27.9277 127.781 27.9284C128.216 27.9375 128.555 28.084 128.788 28.3653C129.241 28.9118 129.106 29.7604 129.1 29.7967C129.083 29.8939 128.991 29.9659 128.892 29.9451C128.794 29.9296 128.727 29.8362 128.743 29.7383C128.745 29.7306 128.857 29.0136 128.509 28.5954C128.347 28.399 128.099 28.2966 127.774 28.2895C127.767 28.2895 127.761 28.2895 127.755 28.2895C127.107 28.2895 126.636 29.0201 126.52 29.7144C126.418 30.3237 126.559 31.0549 127.261 31.2799C127.657 31.407 127.923 31.2695 128.076 30.8611C128.339 30.1474 128.096 29.1115 127.921 29.0376C127.733 29.081 127.537 29.446 127.49 29.868C127.455 30.1889 127.529 30.3626 127.576 30.384C127.668 30.4255 127.707 30.5324 127.667 30.6232C127.626 30.7146 127.516 30.7522 127.428 30.7133C127.193 30.6064 127.083 30.2757 127.132 29.8284C127.187 29.3247 127.435 28.775 127.862 28.6849C127.958 28.6655 128.137 28.6706 128.293 28.9189C128.604 29.4187 128.699 30.7321 128.221 31.3447C128.087 31.5152 127.868 31.689 127.53 31.689Z" fill="#ABC3D6"/>
<path d="M144.964 32.3406C145.878 32.3406 146.618 31.2069 146.618 29.8085C146.618 28.41 145.878 27.2764 144.964 27.2764C144.051 27.2764 143.311 28.41 143.311 29.8085C143.311 31.2069 144.051 32.3406 144.964 32.3406Z" fill="#FFD357"/>
<path d="M121.501 118.435C121.336 117.648 121.328 117.028 121.673 115.889C121.672 115.875 121.678 115.868 121.678 115.868C121.949 114.984 122.099 114.617 122.33 113.745C123.903 113.488 125.861 113.759 127.131 114.373C126.927 115.593 126.941 115.906 127.153 116.58C127.186 116.688 127.23 116.796 127.287 116.901C128.029 118.319 130.435 119.265 131.43 120.219C131.708 120.466 131.875 120.718 131.882 120.974C131.938 122.283 121.911 120.325 121.501 118.435Z" fill="#EA3E72"/>
<path d="M131.847 120.826C131.868 120.878 131.873 120.92 131.874 120.974C131.964 122.374 121.704 120.416 121.314 118.59L121.309 118.582C121.27 118.486 121.247 118.379 121.232 118.268C121.096 117.336 121.601 116.065 121.676 115.886C121.671 115.878 121.678 115.873 121.678 115.873C124.269 117.555 127.286 116.898 127.286 116.898C127.937 118.143 129.862 119.027 130.998 119.858C131.455 120.152 131.772 120.48 131.847 120.826Z" fill="#FFD357"/>
<path d="M131.847 120.827C131.868 120.878 131.873 120.92 131.874 120.974C131.964 122.375 121.704 120.416 121.314 118.59L121.309 118.582C121.27 118.486 121.247 118.379 121.232 118.269C121.757 118.685 122.854 119.419 124.576 119.894C126.805 120.509 129.163 121.055 131.847 120.827Z" fill="#2A2B3B"/>
<path d="M156.854 117.511C155.545 116.996 153.198 116.811 152.111 115.763C152.022 115.681 151.947 115.593 151.882 115.5C151.468 114.928 151.355 114.635 151.164 113.413C149.765 113.232 147.822 113.594 146.411 114.334C146.467 115.234 146.44 115.631 146.462 116.556C146.462 116.556 146.459 116.564 146.465 116.576C146.491 117.517 146.932 118.55 147.186 119.088C150.444 118.817 153.654 118.349 156.854 117.511Z" fill="#EA3E72"/>
<path d="M158.058 118.647C158.077 119.224 147.926 120.508 147.284 119.723L147.277 119.717C147.239 119.677 147.213 119.632 147.181 119.587C147.154 119.542 147.129 119.496 147.102 119.444C146.682 118.601 146.453 116.763 146.466 116.568C146.459 116.562 146.466 116.555 146.466 116.555C149.454 117.333 152.106 115.758 152.106 115.758C153.117 116.737 155.224 116.964 156.566 117.392C157.875 117.681 158.052 118.621 158.058 118.647Z" fill="#FFD357"/>
<path d="M158.105 118.845C158.125 119.422 148.031 120.755 147.389 119.97C147.389 119.97 147.213 119.632 147.181 119.587C150.563 119.849 155.455 119.087 158.025 118.575C158.038 118.602 158.098 118.819 158.105 118.845Z" fill="#2A2B3B"/>
<path d="M140.682 34.0812C148.009 31.8978 154.324 41.7579 157.551 46.9213C160.776 52.0854 158.047 55.518 155.579 54.7673C147.832 52.4115 136.241 35.4049 140.682 34.0812Z" fill="#3F4261"/>
<path d="M166.489 43.9977C161.033 44.3114 157.172 45.7032 153.825 46.6847C150.578 47.637 155.207 54.906 156.338 54.8677C157.469 54.8295 167.031 54.1132 168.369 48.8596C168.369 48.8596 167.572 43.9354 166.489 43.9977Z" fill="#3F4261"/>
<path d="M168.369 48.8596C168.369 48.8596 165.316 55.2029 155.578 54.7666C154.368 54.7128 148.212 50.1244 148.212 50.1244L149.941 44.8145C149.941 44.8145 153.657 51.9505 155.911 52.7246C158.163 53.4986 168.369 48.8596 168.369 48.8596Z" fill="#343751"/>
<path d="M155.455 114.973C155.735 115.247 152.966 87.7774 152.814 82.9705C152.653 77.9005 152.266 72.8097 151.727 67.7668C151.291 63.6795 151.903 58.557 148.843 55.61C148.646 55.4194 137.864 56.2978 136.137 60.6178C135.221 62.9126 135.938 65.4512 136.346 67.7752C136.922 71.0619 139.427 90.6317 139.602 97.2161C139.761 103.183 140.858 111.435 142.945 117.081C145.857 118.146 151.504 116.363 155.455 114.973Z" fill="#ABB6E7" class="fill-primary-light"/>
<path d="M141.59 65.1035C141.59 65.1035 143.547 88.9777 144.519 93.2044C145.491 97.4317 147.376 113.314 150.318 116.588C150.318 116.588 145.629 118.022 142.945 117.081C142.945 117.081 140.175 109.195 139.699 100.018C139.225 90.8415 135.691 70.7914 135.691 70.7914L141.59 65.1035Z" fill="#2D48C3" class="fill-primary"/>
<path d="M141.189 67.0195L137.336 80.7893L138.691 90.1567L141.189 67.0195Z" fill="#2A2B3B"/>
<path d="M140.938 57.9853C140.795 57.7526 130.429 53.9991 127.609 57.7007C127.531 57.8044 127.453 57.9146 127.382 58.0313C126.086 60.1122 125.852 64.1315 125.638 66.355C125.314 69.6812 122.481 89.2063 120.88 95.5923C119.435 101.387 118.096 109.209 118.595 115.212C120.742 116.595 124.199 117.866 131.654 117.081C131.849 117.419 136.29 90.0827 137.431 85.4146C138.636 80.4813 139.622 75.4767 140.458 70.4721C141.132 66.4198 143.097 61.6486 140.938 57.9853Z" fill="#ABB6E7" class="fill-primary-light"/>
<path d="M131.337 62.5629C131.337 62.5629 127.805 69.9855 127.934 73.4148C128.063 76.837 128.874 90.5938 126.54 96.104C124.206 101.614 123.497 117.08 123.497 117.08C123.497 117.08 120.931 116.648 118.596 115.211C118.096 109.208 119.435 101.387 120.88 95.5913C122.482 89.2052 125.315 69.6802 125.639 66.354C125.853 64.1304 126.086 60.1112 127.383 58.0303L131.337 59.074V62.5629Z" fill="#2D48C3" class="fill-primary"/>
<path d="M151.194 60.7547C151.194 60.7547 139.014 64.0071 126.159 61.7155L126.557 58.6699L151.194 60.7547Z" fill="#2A2B3B"/>
<path d="M148.32 36.3574C148.32 36.3574 151.486 40.0888 152.671 45.6613C153.418 49.1749 153.25 53.6142 153.25 53.6142L149.174 50.592L148.32 36.3574Z" fill="#17171D"/>
<path d="M125.58 60.5457C125.58 60.5457 128.518 37.7689 135.27 33.8619C139.617 31.3466 146.326 33.5591 147.823 36.8607C150.744 43.3006 152.448 60.5191 152.448 60.5191C152.448 60.5191 136.83 63.7935 125.58 60.5457Z" fill="#EDF1F4"/>
<path d="M142.781 29.8308C142.781 29.8308 142.702 32.7045 142.615 33.2841C142.589 33.4617 139.938 33.3333 139.598 32.9911C139.861 32.267 139.997 31.207 139.997 29.8308C139.997 28.5284 142.781 29.8308 142.781 29.8308Z" fill="#EA3E72"/>
<path d="M139.645 28.0356C139.645 28.0356 140.249 31.5414 142.464 31.6108C144.678 31.6788 143.291 26.8369 142.958 26.7034C142.626 26.5699 140.466 26.0992 139.645 28.0356Z" fill="#EA3E72"/>
<path d="M142.348 24.9917C142.049 24.8426 141.722 24.7791 141.386 24.8433C140.98 24.9204 140.726 25.2309 140.333 25.2724C139.457 25.3658 139.03 25.9317 139.124 26.6772C139.103 26.6979 139.079 26.718 139.061 26.7479C138.74 27.2924 138.534 27.8681 138.855 28.3899C138.504 29.0194 139.038 29.8453 139.443 30.3587C139.478 30.4028 139.517 30.4274 139.558 30.4449C139.671 30.6582 140.065 30.6932 140.168 30.3885C140.428 29.6222 140.202 28.6991 140.49 27.9886C140.628 27.6483 140.931 27.3981 141.159 27.0765C141.5 27.1841 141.822 27.1355 142.129 26.9436C142.858 27.33 144.06 27.1595 144.264 26.2539C144.533 25.0494 143.238 24.6806 142.348 24.9917Z" fill="#17171D"/>
<path d="M140.786 28.6739C140.786 28.6739 140.45 28.0283 139.838 28.1203C139.225 28.2124 139.085 29.671 140.121 29.798C141.157 29.9244 140.786 28.6739 140.786 28.6739Z" fill="#EA3E72"/>
<path d="M143.69 29.9594C143.492 29.9062 143.243 29.8809 143.137 29.7461C142.958 29.5134 142.653 29.5503 142.651 29.807C142.422 30.1344 141.885 30.2997 141.708 30.0845C141.611 30.0112 141.523 29.9263 141.447 29.8297C141.29 29.6463 141.163 29.4181 141.061 29.199C140.865 28.7789 140.759 28.3212 140.663 27.8694C140.577 27.4616 139.952 27.6347 140.039 28.0425C140.164 28.6311 140.336 29.2586 140.642 29.796C140.633 29.8414 140.632 29.8913 140.646 29.9477C140.875 30.9156 141.296 31.5496 142.332 31.7116C142.647 31.7603 143.159 31.687 143.435 31.4796C143.749 31.2423 143.766 30.1305 143.69 29.9594Z" fill="#17171D"/>
<path d="M151.5 67.8547C151.078 67.8547 150.191 67.7931 149.714 67.3173C149.091 66.693 149.017 61.5251 149.014 61.306C149.013 61.2612 149.049 61.2243 149.093 61.2236H149.095C149.139 61.2236 149.175 61.2593 149.176 61.3034C149.195 62.7814 149.35 66.7228 149.83 67.2026C150.405 67.7782 151.707 67.6894 151.721 67.6862C151.723 67.6862 151.725 67.6862 151.725 67.6862C151.769 67.6862 151.805 67.7186 151.808 67.7607C151.812 67.8055 151.778 67.8443 151.734 67.8482C151.72 67.8482 151.633 67.8547 151.5 67.8547Z" fill="#2A2B3C"/>
<path d="M141.748 113.319C141.704 113.319 141.668 113.284 141.667 113.239C141.666 113.195 141.703 113.158 141.747 113.157C141.854 113.156 152.499 113.021 155.28 111.113C155.317 111.087 155.367 111.097 155.393 111.134C155.418 111.171 155.408 111.222 155.371 111.247C152.551 113.183 142.189 113.315 141.748 113.319Z" fill="#2A2B3C"/>
<path d="M132.271 113.448H132.269C126.31 113.32 118.66 111.277 118.583 111.257C118.54 111.245 118.514 111.201 118.525 111.158C118.538 111.115 118.583 111.089 118.625 111.1C118.702 111.121 126.333 113.159 132.273 113.286C132.317 113.288 132.352 113.325 132.352 113.369C132.35 113.413 132.315 113.448 132.271 113.448Z" fill="#2A2B3C"/>
<path d="M145.581 56.9022C145.419 57.402 142.463 58.2441 138.729 58.7115C134.632 59.2301 129.595 59.2943 126.27 57.966C125.777 57.7715 125.323 57.5446 124.916 57.2853C124.916 57.2853 130.458 36.1059 135.371 33.5783C138.126 32.1587 139.669 32.7745 139.669 32.7745C139.669 32.7745 148.272 48.6505 145.581 56.9022Z" fill="#3F4261"/>
<path d="M141.665 61.8544C141.665 61.8544 133.01 62.3147 128.362 61.3034C126.976 60.9981 126.399 59.6756 126.269 57.9648C129.595 59.2938 134.631 59.229 138.729 58.7103C140.091 60.6875 141.665 61.8544 141.665 61.8544Z" fill="#E4EAEF"/>
<path d="M144.16 52.0632C144.393 53.8977 137.86 57.4535 138.729 58.7118C134.632 59.2304 129.595 59.2945 126.269 57.9663C125.959 53.9276 128.136 47.7431 128.136 47.7431L137.349 34.5244C137.349 34.5244 140.162 37.5518 140.097 40.7348C140.032 43.9242 143.564 47.3633 144.16 52.0632Z" fill="#343751"/>
<path d="M142.615 33.2842C142.615 33.2842 148.725 41.2338 148.449 56.6845C148.43 57.7645 152.401 57.1772 152.739 56.1601C154.019 52.2945 150.319 39.0194 146.97 35.2646C145.672 33.8093 142.615 33.2842 142.615 33.2842Z" fill="#3F4261"/>
<path d="M139.668 32.7773C139.668 32.7773 138.393 33.9235 138.494 34.8738C138.595 35.8242 141.496 36.5211 141.496 36.5211C141.496 36.5211 138.717 36.4044 138.13 35.0715C137.543 33.7387 139.668 32.7773 139.668 32.7773Z" fill="#17171D"/>
<path d="M142.615 33.2842C142.615 33.2842 145.183 34.0498 145.646 35.3457C145.781 35.7236 144.377 36.2908 144.377 36.2908C144.377 36.2908 146.242 36.2065 146.213 35.3184C146.185 34.4303 142.615 33.2842 142.615 33.2842Z" fill="#17171D"/>
<path d="M137.112 34.208C137.112 34.208 140.621 35.9 140.263 39.573C139.905 43.2467 138.574 44.4622 138.358 45.6505C138.143 46.8394 140.713 47.3788 140.713 47.3788L129.061 52.2628L135.057 44.2042L137.112 34.208Z" fill="#17171D"/>
<path d="M138.028 33.5313C137.042 32.5408 132.451 33.239 133.437 34.2302C136.957 37.771 137.085 43.0835 133.922 46.2483C131.095 49.0767 127.125 50.357 123.333 51.2613C121.976 51.5855 122.551 53.6774 123.91 53.3526C129.139 52.1047 134.659 49.9467 137.562 45.11C139.959 41.1141 141.453 36.9768 138.028 33.5313Z" fill="#ABB6E7" class="fill-primary-light"/>
<path d="M153.07 36.9687L164.659 35.0693L161.402 63.4769L153.168 64.9076L153.07 36.9687Z" fill="#E4EAEF"/>
<path d="M142.503 35.1465L153.07 36.9694C153.07 36.9694 153.995 41.2479 154.04 51.602C154.071 58.5987 153.167 64.9076 153.167 64.9076L144.078 64.0013C144.078 64.0013 144.997 53.4923 144.551 50.0384C143.6 42.6605 142.503 35.1465 142.503 35.1465Z" fill="#EDF1F4"/>
<path d="M164.659 35.0693L175.549 35.6417C175.549 35.6417 172.948 42.5516 171.409 52.2185C170.472 58.1015 170.759 65.1507 170.759 65.1507L161.402 63.4769C161.402 63.4769 161.367 52.8525 161.769 49.3532C162.459 43.3729 164.659 35.0693 164.659 35.0693Z" fill="#EDF1F4"/>
<g opacity="0.3">
<path opacity="0.3" d="M151.882 37.0633L152.939 37.0594C153.018 37.0594 153.088 37.0198 153.142 36.9583L153.071 36.9699L151.589 36.7139C151.588 36.9038 151.716 37.0639 151.882 37.0633Z" fill="#BED0E2"/>
<path opacity="0.3" d="M146.072 59.9178L144.378 60.0125C144.364 60.2186 144.35 60.4202 144.337 60.6173L146.616 60.6089C146.773 60.6082 146.902 60.4604 146.908 60.2731L147.017 56.9799C147.023 56.8029 147.14 56.659 147.29 56.6454L151.345 56.2915C151.494 56.2785 151.61 56.1352 151.616 55.9582L151.821 50.3028C151.829 50.0941 151.681 49.9236 151.506 49.9385L149.446 50.1148C149.276 50.1291 149.132 49.9696 149.131 49.7673L149.122 47.0972C149.12 46.9046 148.989 46.7484 148.826 46.749L144.122 46.7652C144.157 47.0252 144.191 47.2871 144.226 47.5496H144.609C144.763 47.5503 144.893 47.6929 144.903 47.877L144.984 49.335C144.994 49.5191 144.881 49.6811 144.727 49.7038L144.513 49.7362C144.526 49.8361 144.538 49.9372 144.553 50.037C144.569 50.1718 144.584 50.3184 144.598 50.4733L145.444 50.33C145.601 50.3035 145.712 50.1336 145.695 49.9463L145.51 47.9373C145.49 47.7311 145.627 47.5496 145.801 47.5496L147.955 47.5516C148.114 47.5516 148.243 47.702 148.248 47.8906L148.315 50.5401C148.32 50.7352 148.458 50.8875 148.622 50.8791L150.83 50.7715C151.004 50.7624 151.145 50.9336 151.137 51.1391L150.951 55.2892C150.943 55.4649 150.826 55.6069 150.677 55.6192L146.597 55.9433C146.445 55.955 146.326 56.1028 146.323 56.283L146.306 57.2418C146.302 57.435 146.166 57.588 146.003 57.5828L144.525 57.5348C144.514 57.7552 144.502 57.9743 144.49 58.1915L146.066 58.2589C146.225 58.2661 146.35 58.4197 146.35 58.607L146.354 59.5652C146.353 59.7551 146.229 59.9088 146.072 59.9178Z" fill="#BED0E2"/>
<path opacity="0.3" d="M145.275 56.0347L145.328 54.7693C145.336 54.569 145.202 54.4023 145.033 54.4023L144.65 54.4036C144.635 55.026 144.611 55.6684 144.583 56.3128L144.947 56.3646C145.116 56.388 145.267 56.2369 145.275 56.0347Z" fill="#BED0E2"/>
<path opacity="0.3" d="M145.023 51.6826L144.66 51.6839C144.676 52.268 144.676 52.9175 144.666 53.606L144.938 53.6449C145.107 53.6689 145.257 53.5179 145.266 53.3149L145.318 52.0502C145.327 51.8492 145.192 51.682 145.023 51.6826Z" fill="#BED0E2"/>
<path opacity="0.3" d="M143.934 42.7157L143.592 42.8596C143.637 43.1954 143.685 43.5364 143.732 43.8839L144.87 43.7477C145.023 43.7296 145.139 43.5721 145.133 43.388L145.099 42.2412C145.093 42.0435 145.226 41.8801 145.392 41.8795L148.461 41.8684C148.599 41.8684 148.717 41.753 148.746 41.5923L149.685 36.3848L148.376 36.1592L147.687 40.5641C147.661 40.7288 147.539 40.8481 147.399 40.8487L145.186 40.8565C145.023 40.8578 144.891 40.7016 144.89 40.5084L144.883 38.5895C144.883 38.4151 144.775 38.2686 144.63 38.2446L143.533 38.0625C143.357 38.0327 143.198 38.1967 143.199 38.4093V38.5714C143.2 38.7646 143.332 38.9208 143.494 38.9201L143.821 38.9188C143.984 38.9182 144.116 39.0738 144.117 39.2676L144.128 42.3844C144.129 42.5329 144.051 42.6652 143.934 42.7157Z" fill="#BED0E2"/>
<path opacity="0.3" d="M170.993 38.1782C170.844 38.1646 170.709 38.2877 170.683 38.4628L169.619 45.3901C169.598 45.5269 169.511 45.6358 169.398 45.6676L167.789 46.1194C167.662 46.155 167.571 46.2841 167.563 46.4383L167.223 53.3164C167.214 53.4863 167.31 53.6386 167.45 53.6781L168.848 54.0639L168.578 53.9893L168.2 57.2948C168.184 57.4459 168.085 57.5671 167.958 57.5917L164.99 58.181C164.8 58.2186 164.631 58.0325 164.648 57.8056L164.778 56.0313C164.791 55.8589 164.695 55.7014 164.554 55.6612L162.171 54.9805C162.163 54.9779 162.155 54.976 162.147 54.974L160.596 54.6966C160.44 54.6687 160.33 54.5014 160.346 54.3154L160.574 51.618C160.589 51.4345 160.483 51.2679 160.33 51.2381L155.801 50.3461C155.786 50.3428 155.771 50.3383 155.756 50.3325L154.899 49.9882C154.772 49.9377 154.691 49.7918 154.7 49.6336L154.939 45.3525C154.949 45.1768 154.847 45.0206 154.702 44.9862L153.077 44.6005C152.918 44.5629 152.815 44.3808 152.845 44.1921L153.464 40.3265C153.491 40.1625 153.611 40.0432 153.751 40.0426L157.011 40.0309L159.295 40.0095C159.442 40.0082 159.566 39.8773 159.584 39.7029L159.885 36.7799C159.897 36.6612 159.959 36.5588 160.05 36.5076L161.745 35.5469L158.999 35.9968L158.804 38.3467C158.79 38.525 158.664 38.6611 158.513 38.6618L157.175 38.6663L152.663 38.6819C152.518 38.6825 152.394 38.8096 152.374 38.9814L151.614 45.2922C151.589 45.4945 151.715 45.6779 151.886 45.6902L153.579 45.8193C153.742 45.8322 153.866 46.0014 153.854 46.1959L153.565 50.5645C153.554 50.7253 153.638 50.8751 153.767 50.925L155.591 51.6309C155.612 51.6394 155.633 51.6445 155.656 51.6465L159.505 52.0653C159.673 52.0834 159.793 52.2649 159.77 52.462L159.464 55.0434C159.444 55.2197 159.538 55.387 159.684 55.4317L162.018 56.1305C162.024 56.1325 162.031 56.1338 162.037 56.1357L163.875 56.5331C164.021 56.5649 164.125 56.7217 164.116 56.8981L163.875 61.701C163.866 61.8547 163.945 61.9967 164.066 62.0505L166.07 62.9289C166.211 62.9905 166.29 63.1674 166.254 63.3405L166.054 64.3064L166.673 64.4173L166.96 62.7558C166.989 62.5846 166.908 62.4141 166.769 62.3558L164.603 61.4495C164.476 61.3964 164.396 61.2473 164.407 61.0884L164.511 59.6752C164.522 59.5235 164.615 59.3971 164.74 59.3647L168.739 58.3113C168.862 58.2789 168.953 58.1583 168.967 58.0105L169.297 54.5851C169.316 54.3776 169.484 54.2376 169.655 54.2843L171.034 54.6655C171.055 54.6713 171.072 54.6842 171.09 54.6946C171.118 54.4314 171.147 54.1689 171.177 53.907L168.071 53.1952C167.925 53.1621 167.823 53.0052 167.833 52.8296L168.146 47.1573C168.154 47.0062 168.243 46.8785 168.366 46.8416L170.134 46.31C170.248 46.2756 170.333 46.1648 170.352 46.0273L171.263 39.3314C171.287 39.1558 171.418 39.03 171.568 39.0391L174.38 39.2109C174.454 38.9626 174.527 38.7279 174.596 38.5036L170.993 38.1782Z" fill="#BED0E2"/>
<path opacity="0.3" d="M154.613 41.0827C154.471 41.0827 154.35 41.2039 154.324 41.3692L154.061 43.1169C154.034 43.2984 154.131 43.4748 154.282 43.5182L155.342 43.8229C155.504 43.8689 155.664 43.7477 155.699 43.5545L156.059 41.4988C156.097 41.2817 155.956 41.0775 155.769 41.0781L154.613 41.0827Z" fill="#BED0E2"/>
<path opacity="0.3" d="M156.489 62.6865L155.582 62.6898C155.444 62.6904 155.325 62.8045 155.296 62.964L154.995 64.5905L156.541 64.3214L156.777 63.1163C156.82 62.8959 156.678 62.6859 156.489 62.6865Z" fill="#BED0E2"/>
<path opacity="0.3" d="M159.863 63.117C159.895 62.8538 159.677 62.6477 159.469 62.7423L158.544 63.1592C158.337 63.2532 158.119 63.049 158.148 62.7871L158.396 60.5447C158.417 60.358 158.31 60.1849 158.154 60.1538L154.702 59.4621C154.692 59.4602 154.682 59.4582 154.67 59.4576L149.964 59.1179C149.811 59.1062 149.677 59.2378 149.655 59.4187L149.164 63.6778C149.146 63.8405 149.034 63.9656 148.896 63.9786L146.256 64.2184L150.007 64.5925L150.587 60.7191C150.613 60.5434 150.748 60.419 150.899 60.4332L152.008 60.5331C152.178 60.5486 152.301 60.7327 152.277 60.933L151.918 63.8489C151.898 64.0071 151.971 64.1607 152.095 64.2223L153.398 64.8667L154.048 64.7539C154.05 64.7422 154.054 64.7312 154.056 64.7189L154.074 64.5653C154.093 64.4006 154.012 64.2418 153.88 64.186L152.84 63.7523C152.709 63.6972 152.629 63.541 152.646 63.3763L152.915 60.9466C152.935 60.7625 153.073 60.6296 153.228 60.6439L154.513 60.7606C154.524 60.7619 154.532 60.7632 154.542 60.7651L157.366 61.368C157.521 61.4011 157.626 61.5716 157.606 61.757L157.376 63.8975C157.364 64 157.393 64.094 157.443 64.1646L159.788 63.7569L159.863 63.117Z" fill="#BED0E2"/>
<path opacity="0.3" d="M172.698 41.0752C172.531 41.0454 172.378 41.188 172.361 41.387L172.212 43.245C172.197 43.4362 172.314 43.6073 172.475 43.6261L173.146 43.7059C173.362 42.8353 173.577 42.0217 173.784 41.2723L172.698 41.0752Z" fill="#BED0E2"/>
<path opacity="0.3" d="M147.36 53.8007C147.36 53.9939 147.492 54.1495 147.655 54.1489L149.951 54.1411C150.114 54.1404 150.244 53.9835 150.244 53.7904L150.243 53.5602C150.242 53.3631 150.105 53.2056 149.939 53.2121L147.643 53.3035C147.484 53.31 147.359 53.4649 147.359 53.6536L147.36 53.8007Z" fill="#BED0E2"/>
<path opacity="0.3" d="M163.968 39.0558L161.517 39.9407C161.394 39.9854 161.309 40.1216 161.309 40.2765L161.322 43.7013C161.322 43.818 161.371 43.9262 161.452 43.991L162.879 45.1242C163.056 45.2649 163.296 45.143 163.332 44.8947L163.38 44.568C163.4 44.428 163.347 44.2873 163.246 44.2114L162.256 43.4718C162.17 43.4082 162.118 43.2968 162.118 43.1768L162.11 40.9954C162.11 40.8437 162.191 40.7095 162.312 40.6622L163.852 40.06C163.865 40.0554 163.876 40.0515 163.889 40.0483L166.639 39.4195C166.774 39.389 166.873 39.2509 166.877 39.0876L166.956 35.9766C166.961 35.7879 167.091 35.6375 167.251 35.6382L170.659 35.6446C170.788 35.6453 170.898 35.5429 170.937 35.3983L166.102 35.1436L165.977 38.3557C165.971 38.5191 165.87 38.6552 165.735 38.6837L164.003 39.0454C163.99 39.0487 163.979 39.0519 163.968 39.0558Z" fill="#BED0E2"/>
<path opacity="0.3" d="M157.309 45.4806C157.153 45.4605 157.011 45.5895 156.987 45.773L156.574 48.8982C156.546 49.1102 156.684 49.3027 156.865 49.3021L157.795 49.2989C157.935 49.2982 158.054 49.1815 158.082 49.0195L158.594 46.0297C158.629 45.8274 158.51 45.6342 158.337 45.6115L157.309 45.4806Z" fill="#BED0E2"/>
<path opacity="0.3" d="M155.686 37.0491C155.841 37.0484 155.969 36.9064 155.979 36.723L155.992 36.4902L154.193 36.7852C154.224 36.9375 154.339 37.0542 154.479 37.0536L155.686 37.0491Z" fill="#BED0E2"/>
<path opacity="0.3" d="M159.88 45.8636C159.742 45.8642 159.624 45.9777 159.595 46.1378L159.088 48.869C159.047 49.0874 159.187 49.2942 159.375 49.2936L160.253 49.2903C160.39 49.2903 160.508 49.1782 160.538 49.0206L161.075 46.2895C161.117 46.0698 160.977 45.8597 160.787 45.8604L159.88 45.8636Z" fill="#BED0E2"/>
<path opacity="0.3" d="M160.638 57.7775L159.534 57.6187C159.383 57.5973 159.243 57.7172 159.211 57.8948L158.979 59.2355C158.944 59.439 159.066 59.6341 159.239 59.6542L160.462 59.7936C160.623 59.8118 160.766 59.6724 160.782 59.4818L160.896 58.1613C160.913 57.9707 160.797 57.8002 160.638 57.7775Z" fill="#BED0E2"/>
<path opacity="0.3" d="M147.65 52.6127L149.947 52.6049C150.109 52.6043 150.24 52.4474 150.239 52.2542L150.238 52.0241C150.237 51.827 150.1 51.6695 149.934 51.676L147.637 51.7674C147.479 51.7739 147.354 51.9288 147.354 52.1181L147.354 52.2652C147.355 52.4578 147.487 52.6134 147.65 52.6127Z" fill="#BED0E2"/>
<path opacity="0.3" d="M157.733 56.3311C157.894 56.3492 158.037 56.2098 158.054 56.0192L158.168 54.6987C158.184 54.5088 158.07 54.3383 157.91 54.3156L156.807 54.1568C156.655 54.1354 156.515 54.2547 156.484 54.4329L156.251 55.7735C156.216 55.9771 156.338 56.1722 156.511 56.1923L157.733 56.3311Z" fill="#BED0E2"/>
</g>
<path d="M148.542 52.9708C147.573 51.8247 146.502 51.0195 145.24 50.5042C145.236 50.4692 145.224 50.4407 145.216 50.4076C146.169 50.4419 147.126 50.652 148.145 51.2646C148.66 51.5751 148.999 50.4815 148.488 50.1736C146.648 49.0663 144.87 48.8822 142.83 49.323C139.967 49.9421 136.717 49.8734 133.981 48.8317C133.907 48.8031 133.837 48.8025 133.773 48.8167C133.593 48.7986 133.398 48.8939 133.292 49.1603C132.641 50.7959 131.991 52.4321 131.34 54.0677C131.204 54.4106 131.43 54.8197 131.701 54.8398C134.263 55.0297 136.884 55.0245 139.461 54.762C140.174 54.6894 140.808 54.5325 141.506 54.2751C142.322 53.9756 143.229 53.4116 144.09 53.4959C145.125 53.5977 145.91 54.4359 146.661 55.1982C147.024 55.5665 147.444 54.9992 147.35 54.5338C147.354 54.5377 147.358 54.5416 147.363 54.5454C147.697 54.8988 148.089 54.4249 148.065 53.9763C148.467 54.3004 148.932 53.4317 148.542 52.9708Z" fill="#EA3E72"/>
<path d="M146.732 51.4369C146.699 51.4369 146.666 51.4233 146.641 51.3981C146.413 51.166 145.517 50.7589 145.191 50.6221C145.125 50.5949 145.096 50.5203 145.123 50.4548C145.151 50.39 145.225 50.3576 145.29 50.3868C145.34 50.4075 146.514 50.9034 146.824 51.2198C146.873 51.2703 146.872 51.3507 146.822 51.4C146.797 51.424 146.765 51.4369 146.732 51.4369Z" fill="#2A2B3C"/>
<path d="M148.064 54.1051C148.026 54.1051 147.99 54.0889 147.965 54.0578C147.951 54.0403 146.531 52.3016 144.672 51.5775C144.607 51.5516 144.574 51.4784 144.599 51.4122C144.625 51.3468 144.699 51.3144 144.765 51.3396C146.688 52.089 148.104 53.8238 148.164 53.897C148.208 53.9521 148.199 54.0325 148.145 54.0766C148.119 54.0954 148.092 54.1051 148.064 54.1051Z" fill="#2A2B3C"/>
<path d="M147.349 54.6614C147.314 54.6614 147.281 54.6471 147.254 54.6199C147.238 54.6031 145.686 52.9098 144.452 52.6596C144.383 52.6453 144.337 52.5779 144.352 52.5092C144.366 52.4398 144.434 52.4009 144.502 52.4093C145.819 52.6777 147.377 54.3762 147.443 54.4488C147.49 54.5013 147.486 54.5817 147.434 54.629C147.41 54.6504 147.379 54.6614 147.349 54.6614Z" fill="#2A2B3C"/>
<path d="M137.347 33.881C140.945 40.6269 134.121 49.2468 129.703 53.4352C125.285 57.6237 120.251 51.4801 120.658 49.733C121.066 47.9859 135.168 29.7924 137.347 33.881Z" fill="#3F4261"/>
<path d="M142.208 48.4646C140.103 45.666 125.933 46.2268 122.74 47.347C119.546 48.4672 120.894 55.4769 121.955 55.871C123.015 56.2658 140.864 60.2319 142.676 55.0652C142.676 55.0652 142.86 49.332 142.208 48.4646Z" fill="#3F4261"/>
<path d="M134.106 34.2305C134.106 34.2305 122.1 44.1392 120.059 50.2944C118.018 56.4503 122.543 56.4555 134.591 57.6969C134.591 57.6969 121.181 53.4618 122.585 50.3826C123.99 47.3034 134.106 34.2305 134.106 34.2305Z" fill="#343751"/>
<path d="M173.137 47.1335C173.136 47.0816 173.112 47.0343 173.097 46.9843C173.296 46.9215 173.443 46.8113 173.486 46.6362C173.552 46.3607 173.372 46.1034 173.086 45.8829C173.378 45.6619 173.423 45.3034 173.016 44.9404C173.435 44.9922 173.856 44.39 173.057 44.1488C172.708 44.0438 172.039 43.8403 170.874 43.7716C169.964 43.7184 170.124 44.7265 170.334 44.9261C170.291 45.0597 170.164 45.1887 170.121 45.3222C170.193 45.4726 170.235 45.6878 170.099 45.7902C169.761 46.0457 169.996 46.5604 170.394 46.6226C170.655 46.6635 170.891 46.9947 170.681 47.2365C170.625 47.3007 170.675 47.372 170.766 47.4414C171.001 47.5328 171.225 47.6501 171.458 47.7545C171.479 47.7648 171.492 47.7798 171.512 47.7914C171.707 47.7914 171.905 47.7934 172.107 47.8012C173.216 47.9879 173.143 47.5581 173.137 47.1335Z" fill="#EA3E72"/>
<path d="M172.486 46.0175C171.599 46.0175 170.151 45.9274 170.002 45.3524C169.966 45.2156 169.996 45.0905 170.085 44.99C170.549 44.4721 172.781 44.782 173.033 44.8189C173.1 44.8286 173.146 44.8902 173.136 44.957C173.126 45.0231 173.068 45.0737 172.998 45.0594C172.093 44.9278 170.551 44.8351 170.266 45.1528C170.231 45.1923 170.223 45.2331 170.237 45.2915C170.345 45.7051 171.96 45.8166 173.079 45.7608C173.141 45.7693 173.203 45.8094 173.206 45.8769C173.21 45.9443 173.158 46.0007 173.09 46.0039C172.978 46.0098 172.759 46.0175 172.486 46.0175Z" fill="#2A2B3C"/>
<path d="M173.098 47.105C173.095 47.105 173.091 47.105 173.088 47.105C173.072 47.1037 171.536 46.9728 170.669 46.8295C170.136 46.7413 169.703 46.3427 169.759 45.9932C169.79 45.8014 169.987 45.5057 170.933 45.6548C170.999 45.6659 171.045 45.7274 171.034 45.7942C171.023 45.861 170.963 45.9083 170.894 45.8954C170.307 45.8027 170.021 45.8966 170 46.0328C169.973 46.2013 170.264 46.5157 170.708 46.589C171.567 46.7309 173.093 46.8606 173.108 46.8619C173.176 46.8677 173.226 46.9267 173.22 46.9935C173.213 47.057 173.16 47.105 173.098 47.105Z" fill="#2A2B3C"/>
<path d="M172.809 47.9413H172.806C172.485 47.9328 170.87 47.8687 170.626 47.3967C170.524 47.1997 170.555 47.0577 170.598 46.9728C170.71 46.7549 171.002 46.707 171.035 46.7024C171.104 46.6888 171.164 46.7387 171.173 46.8049C171.183 46.871 171.137 46.9326 171.071 46.943C171.019 46.9514 170.861 46.9935 170.814 47.0843C170.789 47.1335 170.799 47.201 170.843 47.2852C170.974 47.5393 172.074 47.6794 172.813 47.6988C172.88 47.7008 172.933 47.7565 172.931 47.8233C172.93 47.8888 172.876 47.9413 172.809 47.9413Z" fill="#2A2B3C"/>
<path d="M170.333 45.0469C170.299 45.0469 170.266 45.0333 170.241 45.0054C170.092 44.8343 169.967 44.5192 170.041 44.2308C170.076 44.0907 170.175 43.9021 170.442 43.801C170.992 43.5922 172.599 43.8995 172.669 43.9131C172.735 43.9261 172.778 43.9896 172.765 44.0564C172.752 44.1219 172.688 44.1633 172.621 44.1523C172.176 44.0655 170.933 43.8736 170.528 44.0292C170.393 44.0804 170.308 44.1685 170.277 44.2911C170.227 44.4842 170.316 44.7209 170.424 44.846C170.468 44.8972 170.463 44.9737 170.412 45.0178C170.389 45.0379 170.361 45.0469 170.333 45.0469Z" fill="#2A2B3C"/>
<path d="M100.768 17.1803H100.727C98.5527 15.4248 95.8254 14.8634 93.1831 15.6789C93.4314 14.8815 93.8256 14.1347 93.4781 13.2842C93.1222 12.4149 92.155 11.908 91.3038 11.6707C89.7473 11.2351 88.0722 11.4412 86.8541 12.4013C86.4107 10.3003 84.6306 8.5156 82.3332 8.62062C79.8996 8.73083 78.2134 10.9213 78.1518 13.2064C76.8741 12.8564 75.4616 12.7164 74.2001 13.1462C73.1097 13.5183 72.816 14.6125 72.0115 14.9665C70.9218 15.4455 69.6635 14.6022 68.6995 15.6335C68.2808 16.0815 68.1725 16.602 68.3223 17.1077C68.5291 17.5057 68.8415 17.8525 69.2039 18.1352H100.416C100.632 18.2661 100.873 18.2046 101.024 18.0529C101.356 17.826 101.275 17.1803 100.768 17.1803Z" fill="#EDF1F4"/>
<path d="M191.123 20.2854C191.122 20.1863 191.104 20.0832 191.047 19.9769C190.39 18.7517 189.475 17.7793 188.092 17.3987C187.852 17.3326 186.199 17.367 186.076 17.3177C184.643 16.7446 185.63 16.7848 184.737 16.0186C182.922 14.4615 181.324 14.547 179.664 15.7923C179.433 13.5519 178.929 11.9929 175.66 12.457C172.632 12.8868 171.136 15.4014 171.216 18.1442C169.3 17.9348 167.713 18.2667 166.886 20.3088C166.75 20.642 166.912 20.8857 167.158 21.0031C167.224 21.2527 167.418 21.4627 167.753 21.4627H190.766C191.452 21.464 191.566 20.596 191.123 20.2854Z" fill="#EDF1F4"/>
</svg>
