<svg width="345" height="171" viewBox="0 0 345 171" fill="none" xmlns="http://www.w3.org/2000/svg">
<path d="M134.016 16.9081H134.095C138.388 13.4423 143.769 12.3341 148.987 13.9436C148.496 12.369 147.717 10.8961 148.405 9.21599C149.106 7.50003 151.016 6.50024 152.697 6.03002C155.77 5.17063 159.077 5.57865 161.48 7.47176C162.356 3.32558 165.869 -0.197736 170.405 0.00863082C175.209 0.227248 178.537 4.55059 178.658 9.06051C181.18 8.37167 183.971 8.09369 186.457 8.94272C188.608 9.67678 189.19 11.8366 190.779 12.5358C192.93 13.4819 195.413 11.8168 197.316 13.8531C198.143 14.737 198.357 15.7641 198.062 16.7639C197.653 17.5489 197.036 18.2339 196.32 18.7918H134.71C134.284 19.049 133.805 18.9294 133.509 18.6278C132.853 18.1812 133.012 16.9081 134.016 16.9081Z" fill="#EDF1F4"/>
<path d="M0.38332 62.4085C0.384262 62.2653 0.410651 62.1145 0.493575 61.9609C1.44908 60.1799 2.77774 58.7665 4.78958 58.2124C5.13541 58.1163 7.54115 58.1662 7.71924 58.0946C9.8027 57.2616 8.36755 57.3209 9.66418 56.2071C12.3036 53.9437 14.6264 54.0681 17.0406 55.8783C17.3751 52.6207 18.1083 50.3554 22.8604 51.0291C27.26 51.6539 29.4368 55.3091 29.319 59.296C32.1054 58.9926 34.4132 59.4751 35.6155 62.4424C35.8125 62.9268 35.5769 63.2811 35.2198 63.4526C35.1227 63.8154 34.841 64.1207 34.3538 64.1207H0.901611C-0.0953587 64.1226 -0.261223 62.8608 0.38332 62.4085Z" fill="#EDF1F4"/>
<path d="M139.013 83.9708L97.2116 78.3311L109.313 164.454L139.013 168.706V83.9708Z" fill="#E4EAEF"/>
<path d="M177.083 78.3311L139.012 83.9699C139.012 83.9699 135.734 96.954 135.701 128.36C135.679 149.58 139.012 168.704 139.012 168.704L171.77 165.858C171.77 165.858 168.326 133.995 169.888 123.516C173.226 101.131 177.083 78.3311 177.083 78.3311Z" fill="#EDF1F4"/>
<path d="M97.2118 78.3311L57.9662 80.1818C57.9662 80.1818 67.428 101.112 73.097 130.413C76.5487 148.248 75.6016 169.63 75.6016 169.63L109.313 164.454C109.313 164.454 109.304 132.231 107.807 121.622C105.252 103.493 97.2118 78.3311 97.2118 78.3311Z" fill="#EDF1F4"/>
<g opacity="0.3">
<path opacity="0.3" d="M143.301 84.2436H139.49C139.203 84.2436 138.948 84.1239 138.757 83.9373L139.012 83.9712L144.355 83.1797C144.358 83.7554 143.896 84.2436 143.301 84.2436Z" fill="#BED0E2"/>
<path opacity="0.3" d="M164.528 153.498L170.64 153.766C170.692 154.392 170.743 155.003 170.794 155.597H162.579C162.011 155.597 161.546 155.15 161.52 154.583L161.086 144.597C161.063 144.059 160.638 143.623 160.102 143.586L145.478 142.555C144.942 142.517 144.519 142.085 144.494 141.547L143.684 124.398C143.655 123.765 144.185 123.247 144.816 123.291L152.244 123.805C152.856 123.848 153.376 123.363 153.376 122.749V114.65C153.376 114.065 153.851 113.59 154.436 113.59H171.394C171.272 114.38 171.151 115.174 171.028 115.969L169.647 115.974C169.089 115.976 168.628 116.411 168.593 116.969L168.32 121.392C168.285 121.952 168.693 122.442 169.249 122.51L170.022 122.604C169.977 122.909 169.931 123.214 169.885 123.519C169.825 123.927 169.772 124.371 169.725 124.841L166.674 124.416C166.107 124.338 165.706 123.823 165.765 123.256L166.409 117.162C166.475 116.535 165.982 115.988 165.352 115.991L157.59 116.018C157.016 116.02 156.549 116.477 156.534 117.051L156.327 125.087C156.312 125.677 155.818 126.141 155.228 126.119L147.263 125.815C146.638 125.791 146.128 126.31 146.165 126.934L146.888 139.52C146.919 140.054 147.344 140.482 147.88 140.516L162.591 141.456C163.138 141.491 163.568 141.938 163.583 142.486L163.66 145.393C163.676 145.98 164.165 146.443 164.751 146.426L170.08 146.265C170.124 146.934 170.169 147.597 170.216 148.255L164.533 148.475C163.964 148.497 163.514 148.965 163.514 149.534V152.44C163.515 153.006 163.961 153.473 164.528 153.498Z" fill="#BED0E2"/>
<path opacity="0.3" d="M167.354 141.714L167.149 137.876C167.117 137.27 167.6 136.76 168.207 136.76H169.587C169.652 138.647 169.743 140.594 169.853 142.548L168.541 142.71C167.931 142.784 167.386 142.326 167.354 141.714Z" fill="#BED0E2"/>
<path opacity="0.3" d="M168.207 128.506H169.516C169.467 130.278 169.472 132.25 169.518 134.336L168.542 134.456C167.932 134.531 167.387 134.074 167.354 133.461L167.149 129.623C167.117 129.016 167.6 128.506 168.207 128.506Z" fill="#BED0E2"/>
<path opacity="0.3" d="M172.023 101.302L173.256 101.734C173.094 102.753 172.93 103.788 172.763 104.842L168.663 104.442C168.107 104.388 167.689 103.912 167.705 103.355L167.813 99.8768C167.832 99.2784 167.353 98.7847 166.754 98.7847H155.692C155.194 98.7847 154.763 98.4379 154.656 97.9507L151.206 82.166L155.924 81.4668L158.461 94.8194C158.556 95.3198 158.993 95.6816 159.501 95.6816H167.48C168.065 95.6816 168.54 95.2076 168.54 94.6225V88.8027C168.54 88.2741 168.928 87.8274 169.45 87.753L173.4 87.1876C174.039 87.0962 174.611 87.5918 174.611 88.2364V88.7283C174.611 89.3144 174.136 89.7884 173.551 89.7884H172.372C171.787 89.7884 171.313 90.2633 171.313 90.8485V100.301C171.314 100.752 171.598 101.153 172.023 101.302Z" fill="#BED0E2"/>
<path opacity="0.3" d="M74.4205 87.8275C74.9604 87.7851 75.4467 88.1573 75.5456 88.6897L79.4666 109.687C79.5439 110.1 79.8576 110.429 80.2685 110.525L86.0731 111.879C86.5292 111.985 86.8609 112.377 86.8901 112.844L88.2056 133.701C88.2376 134.218 87.8937 134.681 87.3915 134.799L82.3557 135.985L83.331 135.756L84.7313 145.775C84.7944 146.235 85.1506 146.6 85.6095 146.674L96.317 148.43C97.0021 148.542 97.6071 147.977 97.5449 147.287L97.054 141.908C97.0059 141.385 97.3489 140.906 97.8587 140.782L106.436 138.692C106.467 138.684 106.496 138.678 106.527 138.673L112.114 137.815C112.674 137.729 113.067 137.22 113.007 136.657L112.152 128.477C112.093 127.92 112.479 127.414 113.029 127.321L129.342 124.568C129.399 124.559 129.454 124.545 129.509 124.526L132.592 123.472C133.048 123.316 133.341 122.874 133.307 122.394L132.389 109.414C132.352 108.884 132.715 108.407 133.237 108.3L139.092 107.114C139.662 106.998 140.033 106.444 139.922 105.873L137.643 94.1561C137.545 93.6586 137.11 93.2986 136.603 93.2986H124.848L116.617 93.2581C116.087 93.2553 115.638 92.8585 115.571 92.3318L114.451 83.4712C114.405 83.1112 114.18 82.8003 113.853 82.6457L107.728 79.75L117.635 81.0862L118.363 88.212C118.419 88.7519 118.875 89.1637 119.418 89.1637H124.243H140.508C141.035 89.1637 141.479 89.5491 141.557 90.0693L144.374 109.202C144.465 109.813 144.014 110.372 143.397 110.414L137.297 110.824C136.707 110.863 136.263 111.379 136.313 111.969L137.408 125.216C137.448 125.705 137.148 126.156 136.682 126.31L130.119 128.471C130.043 128.495 129.965 128.512 129.887 128.52L116.015 129.829C115.413 129.887 114.98 130.437 115.067 131.036L116.2 138.862C116.278 139.399 115.938 139.906 115.413 140.041L107.01 142.186C106.986 142.192 106.962 142.197 106.94 142.201L100.322 143.428C99.7932 143.526 99.4239 144.002 99.4568 144.537L100.386 159.103C100.417 159.57 100.137 160 99.699 160.164L92.4875 162.851C91.9815 163.039 91.6978 163.578 91.8298 164.101L92.5629 167.028L90.3324 167.37L89.2751 162.334C89.1677 161.814 89.4589 161.294 89.9583 161.117L97.756 158.345C98.2111 158.183 98.4995 157.732 98.4552 157.25L98.0641 152.964C98.0226 152.504 97.6862 152.124 97.2349 152.026L82.8052 148.873C82.3642 148.776 82.0325 148.41 81.9797 147.961L80.7519 137.576C80.6765 136.948 80.0725 136.524 79.4562 136.669L74.4883 137.839C74.4139 137.856 74.3526 137.896 74.2867 137.928C74.1858 137.13 74.0784 136.334 73.9625 135.54L85.1525 133.351C85.6783 133.248 86.0439 132.77 86.0063 132.237L84.8076 115.036C84.7756 114.579 84.4524 114.193 84.0076 114.082L77.6291 112.488C77.2191 112.386 76.9101 112.05 76.8403 111.633L73.4706 91.3358C73.382 90.8034 72.9071 90.4217 72.3681 90.4519L62.2354 91.0022C61.9631 90.2502 61.7021 89.5397 61.4476 88.8594L74.4205 87.8275Z" fill="#BED0E2"/>
<path opacity="0.3" d="M133.508 96.4609C134.02 96.4609 134.458 96.8275 134.549 97.3297L135.521 102.627C135.621 103.179 135.276 103.714 134.73 103.848L130.914 104.782C130.333 104.923 129.75 104.557 129.626 103.972L128.304 97.7415C128.165 97.0829 128.667 96.4619 129.341 96.4619H133.508V96.4609Z" fill="#BED0E2"/>
<path opacity="0.3" d="M127.016 162.007H130.287C130.782 162.007 131.211 162.351 131.322 162.834L132.43 167.763L126.854 166.964L125.986 163.311C125.828 162.646 126.332 162.007 127.016 162.007Z" fill="#BED0E2"/>
<path opacity="0.3" d="M114.854 163.347C114.74 162.55 115.522 161.923 116.276 162.206L119.612 163.461C120.363 163.743 121.143 163.121 121.036 162.327L120.113 155.529C120.036 154.963 120.421 154.439 120.984 154.342L133.419 152.206C133.455 152.2 133.493 152.195 133.53 152.192L150.491 151.111C151.045 151.076 151.532 151.472 151.609 152.021L153.431 164.932C153.502 165.426 153.906 165.805 154.404 165.842L163.92 166.542L150.406 167.715L148.266 155.977C148.168 155.441 147.681 155.067 147.14 155.11L143.14 155.427C142.528 155.476 142.084 156.034 142.176 156.642L143.509 165.483C143.581 165.963 143.319 166.431 142.87 166.618L138.182 168.586L135.84 168.251C135.831 168.215 135.818 168.183 135.812 168.146L135.744 167.681C135.671 167.181 135.961 166.697 136.438 166.528L140.178 165.201C140.651 165.033 140.942 164.556 140.873 164.06L139.873 156.692C139.797 156.134 139.3 155.733 138.739 155.778L134.107 156.145C134.073 156.148 134.038 156.153 134.002 156.159L123.829 158.018C123.273 158.119 122.895 158.639 122.969 159.199L123.827 165.688C123.869 166 123.767 166.284 123.587 166.499L115.131 165.289L114.854 163.347Z" fill="#BED0E2"/>
<path opacity="0.3" d="M68.3089 96.6331C68.9101 96.5388 69.467 96.9695 69.5273 97.5754L70.0908 103.208C70.1492 103.789 69.7261 104.308 69.1447 104.367L66.7267 104.617C65.9352 101.979 65.1531 99.5147 64.3973 97.2437L68.3089 96.6331Z" fill="#BED0E2"/>
<path opacity="0.3" d="M159.811 134.96C159.811 135.545 159.336 136.02 158.751 136.02H150.473C149.888 136.02 149.414 135.545 149.414 134.96V134.262C149.414 133.663 149.907 133.184 150.505 133.202L158.784 133.455C159.356 133.473 159.811 133.942 159.811 134.514V134.96V134.96Z" fill="#BED0E2"/>
<path opacity="0.3" d="M99.7572 90.4164L108.605 93.0738C109.052 93.2085 109.359 93.6203 109.359 94.0886V104.476C109.359 104.828 109.184 105.158 108.892 105.355L103.761 108.809C103.125 109.237 102.26 108.87 102.125 108.117L101.948 107.127C101.873 106.702 102.06 106.275 102.425 106.045L105.988 103.791C106.295 103.597 106.481 103.259 106.481 102.896V96.2776C106.481 95.8187 106.185 95.4116 105.748 95.2703L100.189 93.461C100.146 93.4469 100.102 93.4366 100.058 93.4281L90.1352 91.551C89.648 91.4577 89.2909 91.0412 89.273 90.5465L88.9479 81.112C88.9281 80.54 88.457 80.0858 87.8831 80.0887L75.5962 80.1443C75.1298 80.1461 74.7312 79.838 74.5917 79.3998L92.0189 78.5781L92.5089 88.3188C92.5343 88.8136 92.899 89.2253 93.3881 89.3101L99.6347 90.3891C99.6743 90.3938 99.7167 90.4042 99.7572 90.4164Z" fill="#BED0E2"/>
<path opacity="0.3" d="M123.844 109.83C124.406 109.768 124.916 110.157 125.006 110.714L126.535 120.187C126.638 120.832 126.141 121.416 125.488 121.416H122.137C121.634 121.416 121.201 121.063 121.098 120.571L119.215 111.509C119.087 110.897 119.514 110.308 120.136 110.24L123.844 109.83Z" fill="#BED0E2"/>
<path opacity="0.3" d="M129.585 84.2431C129.027 84.2431 128.566 83.8125 128.527 83.2565L128.478 82.5498L134.967 83.4252C134.857 83.8898 134.445 84.2431 133.94 84.2431H129.585Z" fill="#BED0E2"/>
<path opacity="0.3" d="M114.578 111.018C115.072 111.018 115.502 111.362 115.612 111.845L117.474 120.123C117.624 120.786 117.12 121.415 116.441 121.415H113.274C112.783 121.415 112.357 121.079 112.243 120.601L110.277 112.323C110.119 111.657 110.623 111.018 111.308 111.018H114.578Z" fill="#BED0E2"/>
<path opacity="0.3" d="M111.998 147.159L115.976 146.667C116.522 146.6 117.03 146.962 117.143 147.501L117.998 151.564C118.129 152.182 117.694 152.775 117.065 152.838L112.66 153.273C112.081 153.33 111.564 152.91 111.502 152.33L111.075 148.326C111.013 147.749 111.424 147.232 111.998 147.159Z" fill="#BED0E2"/>
<path opacity="0.3" d="M158.751 131.358H150.473C149.888 131.358 149.414 130.884 149.414 130.298V129.6C149.414 129.001 149.907 128.522 150.505 128.541L158.784 128.793C159.356 128.811 159.811 129.28 159.811 129.852V130.299C159.811 130.884 159.336 131.358 158.751 131.358Z" fill="#BED0E2"/>
<path opacity="0.3" d="M122.451 142.745C121.873 142.802 121.356 142.381 121.293 141.802L120.866 137.796C120.806 137.222 121.216 136.704 121.79 136.633L125.767 136.141C126.314 136.074 126.822 136.436 126.935 136.975L127.79 141.038C127.921 141.655 127.485 142.249 126.857 142.312L122.451 142.745Z" fill="#BED0E2"/>
</g>
<path d="M121.784 46.3249C123.243 46.0978 125.095 45.4778 126.545 46.0149C127.831 46.4917 128.7 47.7582 129.484 48.8155C130.147 49.7116 131.416 50.9922 131.151 52.2116C130.895 53.3961 129.591 54.0943 128.522 54.361C128.393 54.393 128.286 54.3685 128.194 54.3186C127.905 54.4175 127.622 54.4826 127.357 54.4797C126.541 54.4713 126.024 53.545 125.542 53.0031C123.979 51.2448 122.283 49.6457 122.24 47.2013C122.172 47.2126 122.103 47.2239 122.033 47.2343C121.442 47.3257 121.186 46.4173 121.784 46.3249Z" fill="#3F4261"/>
<path d="M130.534 56.0486C130.604 56.0137 130.672 55.9977 130.737 55.9949C130.751 55.993 130.76 55.9845 130.774 55.9836C133.923 55.5897 134.686 58.8661 135.265 61.433C135.799 63.8095 136.462 66.8786 133.651 67.8596C130.924 68.8113 130.038 65.9165 129.355 63.6993C128.646 61.3981 127.884 57.3716 130.534 56.0486Z" fill="#3F4261"/>
<path d="M101.955 47.0105C102.206 43.3025 106.413 42.9689 109.398 42.3131C112.587 41.6129 116.465 40.7036 119.293 42.7682C119.332 42.7805 119.37 42.7861 119.41 42.8106C125.358 46.4715 129.911 51.9633 132.704 58.3466C135.154 63.9468 136.035 71.098 129.462 74.1172C126.79 75.345 123.608 75.6541 121.118 73.9098C118.106 71.7991 115.514 68.8845 113.178 66.0679C110.761 63.1524 108.573 60.055 106.449 56.9218C104.448 53.9667 101.698 50.8099 101.955 47.0105Z" fill="#565B82"/>
<path d="M98.6783 38.9805H121.118V45.4758H98.6783V38.9805Z" fill="#FFD357"/>
<path d="M59.0695 46.7106C59.0497 46.6824 59.0234 46.6598 59.0036 46.6296C58.7152 46.1933 59.5228 45.6242 59.8111 46.0623C59.8309 46.0925 59.862 46.1132 59.8837 46.1415C59.9563 45.8767 60.3228 45.6034 60.7403 45.9276C60.8618 46.0218 62.5589 47.3712 64.4285 47.5766C64.1317 47.2751 63.6275 46.7785 63.1846 46.5608C62.7153 46.33 63.0433 45.5752 63.5126 45.8136C63.5861 45.8503 64.1863 46.1735 64.256 46.2423C66.3103 47.5116 68.0272 49.5216 69.2692 51.5843C69.4972 51.9047 69.7149 52.2345 69.9099 52.585C69.9796 52.7113 69.9307 52.8847 69.8515 52.9921C69.4473 53.5368 68.2901 54.5027 67.7332 54.8899C67.6766 54.9286 67.6163 54.9474 67.556 54.9559C67.6126 55.379 66.9605 55.6089 66.7805 55.1594C66.299 53.9571 65.1013 51.9141 65.0881 51.8981C62.8925 51.1546 60.778 50.3989 58.9621 48.9524C58.5956 48.6603 58.9734 48.0176 59.3475 48.1345C59.3513 48.1326 59.3551 48.1298 59.3607 48.1279C59.3551 48.1232 59.3503 48.1175 59.3456 48.1138C59.2297 48.0374 58.767 47.5974 58.6474 47.4438C58.4174 47.1479 58.7812 46.7276 59.0695 46.7106Z" fill="#EA3E72"/>
<path d="M63.8951 48.5527C63.9488 48.5527 63.9959 48.5169 64.0091 48.4622C64.0251 48.4 63.9865 48.335 63.9224 48.3209C61.8983 47.8252 59.9826 46.0715 59.9637 46.0546C59.9166 46.0094 59.8422 46.0122 59.7969 46.0612C59.7526 46.1092 59.7555 46.1837 59.8035 46.228C59.8836 46.3015 61.7814 48.0401 63.8677 48.5498C63.8762 48.5517 63.8856 48.5527 63.8951 48.5527Z" fill="#2A2B3C"/>
<path d="M63.3898 49.5015C63.4454 49.5015 63.4944 49.4628 63.5057 49.4053C63.5179 49.3422 63.4765 49.28 63.4114 49.2678C61.7134 48.937 59.1739 46.6463 59.1484 46.6227C59.1013 46.5784 59.0259 46.5822 58.9816 46.6312C58.9383 46.6792 58.942 46.7537 58.9901 46.798C59.0956 46.8941 61.6031 49.1556 63.3681 49.4996C63.3747 49.5005 63.3822 49.5015 63.3898 49.5015Z" fill="#2A2B3C"/>
<path d="M62.8942 50.2442C62.946 50.2442 62.9931 50.2103 63.0073 50.1576C63.0252 50.0954 62.9875 50.0294 62.9253 50.0134C61.6522 49.6628 59.4387 48.0553 59.4151 48.0392C59.3652 47.9997 59.2898 48.011 59.2512 48.0647C59.2126 48.1175 59.2238 48.191 59.2766 48.2286C59.369 48.2955 61.5476 49.8786 62.8621 50.2395C62.8735 50.2433 62.8848 50.2442 62.8942 50.2442Z" fill="#2A2B3C"/>
<path d="M104.07 46.4966C101.963 43.9872 84.6522 52.2127 79.084 59.0906C73.515 65.9705 78.2793 75.5208 80.7642 74.7312C83.251 73.9415 108.402 51.6539 104.07 46.4966Z" fill="#EDF1F4"/>
<path d="M68.6878 50.9071C75.642 48.5702 82.0733 59.6273 85.2876 63.3513C88.5018 67.0744 81.7294 74.9352 80.1077 74.6657C78.486 74.3962 63.7953 62.9028 65.9004 53.1866C65.9004 53.1866 67.1914 51.4094 68.6878 50.9071Z" fill="#EDF1F4"/>
<path d="M99.2319 57.5166C99.2319 57.5166 86.6219 73.0054 80.7644 74.7308C79.1003 75.2218 71.984 69.3804 69.3153 64.5679C69.3153 64.5679 77.8056 72.3948 81.2215 70.8636C84.6374 69.3323 99.2319 57.5166 99.2319 57.5166Z" fill="#E4EAEF"/>
<path d="M142.044 158.023C141.638 156.926 141.169 156.158 139.864 155.021C139.855 155.003 139.843 154.999 139.843 154.999C138.825 154.12 137.511 153.043 135.873 151.474C133.449 152.309 130.49 152.519 129.949 154.999C131.144 156.342 133.392 159.116 133.653 160.109C133.698 160.267 133.726 160.434 133.737 160.608C133.921 162.927 131.69 165.951 131.204 167.895C131.054 168.414 131.045 168.854 131.232 169.175C132.172 170.829 143 160.664 142.044 158.023Z" fill="#E93E72"/>
<path d="M131.159 168.964C131.172 169.045 131.199 169.1 131.24 169.167C132.209 170.961 143.324 160.616 142.393 158.067V158.053C142.367 157.905 142.312 157.757 142.245 157.608C141.692 156.353 140.087 155.18 139.858 155.019C139.858 155.005 139.844 155.005 139.844 155.005C137.956 159.078 133.735 160.601 133.735 160.601C133.896 162.638 132.21 165.215 131.455 167.116C131.118 167.832 130.982 168.479 131.159 168.964Z" fill="#EDF1F4"/>
<path d="M97.8555 75.9587C97.798 75.7429 97.8592 75.5224 98.0713 75.3679C98.1372 75.1926 98.1966 75.0164 98.2644 74.8411C98.4944 74.2475 99.268 74.287 99.5271 74.6771C104.347 72.5588 109.673 71.1548 114.221 74.7629C118.818 78.4097 120.069 84.5046 119.651 90.0746C119.099 97.4567 117.317 105.242 115.422 112.39C113.742 118.722 111.047 124.714 106.297 129.333C106.087 129.538 105.735 129.596 105.48 129.438C97.8771 124.756 96.4354 114.006 95.3244 105.932C93.9317 95.8425 94.384 85.5694 97.8555 75.9587Z" fill="#3F4261"/>
<path d="M99.8757 82.3643C99.8757 82.3643 95.2687 103.004 95.4685 106.998C95.6682 110.991 97.9138 118.805 97.9138 118.805L106.31 108.557L108.505 83.8861L99.8757 82.3643Z" fill="#343751"/>
<path d="M111.582 87.4561C111.889 88.0299 112.191 88.6085 112.48 89.1918C115.767 95.7908 118.873 102.531 121.658 109.357C124.3 115.83 126.074 122.681 129.18 128.955C132.547 135.754 141.087 149.544 140.568 149.312C141.415 151.8 125.028 159.824 123.353 158.076C117.651 151.439 114.105 143.507 110.868 135.457C107.295 126.572 103.508 117.947 98.8233 109.58C98.7998 109.537 98.7734 109.495 98.7508 109.453C101.651 101.349 105.795 93.9373 111.582 87.4561Z" fill="#3F4261"/>
<path d="M131.159 168.964C131.172 169.045 131.199 169.1 131.24 169.167C132.209 170.961 143.324 160.616 142.393 158.067V158.053C142.367 157.905 142.312 157.757 142.245 157.608C141.922 158.525 141.139 160.279 139.386 162.193C137.12 164.676 134.638 167.171 131.159 168.964Z" fill="#2A2B3B"/>
<path d="M119.725 103.129C119.725 103.129 119.267 121.513 119.031 131.053C118.796 140.594 127.442 157.609 127.442 157.609C127.442 157.609 124.127 159.002 123.355 158.076C122.581 157.153 117.707 150.859 115.163 145.275C112.619 139.691 109.726 132.349 109.726 132.349L119.725 103.129Z" fill="#343751"/>
<path d="M102.674 87.4561L96.1181 111.274L97.5476 118.804L102.674 87.4561Z" fill="#2A2B3B"/>
<path d="M120.6 106.758L109.726 132.348L112.297 138.737C112.297 138.737 113.062 132.506 115.163 126.852C117.265 121.198 120.6 106.758 120.6 106.758Z" fill="#2A2B3B"/>
<path d="M85.1329 157.376C85.2997 148.629 87.9362 140.349 90.8819 132.188C94.1329 123.183 97.0522 114.225 99.1291 104.863C100.179 100.128 101.109 95.3654 102.068 90.6105C102.748 87.2493 103.121 83.4329 105.578 80.8123C110.203 75.8784 117.327 77.2532 122.067 81.1054C122.354 80.9933 122.694 81.0488 122.861 81.4116C125.442 87.0222 124.469 92.9833 122.894 98.7465C120.951 105.859 118.78 112.955 116.312 119.902C113.972 126.49 110.734 132.782 108.874 139.532C106.857 146.847 104.046 162.821 103.812 162.304C98.2103 154.957 89.051 156.46 85.1329 157.376Z" fill="#3F4261"/>
<path d="M85.1329 157.377C85.2186 159.797 102.788 164.723 103.811 162.304C104.559 160.537 101.279 157.46 95.8696 156.112C89.3827 154.495 85.0933 156.236 85.1329 157.377Z" fill="#17171D"/>
<path d="M95.4737 168.801C96.204 167.888 96.4659 166.773 96.7675 165.068C96.7778 165.052 96.775 165.039 96.775 165.039C97.004 163.714 98.2507 159.277 98.7529 157.066C95.37 155.751 93.4562 155.643 91.9447 155.492C91.4095 157.207 89.9234 161.63 89.2073 162.364C89.0951 162.484 88.966 162.594 88.8219 162.694C86.9288 164.046 83.1878 163.691 81.2711 164.276C80.7481 164.413 80.3674 164.632 80.1893 164.96C79.2555 166.616 93.7012 170.982 95.4737 168.801Z" fill="#E93E72"/>
<path d="M81.2701 164.274L86.2117 166.786C86.2117 166.786 94.3476 169.865 95.4727 168.801C96.531 167.805 96.7486 165.374 96.7665 165.067C96.7769 165.051 96.7741 165.038 96.7741 165.038C94.471 162.423 88.8209 162.693 88.8209 162.693C86.9278 164.044 83.1868 163.69 81.2701 164.274Z" fill="#EDF1F4"/>
<path d="M80.1924 164.96C79.1577 166.725 93.8267 170.942 95.4767 168.797C96.5359 167.419 81.9705 161.926 80.1924 164.96Z" fill="#2A2B3B"/>
<path d="M128.004 83.4524C128.004 83.4524 117.554 47.4155 109.051 44.6696C102.105 42.4259 96.0528 44.9061 95.4479 52.0941C94.89 58.7299 94.1164 68.6166 93.1053 71.9882C92.0932 75.3598 89.009 81.597 89.009 81.597C89.009 81.597 111.651 88.1734 128.004 83.4524Z" fill="#ABB6E7" class="fill-primary-light" id="color-primary-rgb"/>
<path d="M98.68 40.417C98.68 40.417 99.8174 43.831 99.9446 44.6744C99.9832 44.9316 103.835 45.171 104.331 44.6744C103.949 43.6209 103.105 42.2715 102.726 40.417C102.347 38.5625 98.68 40.417 98.68 40.417Z" fill="#E93E72"/>
<path d="M104.075 37.2975C104.075 37.2975 102.516 42.2287 99.3123 41.8923C96.1084 41.5559 99.0588 34.8532 99.5657 34.7269C100.072 34.6006 103.274 34.3481 104.075 37.2975Z" fill="#E93E72"/>
<path d="M98.0167 35.3327C98.0525 35.0915 98.1581 34.8512 98.306 34.643C98.2542 34.2133 98.4427 33.7732 98.8752 33.5225C99.3058 33.2728 99.8005 33.2342 100.292 33.2898C102.863 32.4144 105.758 34.7033 105.179 37.5519C104.993 38.4678 103.963 40.0622 102.879 39.134C102.34 38.6713 102.246 37.6037 102.128 36.9601C102.047 36.5134 102.006 36.0772 102.009 35.6409C101.89 35.6946 101.754 35.721 101.593 35.6823C101.191 35.5881 101.286 35.4892 101.153 35.8435C101.074 36.0555 100.96 36.1902 100.755 36.2882C100.584 36.3712 100.423 36.4023 100.236 36.3561C99.9136 36.2788 99.9947 36.2392 99.6856 36.4164C98.862 36.8875 97.8659 36.3551 98.0167 35.3327Z" fill="#2A2B3C"/>
<path d="M104.123 29.8205C106.392 28.8678 109.79 29.7781 110.926 32.051C111.82 33.8376 110.985 36.4959 108.993 37.1743C106.969 37.8641 104.771 36.232 103.484 34.6207C103.295 34.6612 103.088 34.6263 102.907 34.4482C101.337 32.8981 102.243 30.6092 104.123 29.8205Z" fill="#2A2B3C"/>
<path d="M102.349 39.9331C103.618 39.886 104.566 39.494 105.168 38.7694C106.057 37.697 105.86 36.2986 105.852 36.2393L105.619 36.2741C105.621 36.2873 105.808 37.6301 104.985 38.6195C104.428 39.2905 103.538 39.6533 102.339 39.6976L102.349 39.9331Z" fill="#2A2B3C"/>
<path d="M102.303 37.9941C102.303 37.9941 102.915 37.13 103.779 37.3835C104.643 37.637 104.558 39.7647 103.041 39.744C101.524 39.7223 102.303 37.9941 102.303 37.9941Z" fill="#E93E72"/>
<path d="M102.689 39.3343C102.853 39.1976 103.09 39.4323 102.924 39.5699C102.668 39.7847 102.302 40.4358 102.757 40.645C103.165 40.8307 103.857 40.3416 103.502 39.9044C103.367 39.7385 103.603 39.5011 103.737 39.6678C104.262 40.3143 103.564 41.1039 102.835 41.0069C101.932 40.8853 102.172 39.764 102.689 39.3343Z" fill="#FFD357"/>
<path d="M110.986 33.6092H111.221C111.221 33.5668 111.171 29.3386 106.881 28.5763C105.304 28.3012 103.843 28.8741 102.875 30.1641C102.106 31.1884 101.844 32.4643 102.24 33.2672L102.452 33.1626C102.094 32.437 102.346 31.2619 103.064 30.3055C103.496 29.7306 104.717 28.4312 106.84 28.8091C110.933 29.5356 110.986 33.4443 110.986 33.6092Z" fill="#2A2B3C"/>
<path d="M108.381 46.9746C108.381 46.9746 105.021 58.2381 104.331 68.9268C103.642 79.6145 93.8139 82.7769 93.8139 82.7769C93.8139 82.7769 111.857 87.8485 128.004 83.4526C128.004 83.4526 118.084 53.5331 108.381 46.9746Z" fill="#2D48C3" class="fill-primary"/>
<path d="M73.6434 54.0572C73.6679 54.0572 73.6933 54.0496 73.7141 54.0336C73.7659 53.994 73.7762 53.9205 73.7367 53.8687C72.4834 52.214 68.6859 51.3537 68.5247 51.3179C68.4541 51.3018 68.3975 51.3442 68.3843 51.4074C68.3702 51.4705 68.4098 51.5346 68.4738 51.5478C68.5125 51.5563 72.3486 52.4251 73.5501 54.01C73.5718 54.0411 73.6076 54.0572 73.6434 54.0572Z" fill="#D3E0EA"/>
<path d="M70.8015 54.7887C70.8185 54.7887 70.8355 54.7849 70.8515 54.7774C70.9108 54.7501 70.9363 54.6794 70.909 54.621C70.157 53.0209 67.9181 51.7422 67.8238 51.6894C67.7654 51.6546 67.6957 51.6772 67.6636 51.7337C67.6316 51.7912 67.6514 51.8628 67.7079 51.8939C67.7305 51.9071 69.9761 53.1896 70.696 54.7209C70.7149 54.7642 70.7573 54.7887 70.8015 54.7887Z" fill="#D3E0EA"/>
<path d="M68.3116 54.7326C68.3398 54.7326 68.369 54.7223 68.3917 54.7015C68.4397 54.6572 68.4426 54.5828 68.3983 54.5347C67.798 53.8864 67.3928 52.0857 67.389 52.0678C67.3749 52.0065 67.3137 51.9679 67.2486 51.9782C67.1855 51.9924 67.1459 52.0555 67.1591 52.1186C67.177 52.195 67.5841 53.9995 68.2258 54.694C68.2484 54.7204 68.2805 54.7326 68.3116 54.7326Z" fill="#D3E0EA"/>
<path d="M67.287 57.9086C67.2964 57.9086 67.3059 57.9077 67.3153 57.9048C67.3775 57.8888 67.4161 57.8257 67.401 57.7625C66.731 55.0383 66.8498 52.5072 66.8517 52.4818C66.8545 52.4168 66.8046 52.3612 66.7405 52.3574C66.7405 52.3574 66.7358 52.3574 66.7339 52.3574C66.6717 52.3574 66.6198 52.4064 66.6161 52.4686C66.6151 52.4941 66.4936 55.059 67.173 57.8191C67.1862 57.8728 67.2342 57.9086 67.287 57.9086Z" fill="#D3E0EA"/>
<path d="M106.045 152.203C106.089 152.203 106.132 152.186 106.165 152.153C106.231 152.087 106.232 151.979 106.166 151.913C98.47 144.174 86.5808 146.372 86.4602 146.397C86.3678 146.414 86.3075 146.503 86.3254 146.595C86.3433 146.688 86.4243 146.755 86.5242 146.73C86.6439 146.708 98.3578 144.545 105.925 152.153C105.959 152.185 106.002 152.203 106.045 152.203Z" fill="#2A2B3C"/>
<path d="M107.158 146.416C107.202 146.416 107.246 146.398 107.279 146.364C107.344 146.298 107.343 146.189 107.276 146.124C104.029 142.944 98.8896 141.832 95.1496 141.459C91.1127 141.055 87.7882 141.403 87.7534 141.407C87.6601 141.417 87.5932 141.501 87.6026 141.594C87.6139 141.687 87.6883 141.744 87.7901 141.745C87.8212 141.741 91.1155 141.395 95.1223 141.797C98.8058 142.166 103.862 143.258 107.039 146.367C107.072 146.4 107.114 146.416 107.158 146.416Z" fill="#2A2B3C"/>
<path d="M117.752 150.241C117.763 150.241 117.775 150.239 117.787 150.237C117.902 150.214 129.369 147.782 136.859 142.649C136.937 142.596 136.957 142.491 136.904 142.413C136.852 142.335 136.745 142.315 136.668 142.369C129.232 147.462 117.832 149.88 117.717 149.904C117.626 149.924 117.566 150.013 117.585 150.105C117.602 150.186 117.673 150.241 117.752 150.241Z" fill="#2A2B3C"/>
<path d="M115.163 145.445C115.178 145.445 115.192 145.443 115.208 145.438C115.34 145.402 128.425 141.765 133.205 136.242C133.265 136.171 133.258 136.064 133.187 136.002C133.115 135.939 133.009 135.948 132.946 136.02C128.235 141.464 115.249 145.074 115.118 145.11C115.027 145.135 114.975 145.229 114.999 145.319C115.02 145.395 115.089 145.445 115.163 145.445Z" fill="#2A2B3C"/>
<path d="M107.767 43.4862C109.051 42.1943 111.05 44.193 109.766 45.4858C105.178 50.1003 107.318 57.3505 111.44 61.476C115.125 65.1623 120.299 66.8311 125.241 68.0109C127.01 68.4331 126.261 71.1601 124.489 70.737C117.674 69.1097 110.479 66.2968 106.695 59.9937C103.571 54.7836 103.302 47.9773 107.767 43.4862Z" fill="#3F4261"/>
<path d="M93.9823 88.7335C94.4563 87.4039 95.1498 86.2712 96.1195 85.2535C96.111 85.2262 96.1119 85.1979 96.1063 85.1706C95.2459 85.6804 94.445 86.3193 93.7326 87.2842C93.3717 87.7733 92.6668 87.1466 93.0258 86.6623C94.3121 84.9181 95.8745 83.8806 97.9014 83.1663C100.747 82.1646 103.699 80.4637 105.83 78.3124C105.889 78.2531 105.952 78.2173 106.016 78.1956C106.174 78.091 106.388 78.0608 106.58 78.2022C107.765 79.0682 108.948 79.9332 110.134 80.7983C110.382 80.9801 110.321 81.3947 110.08 81.5465C107.801 82.9863 105.399 84.314 102.945 85.4307C102.265 85.7398 101.629 85.9471 100.896 86.1148C100.041 86.3108 99.0067 86.3589 98.2491 86.8583C97.3379 87.4585 96.9204 88.4697 96.5058 89.4073C96.3061 89.8615 95.7171 89.6607 95.637 89.2716C95.6342 89.2763 95.6313 89.281 95.6294 89.2866C95.4495 89.7144 94.9189 89.5684 94.7814 89.2273C94.5279 89.6683 93.791 89.2687 93.9823 88.7335Z" fill="#EA3E72"/>
<path d="M95.0412 86.7176C95.0864 86.7176 95.1298 86.6912 95.1486 86.6469C95.2758 86.3576 95.9533 85.6019 96.204 85.3343C96.2492 85.2862 96.2464 85.2118 96.1993 85.1675C96.1512 85.1204 96.0768 85.126 96.0325 85.1722C95.9939 85.2127 95.1024 86.1673 94.9328 86.5527C94.9064 86.6121 94.9338 86.6818 94.9931 86.7072C95.0073 86.7148 95.0252 86.7176 95.0412 86.7176Z" fill="#2A2B3C"/>
<path d="M94.7812 89.3438C94.8311 89.3438 94.8773 89.3127 94.8924 89.2627C94.8999 89.2429 95.5765 87.2462 97.023 85.7686C97.0691 85.7215 97.0682 85.6471 97.022 85.6018C96.974 85.5556 96.8995 85.5585 96.8552 85.6028C95.3692 87.1208 94.6757 89.1675 94.67 89.1892C94.6493 89.2505 94.6823 89.3174 94.7445 89.3372C94.7567 89.3419 94.7699 89.3438 94.7812 89.3438Z" fill="#2A2B3C"/>
<path d="M95.6349 89.3879C95.683 89.3879 95.7273 89.3596 95.7452 89.3135C95.7527 89.2937 96.5687 87.2611 97.6194 86.4422C97.6703 86.4026 97.6788 86.3282 97.6392 86.2764C97.5977 86.2246 97.5261 86.217 97.4734 86.2566C96.3727 87.115 95.5595 89.142 95.5256 89.2268C95.5021 89.2861 95.5313 89.3559 95.5916 89.3794C95.6067 89.3851 95.6217 89.3879 95.6349 89.3879Z" fill="#2A2B3C"/>
<path d="M108.381 46.9747C105.342 48.2025 107.8 67.209 112.613 74.6354C117.426 82.0618 127.984 80.4919 128.004 77.8835C128.024 75.2752 114.628 44.453 108.381 46.9747Z" fill="#EDF1F4"/>
<path d="M101.609 81.9837C101.542 74.6469 114.048 71.9584 118.585 70.0569C123.121 68.1553 128.497 77.029 127.737 78.4877C126.978 79.9465 111.498 90.3524 102.912 85.3393C102.912 85.3403 101.624 83.5612 101.609 81.9837Z" fill="#EDF1F4"/>
<path d="M118.349 56.6123C118.349 56.6123 123.546 71.728 123.075 75.9684C122.604 80.2088 111.531 86.4149 111.531 86.4149C111.531 86.4149 114.559 86.3423 121.467 82.804C128.375 79.2665 128.188 78.817 128.004 77.8841C127.819 76.9512 125.638 68.5486 118.349 56.6123Z" fill="#E4EAEF"/>
<path d="M102.092 83.0446C102.142 83.0446 102.188 83.0135 102.204 82.9635C102.216 82.9258 103.448 79.1915 105.143 78.1493C105.199 78.1153 105.216 78.0428 105.182 77.9872C105.149 77.9316 105.075 77.9137 105.02 77.9485C103.252 79.036 102.031 82.7336 101.979 82.89C101.959 82.9522 101.993 83.0191 102.054 83.0389C102.068 83.0427 102.08 83.0446 102.092 83.0446Z" fill="#D3E0EA"/>
<path d="M102.38 83.8096C102.417 83.8096 102.454 83.7917 102.477 83.7587C102.492 83.738 103.984 81.6253 105.577 81.0571C105.639 81.0354 105.671 80.9676 105.648 80.9063C105.627 80.847 105.559 80.813 105.498 80.8347C103.832 81.4302 102.346 83.5354 102.284 83.6249C102.247 83.6786 102.26 83.7512 102.313 83.7889C102.333 83.803 102.356 83.8096 102.38 83.8096Z" fill="#D3E0EA"/>
<path d="M102.632 84.3278L102.648 84.3269C102.725 84.3174 104.56 84.0856 105.313 83.5136C105.366 83.4741 105.376 83.4006 105.336 83.3487C105.296 83.296 105.222 83.2865 105.171 83.3261C104.468 83.8595 102.636 84.0913 102.617 84.0932C102.553 84.1017 102.507 84.1591 102.516 84.2251C102.523 84.2845 102.574 84.3278 102.632 84.3278Z" fill="#D3E0EA"/>
<path d="M105.51 85.0541C106.344 85.0541 107.316 85.007 108.321 84.8609C108.385 84.8505 108.431 84.7912 108.421 84.7271C108.412 84.663 108.352 84.6178 108.287 84.6272C105.509 85.0324 103.003 84.6715 102.978 84.6668C102.912 84.6498 102.854 84.7026 102.844 84.7657C102.834 84.8298 102.878 84.8901 102.943 84.9005C102.961 84.9024 104.015 85.0541 105.51 85.0541Z" fill="#D3E0EA"/>
<path d="M119.482 39.6352C120.68 38.3904 122.338 39.1065 123.414 40.0903C123.585 40.2458 123.701 40.4135 123.771 40.5841C123.917 40.7405 124.027 40.9261 124.065 41.1457C124.305 42.5083 123.989 43.9189 122.944 44.8876C121.525 46.2022 120.012 45.0921 119.272 43.6749C118.632 42.4508 118.442 40.7169 119.482 39.6352Z" fill="#EDF1F4"/>
<path d="M121.404 44.729C121.551 44.729 121.716 44.7046 121.9 44.6452C122.889 44.3276 123.394 43.3203 123.186 42.0764C122.998 40.9522 122.226 39.8262 121.112 39.8262C121.1 39.8262 121.089 39.8262 121.077 39.8262C120.509 39.8384 120.068 40.0307 119.764 40.3953C119.174 41.1077 119.35 42.2149 119.357 42.2611C119.376 42.3883 119.477 42.4863 119.628 42.4543C119.756 42.4336 119.843 42.313 119.822 42.1839C119.82 42.1744 119.674 41.2397 120.127 40.695C120.339 40.4396 120.662 40.3058 121.086 40.2964C121.094 40.2964 121.103 40.2964 121.11 40.2964C121.954 40.2964 122.569 41.2481 122.721 42.1537C122.854 42.9481 122.67 43.9007 121.756 44.1947C121.236 44.3597 120.891 44.1816 120.694 43.6482C120.351 42.7181 120.668 41.3678 120.895 41.2726C121.141 41.3301 121.397 41.8041 121.458 42.3544C121.504 42.7728 121.407 42.9989 121.346 43.0272C121.227 43.0809 121.174 43.2204 121.229 43.3391C121.284 43.4579 121.427 43.5106 121.541 43.456C121.846 43.3175 121.99 42.8868 121.926 42.3026C121.854 41.6448 121.53 40.9296 120.974 40.8118C120.849 40.7892 120.616 40.7921 120.413 41.1172C120.006 41.7683 119.882 43.4795 120.505 44.2786C120.679 44.5029 120.963 44.729 121.404 44.729Z" fill="#ABC3D6"/>
<path d="M58.5799 37.4966C58.5658 37.2563 58.6628 37.1169 58.7863 37.0679C58.8532 36.918 58.9738 36.8285 59.1312 36.9124C61.1336 37.9857 63.1737 37.9555 65.1431 36.739C65.3834 36.5911 65.7368 36.8417 65.6341 37.2714C63.5233 46.0123 63.0719 55.2602 64.3299 64.3177C64.377 64.3912 64.4119 64.4855 64.4138 64.6127C64.4175 64.7729 64.4195 64.934 64.4213 65.0951C64.426 65.3335 64.2649 65.5889 64.0878 65.5663C62.1805 65.3222 60.3147 65.1583 58.4574 65.9602C58.2068 66.0676 57.9881 65.719 58.0466 65.3807C59.656 56.2138 59.1425 46.8029 58.5799 37.4966Z" fill="#EDF1F4"/>
<path d="M58.627 36.8157C58.8239 35.4013 61.1392 35.3579 61.8959 35.2797C62.8749 35.1779 64.9028 34.9386 65.6463 36.1513C65.7518 36.3257 65.7641 36.5189 65.6981 36.7224C65.6896 36.7469 65.6764 36.7629 65.667 36.7855C65.7443 37.0249 65.7047 37.3547 65.4757 37.4612C64.6088 37.8635 58.2274 39.6841 58.627 36.8157Z" fill="#E4EAEF"/>
<path d="M60.8873 38.0356C61.7618 38.0356 63.0056 37.8528 63.7623 37.6671C64.8243 37.408 65.3765 37.0914 65.4509 36.7003C65.4961 36.4638 65.3717 36.2405 65.0806 36.0332C63.2987 34.7686 59.2194 36.6523 59.0479 36.7333C58.949 36.7795 58.9056 36.8982 58.9518 36.9962C58.9998 37.0961 59.1205 37.1366 59.2147 37.0923C59.2552 37.0725 63.2553 35.2199 64.8497 36.3573C65.1211 36.5495 65.0627 36.6409 65.0363 36.6805C64.6028 37.343 61.1238 37.784 60.336 37.6144C60.6687 37.4268 61.7278 37.1649 62.6598 37.0113C62.7681 36.9924 62.8407 36.8907 62.8237 36.7832C62.8049 36.6749 62.7173 36.5957 62.5957 36.6193C61.6524 36.7757 60.0458 37.1017 59.8771 37.5352C59.8376 37.6379 59.8555 37.7491 59.9261 37.8377C60.0383 37.979 60.4077 38.0356 60.8873 38.0356Z" fill="#ABC3D6"/>
<path d="M63.0053 45.432C63.8675 45.8777 64.6336 46.461 65.2565 47.2092C65.9877 48.0884 66.9583 48.6444 67.7734 49.4444C68.2069 49.8694 67.5397 50.5356 67.1072 50.1106C66.3712 49.3888 65.4365 48.9139 64.7825 48.1176C64.138 47.3317 63.4387 46.7154 62.5294 46.2462C61.9895 45.9682 62.4663 45.154 63.0053 45.432Z" fill="#EA3E72"/>
<path d="M276.532 141.557C276.705 139.396 276.731 137.192 277.014 135.042C277.151 134.014 277.441 132.959 278.286 132.284C279.416 131.381 281.09 131.583 282.429 131.601L289.265 131.691C289.359 131.657 289.462 131.659 289.552 131.695C289.616 131.696 289.68 131.697 289.743 131.698C290.195 131.705 290.199 132.401 289.753 132.407C289.55 145.396 290.85 157.305 293.308 170.063C293.348 170.278 293.21 170.496 292.965 170.513C286.025 170.992 280.018 170.992 273.392 170.252C273.146 170.225 273.01 170.045 273.05 169.802C274.605 160.44 275.776 151.017 276.532 141.557Z" fill="#881A0B"/>
<path d="M221.581 143.069C229.183 131.967 239.919 118.91 245.217 106.323C245.378 105.944 245.675 105.618 246.127 105.632C270.575 106.399 294.889 112.034 319.22 114.556C320.242 114.662 320.391 116.049 319.66 116.372C326.603 127.453 334.874 137.525 344.413 146.484C344.93 146.97 344.668 147.881 343.997 148.058C338.467 149.517 332.994 149.005 328.016 146.58C329.224 148.973 330.336 151.407 331.353 153.897C331.65 154.622 330.816 155.177 330.195 155.056C324.162 153.872 319.004 150.967 314.921 146.594C315.231 148.967 315.542 151.337 315.853 153.71C315.953 154.478 314.996 154.804 314.435 154.523C310.667 152.637 307.389 150.29 304.439 147.366C304.049 149.498 303.66 151.629 303.271 153.761C303.163 154.35 302.366 154.633 301.886 154.325C298.187 151.947 295.552 148.779 293.993 144.858C292.743 148.465 290.945 151.732 288.531 154.82C287.982 155.522 286.97 154.877 286.922 154.154C286.691 150.696 286.462 147.237 286.232 143.779C283.788 147.236 281.007 150.362 277.806 153.205C277.283 153.67 276.432 153.501 276.232 152.79C275.819 151.319 275.482 149.583 274.477 148.411C273.093 146.796 273.228 147.042 271.617 148.364C269.484 150.115 267.763 152.869 265.967 154.967C265.436 155.588 264.329 155.087 264.359 154.301C264.461 151.508 264.374 148.794 264.083 146.049C261.314 149.513 258.055 152.349 254.165 154.635C253.527 155.008 252.776 154.524 252.746 153.82C252.622 150.888 252.157 148.107 251.376 145.33C248.487 148.912 245.124 151.862 241.135 154.279C240.516 154.654 239.726 154.169 239.717 153.466C239.68 150.267 239.151 147.275 238.121 144.297C234.961 146.148 231.705 147.684 228.249 148.933C227.401 149.239 226.87 148.221 227.183 147.548C228.249 145.269 228.718 143.107 228.726 140.764C226.915 142.176 225.016 143.355 222.873 144.36C222.1 144.72 220.999 143.919 221.581 143.069Z" fill="#ABB6E7" class="fill-primary-light" id="color-primary-rgb"/>
<path d="M229.969 114.981C236.722 109.212 240.307 101.255 243.905 93.3342C245.416 90.0107 246.804 85.7806 249.3 83.0441C251.74 80.367 255.756 79.664 259.106 78.8093C268.693 76.365 278.668 75.1061 288.566 75.2493C295.751 75.352 303.468 76.6505 307.162 83.4568C317.893 92.8847 324.438 106.285 336.222 114.6C336.959 115.121 336.734 116.345 335.746 116.356C330.958 116.415 326.481 115.598 322.092 113.908C322.674 115.43 323.391 116.862 324.286 118.274C324.683 118.9 324.159 119.669 323.472 119.693C318.236 119.869 314.027 117.442 310.027 114.452C310.583 116.593 311.259 118.687 312.08 120.77C312.333 121.415 311.558 122.173 310.921 121.929C306.452 120.225 302.621 117.798 299.248 114.496C298.427 116.589 297.813 118.674 297.35 120.905C297.194 121.655 296.275 121.743 295.775 121.321C293.126 119.09 291.08 116.561 289.493 113.557C287.259 116.178 285.027 118.799 282.794 121.42C282.491 121.776 281.759 121.798 281.461 121.42C279.506 118.941 278.104 116.36 277.169 113.439C274.44 116.868 271.259 119.709 267.49 122.06C266.728 122.536 265.633 121.549 266.202 120.771C267.843 118.52 268.833 116.163 269.214 113.534C265.02 116.947 260.241 119.133 254.796 120.073C254.014 120.209 253.293 119.451 253.731 118.689C254.778 116.87 255.431 115.137 255.768 113.215C252.102 115.997 248.117 118.098 243.685 119.561C243.002 119.786 242.328 119.069 242.526 118.402C243.055 116.624 243.584 114.845 244.113 113.067C239.77 114.829 235.334 115.987 230.635 116.587C229.833 116.693 229.381 115.484 229.969 114.981Z" fill="#2D48C3" class="fill-primary"/>
<path d="M238.663 86.2327C245.814 77.6915 254.476 69.254 259.778 59.3616C259.719 59.1439 259.736 58.9112 259.893 58.7039C262.377 55.3822 265.285 52.92 269.035 51.1069C269.068 51.0909 269.098 51.0938 269.132 51.0824C271.559 49.9347 274.321 49.2996 276.873 48.8388C279.866 48.297 282.904 48.0567 285.939 47.9068C288.042 47.8041 291.317 47.0531 293.229 48.1735C295.52 49.5154 296.429 53.5815 297.496 55.795C299.234 59.3984 300.962 63.0065 302.708 66.6061C306.339 74.0853 310.498 80.2311 317.886 84.431C318.753 84.9229 318.295 86.1111 317.411 86.1865C313.899 86.4899 310.659 86.0923 307.474 84.9982C308.123 85.8181 308.838 86.5832 309.646 87.3182C310.422 88.0259 309.565 89.0059 308.728 88.8938C304.887 88.3746 301.523 86.9875 298.549 84.7523C298.918 85.8265 299.349 86.881 299.892 88.0165C300.218 88.6968 299.669 89.6872 298.828 89.4007C295.615 88.3058 292.641 86.8763 289.82 85.0586C290.044 86.6332 290.332 88.1559 290.705 89.7447C290.883 90.4995 290.041 91.2825 289.321 90.8086C286.773 89.1312 284.714 87.1373 283.019 84.708C282.154 86.8678 281.118 88.8994 279.832 90.9C279.296 91.7349 278.178 91.3306 278.076 90.4241C277.969 88.8665 277.641 87.3663 277.096 85.9255C275.112 88.4085 272.711 90.1725 269.651 91.4286C268.798 91.7791 268.296 90.6936 268.586 90.0443C269.22 88.6328 269.689 87.2542 270.06 85.8322C266.929 88.0721 263.471 89.3527 259.47 89.7588C258.771 89.8286 258.277 88.9004 258.657 88.3406C259.115 87.6622 259.542 86.9781 259.955 86.2855C257.426 87.7225 254.805 88.71 251.69 88.5753C251.027 88.5461 250.45 87.7781 250.876 87.1571C251.551 86.1771 252.249 85.2197 252.962 84.2746C248.486 85.395 244.023 86.5625 239.578 87.8064C238.615 88.0777 238.087 86.9196 238.663 86.2327Z" fill="#ABB6E7" class="fill-primary-light" id="color-primary-rgb"/>
<path d="M251.28 59.9768C258.594 55.0645 263.272 47.6023 266.387 39.4947C268.377 34.3185 269.587 28.5506 275.083 25.9479C279.676 23.7731 284.676 25.212 287.643 29.2131C289.499 31.7149 290.654 34.7435 292.301 37.3923C294.728 41.2964 306.739 55.5526 308.898 59.3747C309.315 60.1125 308.63 60.9361 307.834 60.7589C304.819 60.0852 302.178 58.9327 299.755 57.2545C300.193 58.3966 300.688 59.516 301.257 60.6251C301.61 61.314 301.018 62.2779 300.192 62.0103C296.867 60.9314 294.451 58.8715 292.163 56.4158C291.967 58.6736 292.077 60.8126 292.513 63.1515C292.67 63.992 291.609 64.8439 290.938 64.0683C289.779 62.7312 288.862 61.378 288.119 59.8948C287.776 61.2744 287.392 62.6398 286.944 64.0061C286.717 64.7035 285.581 65.0201 285.221 64.2314C284.491 62.6228 283.918 61.0218 283.471 59.3605C282.285 61.624 280.928 63.747 279.347 65.8116C278.861 66.4467 277.466 66.3874 277.592 65.3367L278.326 59.1485C276.914 60.4433 275.407 61.5769 273.712 62.5917C272.955 63.0441 272.186 62.2996 272.328 61.5269C272.514 60.5017 272.631 59.5678 272.693 58.6368C270.946 60.9446 268.954 62.8471 266.011 63.8827C265.472 64.0721 264.758 63.5623 264.818 62.9734C264.878 62.3939 264.938 61.8143 264.998 61.2339C263.781 62.4947 262.324 63.4492 260.542 64.2012C259.837 64.498 259.233 63.6622 259.383 63.0422C259.847 61.1114 260.31 59.1806 260.776 57.2507C258.172 59.5094 255.405 61.264 251.757 61.7333C250.748 61.8624 250.591 60.4395 251.28 59.9768Z" fill="#2D48C3" class="fill-primary"/>
<path d="M261.317 37.4112C268.779 27.5405 274.376 16.6068 277.984 4.76568C278.201 4.0514 279.345 3.76682 279.705 4.54046C284.954 15.787 297.823 37.7071 297.821 37.9926C298.382 39.0056 296.076 38.7324 296.027 38.6513C294.258 37.6779 292.491 36.7026 290.722 35.7283C290.893 36.7592 291.152 37.7674 291.524 38.7512C291.767 39.5164 290.823 40.2646 290.14 39.8151C289.012 39.0725 287.985 38.2753 287.005 37.4037C287.065 38.7352 287.123 40.0676 287.183 41.3991C287.221 42.2482 286.144 42.5977 285.574 42.0653C284.304 40.8771 283.255 39.6417 282.332 38.2518C281.818 39.4683 281.275 40.6698 280.659 41.8524C280.261 42.6147 279.181 42.3509 278.936 41.6272C278.431 40.1317 278.172 38.7974 278.104 37.3528C275.539 38.886 272.874 39.865 269.834 40.3805C269.138 40.4973 268.48 39.9677 268.675 39.2214L269.33 36.696C267.095 37.8852 264.793 38.5477 262.133 38.8285C261.458 38.9001 260.902 37.9597 261.317 37.4112Z" fill="#ABB6E7" class="fill-primary-light" id="color-primary-rgb"/>
<path d="M202.191 149.009C202.314 147.469 202.332 145.898 202.535 144.366C202.632 143.634 202.838 142.881 203.44 142.4C204.246 141.756 205.439 141.901 206.392 141.913L211.266 141.977C211.332 141.953 211.407 141.954 211.471 141.98C211.517 141.98 211.562 141.981 211.607 141.982C211.931 141.986 211.933 142.482 211.615 142.487C211.47 151.744 212.397 160.233 214.148 169.325C214.177 169.479 214.079 169.633 213.904 169.645C208.957 169.986 204.676 169.986 199.953 169.46C199.777 169.44 199.68 169.313 199.71 169.139C200.818 162.468 201.652 155.753 202.191 149.009Z" fill="#881A0B"/>
<path d="M163.025 150.088C168.443 142.175 176.095 132.87 179.871 123.897C179.984 123.628 180.197 123.395 180.52 123.405C197.945 123.952 215.275 127.969 232.616 129.765C233.344 129.841 233.451 130.829 232.929 131.059C237.879 138.957 243.773 146.136 250.572 152.52C250.942 152.867 250.754 153.517 250.275 153.643C246.335 154.683 242.433 154.318 238.885 152.589C239.746 154.295 240.538 156.029 241.264 157.804C241.476 158.321 240.881 158.717 240.438 158.63C236.138 157.786 232.461 155.716 229.551 152.598C229.773 154.29 229.995 155.98 230.215 157.671C230.287 158.218 229.605 158.45 229.205 158.25C226.519 156.906 224.184 155.233 222.079 153.15C221.802 154.668 221.524 156.189 221.246 157.708C221.17 158.127 220.602 158.329 220.26 158.109C217.623 156.415 215.745 154.157 214.634 151.362C213.743 153.934 212.46 156.261 210.741 158.463C210.35 158.963 209.629 158.503 209.594 157.988C209.43 155.523 209.266 153.058 209.103 150.593C207.361 153.057 205.378 155.285 203.097 157.311C202.724 157.644 202.117 157.523 201.975 157.016C201.68 155.968 201.441 154.729 200.724 153.894C199.737 152.744 199.834 152.92 198.687 153.861C197.167 155.11 195.939 157.073 194.66 158.567C194.281 159.011 193.492 158.653 193.512 158.092C193.587 156.103 193.524 154.168 193.316 152.212C191.343 154.68 189.02 156.702 186.247 158.331C185.793 158.597 185.257 158.252 185.235 157.751C185.147 155.66 184.816 153.678 184.26 151.699C182.2 154.252 179.803 156.354 176.96 158.078C176.519 158.346 175.956 157.999 175.95 157.498C175.925 155.219 175.546 153.086 174.812 150.963C172.56 152.282 170.239 153.377 167.776 154.266C167.171 154.485 166.793 153.76 167.016 153.28C167.777 151.656 168.11 150.115 168.115 148.444C166.825 149.45 165.472 150.292 163.944 151.008C163.394 151.265 162.61 150.695 163.025 150.088Z" fill="#ABB6E7" class="fill-primary-light" id="color-primary-rgb"/>
<path d="M169.004 130.068C173.816 125.956 176.371 120.284 178.937 114.64C180.014 112.271 181.001 109.256 182.78 107.306C184.521 105.398 187.383 104.896 189.77 104.288C196.603 102.545 203.713 101.648 210.767 101.75C215.889 101.823 221.388 102.75 224.022 107.6C231.668 114.32 236.334 123.871 244.733 129.797C245.259 130.168 245.098 131.04 244.393 131.048C240.981 131.091 237.79 130.509 234.661 129.303C235.077 130.388 235.588 131.408 236.225 132.416C236.509 132.862 236.135 133.411 235.646 133.426C231.913 133.551 228.913 131.823 226.063 129.692C226.459 131.218 226.941 132.71 227.526 134.194C227.706 134.654 227.155 135.195 226.7 135.02C223.514 133.807 220.785 132.077 218.381 129.723C217.796 131.215 217.358 132.7 217.028 134.291C216.917 134.826 216.262 134.888 215.905 134.588C214.017 132.997 212.557 131.195 211.428 129.054C209.836 130.922 208.244 132.79 206.654 134.658C206.437 134.912 205.916 134.927 205.703 134.658C204.309 132.89 203.311 131.051 202.644 128.97C200.7 131.413 198.432 133.438 195.747 135.115C195.204 135.454 194.423 134.751 194.828 134.195C195.997 132.592 196.703 130.912 196.974 129.038C193.985 131.471 190.579 133.028 186.698 133.699C186.141 133.795 185.628 133.254 185.94 132.712C186.686 131.415 187.151 130.18 187.391 128.81C184.78 130.793 181.939 132.289 178.779 133.334C178.292 133.495 177.811 132.983 177.953 132.507C178.329 131.24 178.707 129.972 179.083 128.705C175.987 129.961 172.825 130.786 169.478 131.214C168.906 131.288 168.584 130.427 169.004 130.068Z" fill="#2D48C3" class="fill-primary"/>
<path d="M175.2 109.577C180.296 103.49 186.47 97.4762 190.25 90.4258C190.207 90.2712 190.221 90.1054 190.331 89.9574C192.103 87.5894 194.175 85.8348 196.848 84.5429C196.871 84.5316 196.893 84.5335 196.916 84.525C198.647 83.7071 200.615 83.2548 202.433 82.9259C204.566 82.5405 206.733 82.368 208.894 82.2625C210.395 82.1881 212.727 81.6538 214.09 82.4519C215.722 83.4084 216.372 86.3069 217.133 87.8844C218.371 90.4531 219.603 93.0237 220.849 95.5897C223.435 100.919 226.399 105.301 231.666 108.294C232.283 108.644 231.958 109.492 231.327 109.545C228.824 109.761 226.516 109.478 224.244 108.699C224.706 109.283 225.217 109.828 225.792 110.352C226.346 110.856 225.734 111.555 225.139 111.474C222.402 111.105 220.004 110.116 217.884 108.524C218.147 109.289 218.454 110.04 218.841 110.85C219.073 111.336 218.682 112.042 218.083 111.837C215.792 111.056 213.673 110.037 211.663 108.742C211.821 109.864 212.028 110.949 212.294 112.081C212.421 112.619 211.819 113.177 211.308 112.84C209.491 111.644 208.024 110.224 206.815 108.492C206.199 110.033 205.461 111.48 204.544 112.906C204.161 113.501 203.366 113.213 203.292 112.567C203.216 111.456 202.983 110.388 202.595 109.362C201.18 111.13 199.468 112.387 197.287 113.284C196.679 113.533 196.322 112.759 196.528 112.296C196.98 111.291 197.314 110.309 197.579 109.294C195.347 110.89 192.883 111.803 190.03 112.092C189.533 112.143 189.181 111.482 189.451 111.082C189.778 110.599 190.082 110.112 190.375 109.618C188.573 110.642 186.705 111.346 184.484 111.249C184.013 111.228 183.6 110.681 183.905 110.239C184.386 109.541 184.883 108.858 185.391 108.185C182.201 108.984 179.019 109.815 175.852 110.702C175.165 110.892 174.789 110.067 175.2 109.577Z" fill="#ABB6E7" class="fill-primary-light" id="color-primary-rgb"/>
<path d="M184.193 90.8638C189.405 87.3631 192.74 82.0447 194.961 76.2654C196.379 72.5753 197.24 68.465 201.158 66.6105C204.431 65.0604 207.996 66.0847 210.11 68.938C211.432 70.7218 212.256 72.8797 213.43 74.7681C215.16 77.5498 223.721 87.7108 225.26 90.435C225.557 90.9618 225.068 91.5489 224.501 91.4216C222.353 90.942 220.471 90.1203 218.744 88.9245C219.055 89.7387 219.407 90.5368 219.813 91.3274C220.066 91.8184 219.644 92.5053 219.055 92.314C216.684 91.546 214.963 90.0779 213.331 88.328C213.192 89.9366 213.271 91.4612 213.582 93.1291C213.694 93.7284 212.937 94.3353 212.46 93.7821C211.635 92.8295 210.98 91.8645 210.45 90.8072C210.206 91.791 209.93 92.7644 209.612 93.7388C209.45 94.2345 208.64 94.4616 208.384 93.899C207.863 92.7522 207.456 91.611 207.136 90.4275C206.292 92.0407 205.323 93.5532 204.197 95.025C203.851 95.4764 202.856 95.4359 202.946 94.6868L203.469 90.2758C202.464 91.1983 201.389 92.0068 200.181 92.7296C199.643 93.0518 199.095 92.5213 199.195 91.971C199.328 91.2398 199.41 90.5745 199.455 89.9102C198.209 91.5545 196.79 92.9114 194.691 93.6493C194.309 93.784 193.799 93.4212 193.842 93.001C193.885 92.5882 193.928 92.1745 193.97 91.7618C193.104 92.6598 192.066 93.3402 190.796 93.8764C190.294 94.0884 189.863 93.4919 189.969 93.05C190.301 91.6742 190.63 90.2975 190.962 88.9217C189.106 90.5321 187.133 91.7826 184.533 92.1161C183.814 92.2085 183.702 91.1945 184.193 90.8638Z" fill="#2D48C3" class="fill-primary"/>
<path d="M191.347 74.7803C196.666 67.745 200.654 59.952 203.225 51.5126C203.38 51.0038 204.195 50.8012 204.453 51.3515C208.194 59.3678 217.365 74.9923 217.364 75.1949C217.764 75.9177 216.121 75.7226 216.086 75.6651C214.826 74.9706 213.565 74.2752 212.304 73.5817C212.425 74.3157 212.61 75.0347 212.874 75.7358C213.048 76.2804 212.376 76.8157 211.887 76.4944C211.084 75.9638 210.352 75.3975 209.654 74.7765C209.696 75.7254 209.738 76.6753 209.78 77.6242C209.808 78.2292 209.041 78.4779 208.634 78.0991C207.728 77.252 206.981 76.3709 206.322 75.3805C205.956 76.2475 205.569 77.104 205.129 77.9474C204.847 78.4892 204.077 78.3027 203.902 77.7863C203.542 76.7205 203.357 75.7697 203.309 74.7407C201.481 75.8328 199.582 76.5311 197.413 76.8977C196.919 76.9815 196.449 76.6037 196.587 76.0712L197.054 74.2714C195.462 75.1186 193.82 75.5916 191.925 75.7914C191.447 75.8413 191.052 75.1704 191.347 74.7803Z" fill="#ABB6E7" class="fill-primary-light" id="color-primary-rgb"/>
</svg>
