<svg width="73" height="72" viewBox="0 0 73 72" fill="none" xmlns="http://www.w3.org/2000/svg">
<path d="M56.6083 64.4281C54.7207 67.4012 52.3915 70.1844 48.928 71.269C48.2813 71.4676 47.6163 71.6201 46.9399 71.7106C45.284 71.9328 43.6058 71.8307 41.9681 71.5459C40.4728 71.2841 38.9488 71.0005 37.4686 70.5927C33.7051 69.5653 29.9842 68.5275 26.3455 67.077C22.6828 65.6162 19.1205 63.922 15.6146 62.1187C12.1729 60.3429 8.69912 58.5534 5.36694 56.5673C3.98866 55.7458 2.64623 54.7966 1.66037 53.505C0.724905 52.2733 0.256076 50.775 0.134015 49.2448C-0.145014 45.8451 0.879278 42.291 1.9843 39.1243C2.82262 36.7105 3.9086 34.4508 4.97977 32.1372C6.06823 29.7833 7.06838 27.3914 8.15339 25.0455C9.15881 22.8847 10.1929 20.7458 11.2706 18.6161C13.1228 14.9508 15.076 11.3385 17.1301 7.77916C18.8063 4.87719 20.4189 1.6142 23.9634 0.783727C27.0324 0.0633702 30.3542 0.900917 33.3365 1.62102C41.1439 3.51056 48.5629 6.7013 55.7263 10.2874C59.2736 12.0609 62.7724 13.947 66.2598 15.8377C68.9834 17.3141 71.9235 19.0171 72.554 22.3296C73.164 25.557 71.7749 28.9638 70.7862 31.9708C69.5168 35.8294 68.0993 39.634 66.5615 43.3868C64.9832 47.2557 63.273 51.0773 61.4779 54.853C59.9641 58.0631 58.5281 61.4021 56.6083 64.4281Z" fill="#EBD8D8"/>
</svg>
