<svg width="154" height="154" viewBox="0 0 154 154" fill="none" xmlns="http://www.w3.org/2000/svg">
<path d="M151.854 40.6581C148.252 25.4866 135.035 15.3876 120.901 10.5217C112.25 7.53793 103.118 6.22965 94.0545 5.21975C84.5322 4.16394 74.964 3.2229 65.4187 2.213C56.4011 1.249 47.2918 -0.128135 38.1825 0.00957899C30.404 0.12434 22.5108 1.6851 16.109 6.32146C3.07599 15.7549 -0.572329 32.8084 0.0701427 47.9799C0.460215 57.4133 2.11228 66.8008 3.60374 76.1194C5.85239 90.3039 7.73391 105.338 13.2638 118.742C16.086 125.582 20.0326 132.031 25.2413 137.31C30.794 142.956 38.2284 146.698 45.6856 149.131C53.7395 151.747 61.7245 153.606 70.2602 152.826C86.0695 151.38 100.732 143.255 112.021 132.33C124.182 120.555 132.855 105.774 140.381 90.763C148.045 75.4308 156.03 58.1936 151.854 40.6581Z" fill="#FCF2E2"/>
</svg>
