<svg width="206" height="220" viewBox="0 0 206 220" fill="none" xmlns="http://www.w3.org/2000/svg">
<path d="M2.51244 140.402C7.58626 165.73 22.061 188.163 43.3278 202.843C63.1628 216.549 89.01 223.651 112.858 218.044C123.986 215.428 135.07 209.537 141.377 199.686C148.027 189.306 146.376 177.518 143.916 165.905C141.476 154.41 133.825 144.567 132.531 132.545C130.835 116.874 141.471 103.814 153.271 94.921C172.827 80.1567 203.231 69.9064 205.3 41.2581C206.158 29.3775 199.446 20.0301 189.358 14.3912C177.627 7.81682 163.51 4.41429 150.32 2.39091C122.825 -1.84357 94.034 1.60653 68.9151 13.8072C46.2106 24.8231 26.676 42.6463 14.3612 64.7596C1.6603 87.5729 -2.61217 114.778 2.51244 140.402Z" fill="#FCF2E2"/>
</svg>
