<svg width="61" height="64" viewBox="0 0 61 64" fill="none" xmlns="http://www.w3.org/2000/svg">
<path d="M5.66042 11.5525C8.47679 9.9023 11.8512 9.26774 14.9681 8.46493L28.3734 4.98041C35.6612 3.0816 43.8942 -0.304231 51.5613 0.815306C57.4626 1.67058 61.26 6.2342 60.6971 12.2118C60.3764 15.7046 58.8847 18.9606 57.3969 22.0851C55.3053 26.4989 53.042 30.8253 50.6533 35.0621C46.561 42.3099 42.0174 49.289 37.1148 55.9948C34.9798 60.0559 32.1278 64.2695 27.4883 63.8239C24.7304 63.5482 22.6243 61.4771 21.0666 59.3612C18.3598 55.6698 16.256 51.4166 13.9454 47.4858C9.90819 40.5959 4.89204 33.6726 2.02175 26.2002C-0.0459664 20.8098 0.207159 14.7517 5.66042 11.5525Z" fill="#DEE4F2"/>
</svg>
