<svg width="98" height="106" viewBox="0 0 98 106" fill="none" xmlns="http://www.w3.org/2000/svg">
<path d="M61.9647 103.467C51.3476 101.821 40.9103 99.1223 30.6572 95.9582C27.1124 94.8577 23.5908 93.715 20.0925 92.5304C16.7996 91.4045 13.4166 90.3751 10.2691 88.8539C3.8542 85.7636 0.956119 80.6483 0.57688 73.7245C0.19105 66.6142 1.57648 59.4772 3.95345 52.7971C7.08658 43.9556 11.9178 35.8155 16.8426 27.8369C21.445 20.3752 26.2029 12.9629 31.8145 6.22392C33.3908 4.33321 35.1101 2.44844 37.3459 1.41643C41.4074 -0.435366 44.1719 1.67899 46.233 5.03244C49.241 9.91582 47.8485 15.8415 47.6539 21.2222C47.4648 26.9901 49.5289 34.2419 56.6645 33.7793C60.0061 33.5601 63.1179 31.9697 66.1385 30.6765C69.1746 29.3554 72.328 28.3185 75.555 27.5786C80.9815 26.3354 87.7242 25.3261 92.5908 28.7676C96.5932 31.6214 97.7982 36.9529 96.9179 41.5885C95.5697 48.6912 89.993 53.3821 84.4289 57.4215C79.5078 60.9932 72.642 63.4162 72.2873 70.4098C72.115 73.6989 73.5462 77.0333 76.0449 79.1653C79.2072 81.8838 83.5878 82.5319 87.5637 83.7794C91.5395 85.0269 95.7482 87.574 96.4157 91.6935C97.1227 96.0727 93.4277 99.9749 89.527 102.099C84.2778 104.94 78.9617 105.421 73.5381 105.038C69.7151 104.771 65.874 104.074 61.9647 103.467Z" fill="#DEE4F2"/>
</svg>
