<svg width="60" height="80" viewBox="0 0 60 80" fill="none" xmlns="http://www.w3.org/2000/svg">
<path d="M59.8672 12.4817C59.6468 9.03937 57.4946 6.64068 54.2899 5.54858C50.4011 4.23173 46.0424 4.03016 41.9969 3.45438C37.2214 2.77125 32.4459 2.08813 27.6611 1.40364C24.8896 1.00565 22.1083 0.739939 19.2918 0.583663C17.8688 0.508136 16.3024 0.497486 15.2112 1.41635C14.4475 2.05861 14.0838 3.03669 13.7443 3.98012C9.18362 16.9203 7.18329 30.5236 4.71008 43.9617C3.7709 49.0483 2.84108 54.1362 1.90053 59.2321C1.2647 62.7109 0.358899 66.4651 1.35358 69.9735C2.3232 73.3922 5.18788 75.2366 8.49141 76.0472C12.82 77.1039 17.469 77.2813 21.8949 77.7411C26.734 78.2521 31.5705 78.715 36.4153 79.1218C39.7865 79.4074 43.6142 79.5786 46.2966 77.1363C48.9146 74.7418 49.5355 70.9743 50.1573 67.6558C51.9194 58.1438 53.68 48.6411 55.4327 39.1277C56.313 34.3763 57.1947 29.6156 58.075 24.8643C58.5112 22.4832 58.9554 20.1129 59.3915 17.7319C59.7034 16.0012 59.9899 14.2476 59.8672 12.4817Z" fill="#DCEAEB"/>
</svg>
