<svg width="305" height="247" viewBox="0 0 305 247" fill="none" xmlns="http://www.w3.org/2000/svg">
<path d="M42.5658 182.192C40.8995 183.232 39.3057 184.383 37.5674 185.269C36.6524 185.743 35.1615 186.25 34.5305 185.847C33.4623 185.157 34.2405 183.811 34.6048 182.723C34.734 182.365 34.8502 181.699 34.7033 181.609C34.1221 181.259 33.2909 180.729 32.8205 180.923C31.399 181.515 30.075 182.387 28.7616 183.209C25.7957 185.048 23.218 187.565 19.6837 188.586C19.2321 186.038 21.6536 185.434 22.6224 183.934C23.4642 182.618 24.5896 181.488 25.3745 180.152C25.6085 179.754 25.2021 178.915 24.9301 178.347C24.8316 178.153 24.2268 178.077 23.8858 178.158C22.8123 178.391 21.7545 178.714 20.1669 179.142C33.3649 167.804 48.1563 159.482 61.1486 148.696C51.6459 154.913 42.1496 161.14 32.6205 167.317C29.9997 169.014 27.2764 170.578 24.5404 172.079C24.0658 172.334 23.215 172.018 22.5848 171.815C22.4139 171.755 22.281 171.11 22.3791 170.815C24.0407 165.999 26.2349 161.636 30.6218 158.473C36.3339 154.351 41.6919 149.758 47.3512 145.556C88.9111 114.657 132.486 86.7283 175.657 58.1881C192.332 47.1605 209.221 36.437 225.764 25.209C230.811 21.7839 236.494 20.6554 241.94 18.6344C242.917 18.2779 244.233 18.5463 245.306 18.8453C247.527 19.4664 249.677 20.2916 251.885 21.0499C247.647 25.236 241.333 26.2051 237.413 30.7419C237.249 30.9362 237.279 31.4479 237.427 31.6951C237.598 31.9992 238.051 32.4197 238.274 32.359C239.763 31.9815 241.352 31.7109 242.671 30.9858C247.465 28.3305 252.167 25.4914 256.919 22.7493C257.129 22.6251 257.534 22.8618 257.853 22.9247C257.682 23.5974 257.733 24.584 257.298 24.8993C254.502 26.9285 251.606 28.8073 247.616 31.5078C251.166 31.3536 253.354 31.3494 255.524 31.1411C257.169 30.9773 258.328 28.8343 260.376 29.7702C258.234 32.7046 254.182 33.4049 252.374 37.3119C255.992 36.0638 259.208 34.8935 262.479 33.917C262.966 33.7689 263.774 34.5734 264.357 35.0372C264.447 35.1073 264.249 35.7833 264.015 35.9811C263.136 36.7321 262.208 37.4297 261.267 38.1072C259.058 39.7205 256.819 41.3103 254.617 42.9336C253.753 43.5742 253.751 44.2801 254.622 44.8269C254.899 45.0037 255.35 45.0662 255.694 45.012C257.509 44.7074 259.174 43.7543 260.992 45.5168C263.196 47.6432 265.892 47.4337 268.506 45.726C268.883 45.4778 269.497 45.5902 269.996 45.549C269.767 45.8438 269.564 46.1789 269.291 46.4303C267.397 48.1667 267.474 49.2803 269.925 50.5399C270.894 51.0364 269.031 52.2209 268.894 53.1878C268.823 53.6797 269.519 54.7586 269.675 54.7282C271.501 54.2864 273.283 53.6875 274.997 53.1623C274.398 54.1603 273.501 55.0818 273.285 56.1292C272.847 58.2574 271.55 59.6148 269.781 60.5214C267.345 61.7672 264.791 62.7455 262.325 63.9244C260.949 64.5861 259.653 65.4115 256.685 67.0931C259.376 66.7868 260.28 66.8519 261.068 66.5627C264.001 65.4932 266.923 64.387 269.781 63.1371C272.289 62.045 274.664 60.6389 277.172 59.5468C278.899 58.7975 280.751 58.4393 282.596 59.5094C277.903 64.1814 273.759 69.3542 268.29 73.1581C268.097 73.2856 267.985 73.8913 268.114 74.065C268.325 74.3422 268.796 74.6356 269.113 74.5848C273.366 73.9676 277.51 72.9191 281.445 71.0884C281.669 70.9843 282.335 71.264 282.324 71.3577C282.284 72.0736 282.408 73.1269 281.99 73.4455C274.846 78.9419 267.171 83.6099 259.354 88.084C254.589 90.8061 249.88 93.6351 245.314 96.6578C209.004 120.649 172.615 144.519 136.497 168.801C113.399 184.334 90.6994 200.451 67.9015 216.417C62.0857 220.493 56.124 224.147 49.2424 226.051C48.9721 226.128 48.4615 225.775 48.2767 225.494C48.1314 225.274 48.182 224.752 48.3568 224.507C48.7958 223.887 49.2851 223.278 49.847 222.778C51.2739 221.508 53.3618 220.664 53.6479 218.593C53.8482 217.168 52.8563 215.55 53.2137 214.208C53.7905 212.046 52.7378 212.999 51.7973 213.101C51.1704 213.169 50.4874 212.886 49.8608 212.666C49.7805 212.633 49.7937 211.877 49.9914 211.689C51.0863 210.58 52.1916 209.464 53.4059 208.492C55.8484 206.523 58.4565 204.762 60.7928 202.677C61.559 202 61.6815 200.612 62.1027 199.544C63.1393 199.033 64.2682 198.663 65.1957 198.009C71.1745 193.826 77.1241 189.576 83.07 185.343C77.3973 188.505 71.9591 192.002 66.6165 195.665C65.0575 196.735 63.8191 198.269 62.4353 199.583C55.4189 204.608 48.2969 209.472 40.4924 213.233C39.9267 213.506 39.1212 213.303 38.4343 213.325C38.5237 212.662 38.3677 211.716 38.7523 211.39C45.9436 205.345 52.9633 199.04 60.5152 193.476C70.9322 185.809 81.8155 178.783 92.3945 171.34C102.012 164.588 111.319 157.364 121.075 150.823C151.691 130.295 182.449 110.004 213.145 89.5966C221.314 84.1717 229.427 78.6835 237.557 73.1985C238.844 72.3364 240.028 71.3406 240.914 69.7801C238.808 70.9516 236.69 72.1031 234.6 73.3214C233.25 74.1101 231.916 74.9456 230.609 75.8212C189.077 103.281 147.297 130.387 106.122 158.388C87.0048 171.384 68.2639 184.951 49.1432 197.964C45.2715 200.6 41.3734 203.197 37.1788 205.299C36.1585 203.773 37.363 203.295 38.0232 202.745C40.6747 200.496 43.4126 198.333 46.0809 196.087C46.3158 195.889 46.2622 195.364 46.3344 194.985C45.9447 194.926 45.5166 194.719 45.1953 194.83C44.1202 195.194 42.988 195.537 42.0209 196.131C39.031 198 36.1137 199.979 32.8136 202.153C32.1585 198.432 35.7657 196.458 36.6379 193.326C32.2039 193.645 29.9982 197.081 26.3289 197.875C25.4503 196.585 26.8616 196.245 27.426 195.815C32.1273 192.287 36.9275 188.91 41.5526 185.288C42.2056 184.772 42.0607 183.243 42.2901 182.172C59.3585 171.92 75.406 160.185 91.6156 148.673C77.7153 157.327 63.9735 166.221 50.2713 175.176C47.288 177.055 44.3342 179.001 42.5658 182.192ZM55.222 166.971C55.2304 167.095 55.2322 167.209 55.2407 167.332C59.8548 164.293 64.4588 161.26 69.073 158.22C69.0135 158.13 68.9607 158.05 68.8911 157.966C64.3381 160.966 59.775 163.972 55.222 166.971ZM221.317 60.9613C220.846 60.9121 220.551 60.7756 220.382 60.8729C219.402 61.4469 218.448 62.0608 217.497 62.7016C217.364 62.7888 217.351 63.0564 217.274 63.2506C217.629 63.1462 218.013 63.1087 218.315 62.9241C219.282 62.3302 220.217 61.686 221.317 60.9613ZM256.932 51.482C257.238 51.2807 257.731 51.1425 257.816 50.8714C258.089 50.0446 257.61 49.8282 256.667 50.392C256.386 50.5632 256.256 50.9649 256.05 51.2731C256.342 51.3394 256.634 51.4056 256.932 51.482ZM259.074 58.3917C260.117 58.4231 260.435 58.0411 259.876 57.3465C259.793 57.2429 259.218 57.4348 258.96 57.6192C258.865 57.6964 259.034 58.1308 259.074 58.3917Z" fill="#DEE4F2"/>
<path d="M93.8412 216.704C95.3066 212.476 99.8024 212.317 101.361 208.718C94.5213 212.548 88.0312 216.177 81.5274 219.829C81.3235 219.719 81.0998 219.579 80.8725 219.456C81.0581 219.161 81.2372 218.856 81.4228 218.561C81.8485 217.922 82.5194 217.322 82.6495 216.632C82.8483 215.582 81.5206 215.45 79.9442 216.561C75.7724 219.496 71.6372 222.464 67.5152 225.452C63.7227 228.209 59.9698 231.027 55.7333 233.243C57.1753 232.106 58.7469 231.099 60.0126 229.806C61.3466 228.438 62.2516 226.664 63.5789 225.286C65.1896 223.607 66.9537 222.028 68.8265 220.637C95.3137 201.047 122.363 182.265 149.911 164.175C182.365 142.868 214.865 121.631 247.317 100.296C257.152 93.8314 267.191 87.8074 278.483 83.7746C279.726 84.9964 278.259 85.4744 277.664 85.9238C272.624 89.6466 267.534 93.3159 262.723 97.5199C265.271 96.2003 267.729 94.5664 270.404 93.638C272.906 92.7801 275.661 92.6609 278.411 92.2006C278.529 94.2642 276.835 94.5753 275.836 95.2763C272.619 97.5104 269.234 99.5106 265.984 101.695C251.674 111.323 237.37 120.961 223.093 130.639C221.477 131.733 219.628 132.807 218.598 134.347C215.656 138.772 211.217 141.279 206.993 144.09C187.743 156.929 168.48 169.748 149.231 182.587C145.984 184.754 142.781 186.721 138.767 187.612C133.389 188.827 128.492 191.348 126.403 197.179C126.152 197.862 125.574 198.559 124.963 198.961C121.055 201.565 117.083 204.095 113.136 206.638C106.633 207.631 101.977 212.092 96.7026 215.394C96.0339 215.82 95.2836 216.056 93.8412 216.704Z" fill="#DEE4F2"/>
<path d="M229.512 16.5751C216.663 25.3842 204.886 33.6458 192.929 41.637C161.037 62.9768 129.026 84.1362 97.1595 105.516C86.4323 112.712 76.0351 120.409 65.4201 127.776C62.5532 129.765 59.4452 131.41 56.4132 133.148C55.5756 133.628 54.8702 133.245 54.6302 132.282C54.5599 131.998 54.6703 131.523 54.8746 131.345C56.6778 129.87 58.4351 128.324 60.3608 127.013C77.8578 115.127 95.2851 103.158 112.921 91.4832C142.311 72.0215 171.764 52.6768 201.32 33.4656C210.147 27.7084 219.413 22.5958 229.512 16.5751Z" fill="#DEE4F2"/>
<path d="M39.6872 224.715C39.5956 224.775 39.3306 224.95 39.0658 225.124C39.3485 224.866 39.5982 224.558 39.9272 224.37C40.1477 224.239 40.4703 224.285 40.74 224.251C40.4523 224.369 40.1612 224.503 39.6872 224.715Z" fill="#DEE4F2"/>
<path d="M272.431 32.5495L271.828 33.0757L271.669 32.6344L272.431 32.5495Z" fill="#DEE4F2"/>
</svg>
