<svg width="91" height="121" viewBox="0 0 91 121" fill="none" xmlns="http://www.w3.org/2000/svg">
<path d="M40.6329 114.718C26.3737 109.358 13.5751 99.7822 6.17043 86.2727C-1.62854 72.0331 -1.79894 56.1041 4.33021 41.2267C10.2208 26.9383 19.8989 13.7453 34.0851 6.91507C51.6887 -1.57032 71.6924 -0.421392 90.6592 0.970932L90.6592 1.94459L90.6592 10.8341L90.6592 11.7833C64.7405 11.613 34.3821 14.4171 18.4677 37.7605C10.9657 48.7627 9.3835 62.9732 14.3345 75.3678C19.271 87.7332 30.3998 96.2916 42.5364 100.99C57.813 106.9 74.5063 106.88 90.6592 106.793L90.6592 107.766L90.6592 118.54L90.6592 119.513C73.8783 121.329 56.5619 120.711 40.6329 114.718Z" fill="#E7ECE3"/>
<path d="M51.7125 97.1434C40.6128 93.5116 30.6475 87.0222 24.8835 77.8699C18.8127 68.221 18.6813 57.428 23.4522 47.3459C28.0381 37.6629 35.5693 28.7247 46.6154 24.095C60.3196 18.3456 75.8932 19.1245 90.6538 20.0689L90.6538 20.7261L90.6538 26.7531L90.6538 27.3957C70.4797 27.2788 46.8442 29.1823 34.4594 44.9994C28.6174 52.4527 27.3858 62.0821 31.2414 70.4847C35.0825 78.863 43.748 84.6611 53.1973 87.845C65.0905 91.8515 78.0839 91.837 90.6586 91.7785L90.6586 92.4358L90.6586 99.7333L90.6586 100.395C77.5922 101.627 64.1168 101.204 51.7125 97.1434Z" fill="#F6E1C2"/>
<path d="M61.2065 83.6786C52.8136 81.3711 45.2775 77.2477 40.9204 71.4301C36.3297 65.3009 36.2274 58.4415 39.8348 52.0349C43.301 45.8814 49.0018 40.2001 57.3508 37.2597C67.7154 33.6085 79.4917 34.1002 90.6546 34.699L90.6546 35.1177L90.6546 38.9441L90.6546 39.3531C75.3975 39.28 57.5212 40.4874 48.1547 50.5404C43.7392 55.2772 42.8044 61.3966 45.7205 66.7322C48.6269 72.0581 55.1796 75.7434 62.3213 77.7637C71.3179 80.3098 81.142 80.3001 90.6498 80.2611L90.6498 80.6798L90.6498 85.3193L90.6498 85.7379C80.7769 86.5266 70.5876 86.2588 61.2065 83.6786Z" fill="#E3C6BC"/>
<path d="M66.5131 71.3557C61.4793 69.5009 56.5769 65.4115 56.7619 59.5647C56.9323 54.195 61.8395 51.2936 66.4449 49.8964C73.7132 47.691 81.6583 47.0922 89.2187 47.2626C89.2771 47.2675 89.3306 47.2821 89.3793 47.3016C89.7298 47.321 90.0804 47.3405 90.4309 47.36C90.7181 47.3746 90.8641 47.5888 90.8933 47.8079C90.9566 47.8857 91.0005 47.9783 91.0005 48.1048L91.0005 72.7675C91.0005 72.8892 90.9566 72.9817 90.8982 73.0547C90.9128 73.3127 90.7619 73.5805 90.4309 73.5805L89.1116 73.5805C89.0483 73.6146 88.9752 73.6389 88.8876 73.6438C81.4586 73.7557 73.6013 73.9602 66.5131 71.3557Z" fill="#F2EFE1"/>
</svg>
