<svg width="278" height="294" viewBox="0 0 278 294" fill="none" xmlns="http://www.w3.org/2000/svg">
<path d="M204.59 34.6873C193.93 32.5156 182.845 34.0066 173.379 38.891C163.463 44.005 155.011 52.7074 148.257 64.7497C141.205 77.3298 137.336 91.0365 133.596 104.285C130.355 115.769 127.291 126.613 122.321 136.891C116.052 149.855 107.89 158.742 98.0658 163.299C93.8184 165.271 89.2727 166.589 84.4586 167.982C77.7375 169.93 70.7943 171.948 64.3913 175.912C54.2279 182.207 46.7342 192.092 43.2948 203.76C39.8615 215.391 40.7596 227.751 45.8207 238.565C47.8461 242.892 50.5379 246.956 53.841 250.661C54.0659 251.055 54.3396 251.423 54.6571 251.759C65.6818 263.553 81.3003 269.296 95.4089 266.757C106.24 264.804 115.838 258.591 121.743 249.717C124.801 245.125 126.314 239.944 127.776 234.935C129.585 228.751 131.292 222.911 135.695 219.45C140.347 215.804 146.748 214.89 153.527 213.933C156.244 213.545 159.058 213.144 161.777 212.551C170.343 210.682 177.083 206.838 181.913 201.096C184.003 198.612 185.731 195.772 187.104 192.582C190.91 183.707 191.552 174.468 192.168 165.524C192.417 161.937 192.651 158.552 193.077 155.173C193.937 148.354 195.325 143.566 197.584 139.638C200.563 134.456 205.804 131.1 210.541 128.494C219.884 123.369 229.545 118.058 236.001 107.582C241.494 98.6697 244.127 87.9694 243.421 77.4592C242.014 56.648 226.053 39.0557 204.59 34.6873ZM53.2783 221.295C52.217 209.904 56.4507 198.432 64.6117 190.616C71.2071 184.294 79.8239 181.713 88.9487 178.976C90.5095 178.506 92.0795 178.035 93.6387 177.547C105.835 173.726 115.333 167.489 122.694 158.485C134.706 143.779 139.724 125.853 144.569 108.52C146.003 103.393 147.486 98.0839 149.119 93.0463C158.281 64.6629 171.052 49.3089 188.174 46.0919C205.195 42.8928 223.752 52.8554 229.529 68.3093C235.602 84.5429 228.689 104.293 213.8 113.271C211.919 114.406 209.919 115.501 207.981 116.561C200.278 120.777 192.312 125.132 187.266 133.931C181.726 143.593 181.031 154.913 180.417 164.904L180.294 166.874C179.523 178.996 177.662 191.04 169.356 197.012C164.53 200.477 158.237 201.406 151.572 202.381C149.448 202.694 147.251 203.014 145.104 203.427C138.88 204.62 130.42 207.016 124.462 214.097C123.445 215.307 122.5 216.654 121.651 218.152C119.2 222.492 117.825 227 116.493 231.365C114.784 236.972 113.16 242.274 109.416 246.358C103.433 252.878 94.4748 256.355 86.0405 255.439C82.465 255.054 78.3595 253.597 73.8356 251.12C61.9291 244.592 54.438 233.722 53.2783 221.295Z" fill="#DEE4F2"/>
<path d="M185.638 22.2915C176.133 20.3553 166.293 21.5992 157.66 26.044C147.548 31.2587 140.062 40.1478 134.575 49.9397C121.984 72.4046 119.924 98.7655 108.78 121.822C102.977 133.825 94.5132 144.823 82.16 150.552C71.4225 155.532 59.1868 156.578 49.0057 162.883C30.088 174.591 22.9044 199.197 32.2966 219.269C34.2705 223.483 36.8745 227.285 40.0135 230.706C40.0513 230.875 40.1304 231.035 40.2691 231.186C49.3192 240.865 63.2072 247.106 76.5544 244.699C85.8086 243.031 94.4385 237.632 99.6631 229.771C106.088 220.117 105.079 205.881 114.68 198.351C122.51 192.211 133.455 192.547 142.748 190.517C152.712 188.341 160.491 183.006 164.612 173.411C169.519 161.975 168.692 149.418 170.22 137.332C170.978 131.328 172.303 125.26 175.342 119.966C178.766 114.001 184.294 110.201 190.196 106.965C199.547 101.83 208.082 97.1139 213.832 87.7834C218.806 79.7115 221.164 70.0309 220.531 60.5758C219.232 41.1936 204.367 26.1089 185.638 22.2915ZM198.355 100.261C189.258 105.747 179.105 109.462 173.549 119.152C168.25 128.407 167.878 139.596 167.217 149.959C166.463 161.838 164.704 176.257 154.246 183.777C146.698 189.204 136.861 189.344 128.055 191.03C119.84 192.604 112.257 195.739 107.956 203.348C102.617 212.792 102.692 224.143 95.0631 232.458C88.2079 239.924 77.671 244.207 67.5354 243.103C62.6439 242.57 57.7878 240.559 53.4984 238.21C40.776 231.236 31.7708 219.109 30.412 204.536C29.2188 191.722 33.9297 178.766 43.2386 169.85C51.8981 161.554 63.1285 159.105 74.1965 155.637C84.7751 152.323 93.8507 146.802 100.911 138.155C115.786 119.943 119.447 96.0417 126.464 74.3133C133.256 53.2699 145.207 28.5606 169.292 24.0358C188.205 20.4828 209.312 31.0402 216.161 49.3575C223.137 68.0222 215.316 90.0434 198.355 100.261Z" fill="#2D2D2D"/>
</svg>
