<svg width="177" height="120" viewBox="0 0 177 120" fill="none" xmlns="http://www.w3.org/2000/svg">
<path d="M17.5115 77.3414C13.732 74.9396 8.91642 75.5146 5.43649 77.9883C5.3766 78.0123 5.31072 78.0362 5.25681 78.0901C5.19692 78.144 5.14302 78.2039 5.08313 78.2578C3.77142 79.2701 2.67533 80.5577 1.93861 82.0671C1.80085 82.3426 1.89067 82.6003 2.06437 82.774C0.710732 86.5773 1.33966 91.0814 4.33443 94.0522C8.6529 98.3407 16.6789 97.7298 20.3505 92.9023C23.9442 88.1645 22.5187 80.5219 17.5115 77.3414ZM19.3742 92.1536C16.1578 96.3882 8.98231 97.0291 5.17295 93.2017C1.36958 89.3744 1.92062 82.8938 5.69404 79.318C8.62293 76.9701 12.8037 76.1554 16.2656 78.0002C21.1471 80.5996 22.7164 87.7512 19.3742 92.1536Z" fill="#FF8595"/>
<path d="M29.3049 51.0654C27.3164 50.3766 25.3458 50.8857 23.8244 52.0477C23.6987 52.0537 23.5729 52.0896 23.4531 52.1914C22.8541 52.7185 22.387 53.3533 22.0276 54.0541C21.3627 55.1741 21.0034 56.4799 21.0872 57.8095C21.0992 58.0312 21.219 58.1869 21.3687 58.2767C21.6083 59.7681 22.345 61.1638 23.6328 62.1221C26.5736 64.3203 31.2814 63.1523 33.0004 59.9538C34.7614 56.6835 32.7249 52.2453 29.3049 51.0654ZM31.7067 59.7921C30.1194 62.2059 26.1664 62.8768 24.0041 60.8823C22.2672 59.2771 22.0695 56.6775 23.0638 54.671C24.2377 52.6645 26.5676 51.3589 28.9814 52.2214C31.8984 53.2516 33.4257 57.1747 31.7067 59.7921Z" fill="#FF8595"/>
<path d="M6.10709 32.1202C2.29773 33.1924 0.770397 38.0319 2.6631 41.3022C2.84278 41.6077 3.15423 41.6376 3.4058 41.5238C3.88496 42.1886 4.51388 42.7576 5.29851 43.1469C8.64667 44.806 13.0969 42.2964 13.6659 38.6788C14.2888 34.6837 9.95238 31.0361 6.10709 32.1202ZM5.49618 41.8892C2.96859 40.2959 2.81883 36.4207 4.91517 34.4562C5.08288 34.2944 5.11883 34.1087 5.0769 33.941C5.27456 33.7973 5.48419 33.6596 5.7058 33.5517C8.72453 32.0484 12.7855 34.8455 12.5219 38.1996C12.2823 41.3142 8.21544 43.6082 5.49618 41.8892Z" fill="#FF8595"/>
<path d="M51.3997 81.8274C49.1895 77.1016 43.1401 75.6222 38.7019 77.9402C38.3065 78.1438 38.3485 78.5691 38.5761 78.8266C35.7071 80.923 34.036 84.6544 35.1081 88.2362C36.5217 92.944 42.3375 95.6632 46.8656 93.7585C51.2679 91.9078 53.4122 86.1339 51.3997 81.8274ZM46.3864 92.6326C42.5291 94.2557 37.486 91.9796 36.2641 87.9247C34.9943 83.7021 38.1388 79.3357 42.2537 78.4672C42.4932 78.4133 42.619 78.2576 42.6609 78.0779C45.6677 77.9042 48.7643 79.2818 50.2138 82.0969C52.1424 85.8404 50.2437 91.0094 46.3864 92.6326Z" fill="#FF8595"/>
<path d="M39.7144 105.534C38.2829 102.282 34.3956 100.443 31.0355 101.677C30.8438 101.749 30.7301 101.88 30.6761 102.036C30.5324 101.976 30.3587 101.982 30.185 102.102C23.9079 106.289 28.5499 116.878 35.9949 113.722C39.1753 112.374 41.1818 108.87 39.7144 105.534ZM35.5217 112.614C29.4543 115.183 25.6928 106.534 30.784 103.138C30.9037 103.06 30.9816 102.959 31.0176 102.851C31.1134 102.875 31.2212 102.887 31.347 102.839C33.9944 101.863 36.9831 103.084 38.3727 105.534C39.9719 108.343 38.3008 111.434 35.5217 112.614Z" fill="#FF8595"/>
<path d="M55.8321 42.7879C49.8605 40.9731 43.8949 45.9923 43.4636 51.8921C43.4337 52.3293 43.805 52.5089 44.1404 52.449C44.2063 55.1683 45.3384 57.8397 47.6324 59.5587C51.9808 62.823 59.0125 61.1579 61.6 56.4202C64.3432 51.4009 61.2346 44.429 55.8321 42.7879ZM60.1924 56.4262C57.593 60.2415 51.4657 61.3974 47.9198 58.2589C44.2602 55.0245 44.5957 48.9332 48.0816 45.7767C48.1954 45.6689 48.2433 45.5551 48.2553 45.4353C50.6331 43.5845 53.8256 42.8957 56.7365 44.453C60.8273 46.6392 62.9237 52.4192 60.1924 56.4262Z" fill="#FF8595"/>
<path d="M38.7146 24.064C37.2711 23.5309 35.7977 23.7945 34.5998 24.5372C34.4021 24.4593 34.1745 24.4653 33.9709 24.6271C31.587 26.5198 31.2636 30.4669 33.5815 32.5692C35.8336 34.6116 39.8586 33.9408 41.3859 31.3353C42.8953 28.7718 41.4758 25.0882 38.7146 24.064ZM40.0443 31.1557C38.6487 32.8447 35.6659 33.1322 34.1446 31.4432C33.5696 30.8023 33.2701 30.0236 33.2102 29.227C33.2222 29.1731 33.2401 29.1252 33.2401 29.0653C33.2222 26.382 36.2409 23.9442 38.7984 25.4236C40.7091 26.5257 41.5117 29.3888 40.0443 31.1557Z" fill="#FF8595"/>
<path d="M170.509 105.546C169.065 105.013 167.592 105.276 166.394 106.019C166.196 105.941 165.968 105.947 165.765 106.109C163.381 108.002 163.058 111.949 165.375 114.051C167.628 116.094 171.653 115.423 173.18 112.817C174.689 110.254 173.276 106.57 170.509 105.546ZM171.838 112.638C170.443 114.327 167.46 114.614 165.939 112.925C165.364 112.284 165.064 111.506 165.004 110.709C165.016 110.655 165.034 110.607 165.034 110.547C165.016 107.864 168.035 105.426 170.592 106.905C172.509 108.008 173.306 110.865 171.838 112.638Z" fill="#FF8595"/>
<path d="M69.2666 66.7754C68.1526 65.8949 66.7211 65.7093 65.4214 66.0507C65.3016 65.9609 65.1399 65.937 64.9422 66.0149C64.1336 66.3563 63.4508 66.9192 62.9357 67.602C62.6841 67.9015 62.4625 68.2309 62.2948 68.5963C62.2529 68.6861 62.2349 68.7759 62.2409 68.8658C61.7797 70.1056 61.8097 71.5133 62.5464 72.7351C63.93 75.0351 67.4937 75.5502 69.4883 73.7773C71.5127 71.9864 71.369 68.4465 69.2666 66.7754ZM68.8773 72.7171C67.5117 74.1427 64.8823 73.885 63.7263 72.3277C62.9417 71.2796 62.9896 69.872 63.5826 68.752C64.5289 67.2965 66.5294 66.5658 68.1346 67.4463C69.9435 68.4406 70.2789 71.2497 68.8773 72.7171Z" fill="#FF8595"/>
<path d="M68.656 99.7962C65.23 97.029 60.2227 97.6999 57.168 100.599C56.8686 100.419 56.3834 100.473 56.2217 100.904C55.6827 102.324 55.1436 103.743 54.6045 105.163C54.4907 105.456 54.6225 105.678 54.8261 105.792C54.5926 109.314 56.3654 112.883 59.7196 114.423C63.5649 116.19 68.674 114.614 70.7943 110.925C72.8607 107.337 71.8604 102.384 68.656 99.7962ZM69.7581 110.32C67.9013 113.518 63.2834 114.944 59.9711 113.231C56.4313 111.404 55.1795 107.073 56.5332 103.492C56.5511 103.444 56.5451 103.408 56.5511 103.366C56.6709 103.042 56.7967 102.725 56.9165 102.402C57.0423 102.396 57.168 102.342 57.2759 102.21C59.6238 99.3769 63.8045 98.2508 67.1107 100.185C70.4589 102.15 71.7047 106.966 69.7581 110.32Z" fill="#FF8595"/>
<path d="M80.6886 83.355C78.6222 82.4386 76.3222 82.8639 74.5732 84.0977C74.3636 83.8761 74.0042 83.7862 73.7167 84.0557C70.9196 86.7271 70.7339 91.7283 73.9323 94.214C76.8193 96.4601 81.587 95.7294 83.5096 92.5609C85.3964 89.4463 84.0367 84.8404 80.6886 83.355ZM82.4734 91.9559C80.9102 94.4955 77.0649 95.0585 74.7349 93.2976C73.1717 92.1176 72.5907 90.231 72.8243 88.4222C72.962 88.3623 73.0758 88.2424 73.1237 88.0507C73.8724 85.2716 76.999 83.3429 79.8261 84.2953C82.7969 85.2955 84.0786 89.3385 82.4734 91.9559Z" fill="#FF8595"/>
<path d="M4.8972 55.8266C3.71126 55.6948 2.50735 56.0961 1.58495 56.8388C1.40527 56.7849 1.2076 56.8208 1.05188 57.0185C0.72245 57.4318 0.494864 57.893 0.357104 58.3721C0.0935635 58.9292 -0.0382169 59.546 0.00969949 60.1988C0.0276682 60.4564 0.177417 60.6181 0.357104 60.702C0.632623 61.6843 1.23755 62.5827 2.10005 63.1996C4.24431 64.7269 6.86773 63.4512 7.71226 61.1392C8.53283 58.8812 7.50265 56.126 4.8972 55.8266ZM6.64014 60.5702C6.14301 62.1575 4.49587 63.2954 2.92061 62.3131C1.86046 61.6543 1.18964 60.2527 1.39328 59.0069C1.87844 57.797 3.19016 56.9406 4.5438 56.9945C6.43051 57.0664 7.14326 58.965 6.64014 60.5702Z" fill="#FF8595"/>
<path d="M3.59138 106.259C3.54346 106.259 3.49555 106.265 3.44764 106.277C3.30988 106.301 3.20808 106.367 3.1362 106.457C1.86043 107.355 1.09374 108.691 0.938013 110.254C0.920044 110.428 0.973963 110.56 1.06381 110.655C1.26146 115.076 7.31692 117.543 10.1021 113.165C12.8692 108.799 7.77209 104.127 3.59138 106.259ZM9.2755 112.189C8.44894 113.758 6.69399 114.806 4.92108 114.207C2.98645 113.56 1.87838 111.35 2.36952 109.428C2.38749 109.356 2.38152 109.296 2.38152 109.236C2.60912 108.655 2.98046 108.134 3.45363 107.721C3.50155 107.703 3.54946 107.679 3.60337 107.649C6.61612 105.57 11.1622 108.589 9.2755 112.189Z" fill="#FF8595"/>
<path d="M155.715 92.9022C159.386 97.7298 167.406 98.3347 171.731 94.0522C174.725 91.0814 175.354 86.5773 174.001 82.774C174.174 82.6003 174.258 82.3426 174.127 82.0671C173.384 80.5577 172.288 79.27 170.982 78.2578C170.922 78.2039 170.868 78.144 170.808 78.0901C170.748 78.0422 170.688 78.0123 170.629 77.9883C167.155 75.5086 162.333 74.9396 158.554 77.3414C153.54 80.5218 152.115 88.1645 155.715 92.9022ZM159.794 78.0002C163.255 76.1554 167.43 76.9641 170.365 79.318C174.138 82.8937 174.69 89.3744 170.886 93.2017C167.083 97.029 159.901 96.3942 156.685 92.1535C153.337 87.7512 154.912 80.5996 159.794 78.0002Z" fill="#FF8595"/>
<path d="M143.052 59.9538C144.771 63.1523 149.479 64.3203 152.419 62.1221C153.707 61.1638 154.444 59.7621 154.683 58.2767C154.833 58.1809 154.953 58.0312 154.965 57.8095C155.049 56.4799 154.689 55.1741 154.025 54.0541C153.671 53.3593 153.198 52.7185 152.599 52.1914C152.485 52.0896 152.353 52.0537 152.228 52.0477C150.712 50.8857 148.736 50.3766 146.747 51.0654C143.327 52.2453 141.291 56.6835 143.052 59.9538ZM147.071 52.2214C149.491 51.3649 151.814 52.6645 152.988 54.671C153.983 56.6775 153.791 59.2711 152.048 60.8823C149.886 62.8768 145.933 62.2119 144.345 59.7921C142.626 57.1747 144.16 53.2516 147.071 52.2214Z" fill="#FF8595"/>
<path d="M162.392 41.6734C162.961 45.2911 167.411 47.8007 170.76 46.1416C171.544 45.7523 172.173 45.1833 172.652 44.5184C172.904 44.6322 173.215 44.6023 173.395 44.2968C175.294 41.0265 173.76 36.187 169.951 35.1149C166.106 34.0307 161.763 37.6784 162.392 41.6734ZM163.53 41.1943C163.267 37.8461 167.328 35.043 170.346 36.5464C170.574 36.6602 170.778 36.7919 170.975 36.9356C170.933 37.1033 170.969 37.2891 171.137 37.4508C173.233 39.4154 173.084 43.2846 170.556 44.8838C167.843 46.6028 163.776 44.3088 163.53 41.1943Z" fill="#FF8595"/>
<path d="M129.193 93.7649C133.715 95.6696 139.537 92.9503 140.95 88.2425C142.028 84.6608 140.357 80.9293 137.482 78.833C137.71 78.5754 137.752 78.1502 137.357 77.9465C132.918 75.6286 126.863 77.108 124.659 81.8337C122.646 86.1342 124.79 91.9081 129.193 93.7649ZM125.851 82.0853C127.3 79.2702 130.391 77.8926 133.403 78.0663C133.445 78.246 133.565 78.4016 133.811 78.4556C137.92 79.33 141.07 83.6904 139.8 87.9131C138.578 91.974 133.535 94.2441 129.678 92.6209C125.809 91.0097 123.916 85.8407 125.851 82.0853Z" fill="#FF8595"/>
<path d="M113.859 54.0301C116.446 58.7678 123.484 60.4329 127.826 57.1686C130.114 55.4496 131.252 52.7722 131.318 50.0589C131.654 50.1188 132.025 49.9392 131.995 49.5019C131.564 43.6022 125.598 38.5829 119.627 40.3978C114.224 42.0329 111.116 49.0048 113.859 54.0301ZM118.716 42.0629C121.627 40.5056 124.826 41.1944 127.198 43.0452C127.21 43.165 127.257 43.2847 127.371 43.3865C130.857 46.543 131.193 52.6344 127.533 55.8687C123.987 59.0013 117.86 57.8454 115.26 54.0361C112.535 50.0231 114.631 44.2431 118.716 42.0629Z" fill="#FF8595"/>
<path d="M134.667 31.3355C136.194 33.941 140.219 34.6119 142.471 32.5694C144.789 30.4731 144.466 26.52 142.082 24.6273C141.878 24.4655 141.645 24.4595 141.453 24.5374C140.261 23.7947 138.788 23.5251 137.338 24.0642C134.583 25.0884 133.163 28.772 134.667 31.3355ZM137.26 25.4179C139.812 23.9384 142.837 26.3762 142.819 29.0595C142.819 29.1194 142.837 29.1733 142.849 29.2212C142.783 30.0178 142.489 30.8025 141.914 31.4374C140.393 33.1324 137.41 32.839 136.015 31.1499C134.547 29.389 135.35 26.5259 137.26 25.4179Z" fill="#FF8595"/>
<path d="M110.757 73.7837C112.757 75.5566 116.315 75.0415 117.698 72.7415C118.435 71.5196 118.471 70.106 118.004 68.8721C118.004 68.7883 117.992 68.6984 117.95 68.6026C117.782 68.2372 117.567 67.9079 117.309 67.6084C116.794 66.9256 116.111 66.3625 115.303 66.0211C115.111 65.9372 114.949 65.9672 114.823 66.057C113.518 65.7156 112.086 65.9013 110.978 66.7818C108.882 68.4469 108.738 71.9868 110.757 73.7837ZM112.116 67.4527C113.721 66.5722 115.722 67.3029 116.668 68.7583C117.261 69.8724 117.309 71.2859 116.525 72.3341C115.369 73.8854 112.739 74.149 111.373 72.7235C109.972 71.2501 110.307 68.4409 112.116 67.4527Z" fill="#FF8595"/>
<path d="M93.4046 93.2973C95.5249 96.9808 100.64 98.5621 104.479 96.7952C107.833 95.2559 109.606 91.6802 109.373 88.1643C109.576 88.0505 109.708 87.8289 109.594 87.5354C109.055 86.1159 108.516 84.6963 107.977 83.2768C107.815 82.8455 107.33 82.7916 107.031 82.9713C103.976 80.0783 98.9689 79.4076 95.5429 82.1688C92.3325 84.7563 91.3382 89.7095 93.4046 93.2973ZM97.0822 82.558C100.382 80.6234 104.569 81.7495 106.917 84.5826C107.025 84.7143 107.151 84.7622 107.276 84.7741C107.396 85.0976 107.522 85.4151 107.642 85.7385C107.648 85.7804 107.642 85.8224 107.66 85.8643C109.013 89.446 107.762 93.7765 104.222 95.6033C100.909 97.3163 96.2916 95.8907 94.4348 92.6923C92.4882 89.3382 93.74 84.5226 97.0822 82.558Z" fill="#FF8595"/>
<path d="M112.781 112.093C114.698 115.261 119.472 115.986 122.359 113.746C125.551 111.26 125.371 106.265 122.574 103.588C122.287 103.312 121.927 103.408 121.718 103.629C119.969 102.396 117.675 101.97 115.602 102.887C112.248 104.378 110.895 108.984 112.781 112.093ZM116.459 103.833C119.286 102.881 122.412 104.809 123.161 107.589C123.209 107.78 123.323 107.894 123.461 107.96C123.694 109.769 123.113 111.656 121.55 112.835C119.22 114.596 115.369 114.033 113.811 111.494C112.206 108.876 113.494 104.833 116.459 103.833Z" fill="#FF8595"/>
<path d="M168.346 65.3382C169.191 67.6502 171.808 68.9259 173.958 67.3986C174.827 66.7816 175.432 65.8773 175.701 64.901C175.887 64.8171 176.031 64.6553 176.049 64.3978C176.097 63.7449 175.959 63.1281 175.701 62.5711C175.564 62.0919 175.336 61.6307 175.007 61.2174C174.845 61.0198 174.647 60.9778 174.474 61.0377C173.551 60.301 172.347 59.8938 171.161 60.0255C168.556 60.319 167.526 63.0741 168.346 65.3382ZM171.515 61.1935C172.862 61.1456 174.18 61.996 174.665 63.2059C174.869 64.4457 174.198 65.8473 173.138 66.5121C171.563 67.4944 169.916 66.3505 169.418 64.7692C168.915 63.158 169.628 61.2594 171.515 61.1935Z" fill="#FF8595"/>
<path d="M90.8353 113.524C93.6204 117.902 99.6758 115.435 99.8735 111.015C99.9633 110.919 100.017 110.787 99.9993 110.613C99.8435 109.056 99.0709 107.72 97.8011 106.816C97.7292 106.726 97.6214 106.66 97.4897 106.636C97.4417 106.624 97.3938 106.618 97.3459 106.618C93.1532 104.48 88.0621 109.152 90.8353 113.524ZM97.3279 107.996C97.3758 108.032 97.4297 108.05 97.4777 108.068C97.9508 108.481 98.3222 109.002 98.5498 109.583C98.5438 109.643 98.5438 109.709 98.5618 109.775C99.0529 111.697 97.9449 113.907 96.0102 114.554C94.2373 115.147 92.4824 114.105 91.6558 112.536C89.7631 108.942 94.3152 105.923 97.3279 107.996Z" fill="#FF8595"/>
<path d="M69.4458 9.31788C67.655 4.86765 61.8211 2.64558 57.5147 4.73593C54.1605 6.36509 52.5493 10.0187 52.8728 13.5226C52.6811 13.6483 52.5553 13.87 52.6212 14.1575C52.9087 15.3674 53.4537 16.4994 54.1845 17.4936C54.1905 17.5056 54.1964 17.5236 54.2084 17.5356C54.2443 17.5895 54.2863 17.6314 54.3282 17.6734C56.4785 20.4525 60.1261 22.0577 63.6779 21.0395C68.4216 19.6799 71.2906 13.9059 69.4458 9.31788ZM63.3605 19.8835C60.21 20.7759 57.0175 19.2905 55.1728 16.7988C53.0045 13.2231 53.9149 8.01221 57.7782 5.92785C61.5157 3.90937 66.7625 5.88589 68.3138 9.79108C69.8651 13.7082 67.4573 18.7215 63.3605 19.8835Z" fill="#FF8595"/>
<path d="M152.192 107.625C150.401 103.174 144.567 100.952 140.261 103.043C136.907 104.672 135.295 108.325 135.619 111.829C135.427 111.955 135.301 112.177 135.367 112.464C135.655 113.674 136.2 114.806 136.931 115.8C136.937 115.812 136.943 115.83 136.955 115.842C136.99 115.896 137.032 115.938 137.074 115.98C139.225 118.759 142.872 120.364 146.424 119.346C151.162 117.986 154.037 112.213 152.192 107.625ZM146.107 118.19C142.956 119.083 139.764 117.597 137.919 115.106C135.751 111.53 136.661 106.319 140.524 104.234C144.262 102.216 149.509 104.193 151.06 108.098C152.611 112.015 150.203 117.028 146.107 118.19Z" fill="#FF8595"/>
<path d="M94.4892 53.3348C89.9192 51.2505 84.5705 53.287 81.9231 57.27C81.9231 57.27 81.9231 57.264 81.9291 57.264C82.2945 56.5872 81.2583 55.9763 80.8929 56.6591C78.1377 61.8101 79.701 68.9437 85.1335 71.6989C90.0869 74.2145 97.0108 72.1061 99.3767 66.9851C101.635 62.1156 99.4246 55.5869 94.4892 53.3348ZM98.005 67.045C95.6811 71.1359 89.9132 72.723 85.7445 70.6626C81.7255 68.6741 80.0843 63.9484 81.0067 59.7916C81.2822 60.0611 81.8692 60.0612 82.0549 59.5701C83.8757 54.7545 90.0749 52.0771 94.6869 54.7784C98.7238 57.1443 100.317 62.9781 98.005 67.045Z" fill="#FF8595"/>
<path d="M85.5944 32.0899C83.5819 27.8194 77.6762 26.1244 73.6453 28.5022C69.2549 31.0837 68.4763 37.3129 71.3573 41.266C71.6927 41.7272 72.3575 41.5115 72.4833 41.1102C74.4299 43.2066 77.3468 44.3566 80.3116 43.5719C84.9895 42.3381 87.6488 36.4444 85.5944 32.0899ZM81.4497 41.811C77.1492 44.2667 71.7885 40.7089 71.3752 36.067C71.3453 35.7376 71.1057 35.5579 70.8422 35.51C70.914 33.6712 71.6148 31.8683 72.9864 30.5027C75.9752 27.5319 81.3598 28.2327 83.8215 31.515C86.2712 34.7853 84.9356 39.8224 81.4497 41.811Z" fill="#FF8595"/>
<path d="M95.6864 34.378C95.6444 34.4379 95.6325 34.4977 95.6205 34.5576C95.5606 34.6175 95.5067 34.6954 95.4767 34.7972L94.2848 38.3909C94.0572 39.0857 95.0754 39.3972 95.3869 38.7983C96.1475 40.691 97.9204 42.1344 100.023 42.38C102.742 42.6975 104.988 40.691 105.545 38.1095C106.833 32.1678 98.771 29.4845 95.6864 34.378ZM104.389 37.792C103.976 39.7685 102.377 41.3858 100.262 41.1941C98.0163 40.9904 96.1895 39.0378 96.1895 36.7857C96.1895 36.7019 96.1715 36.636 96.1476 36.5701C96.3093 36.0849 96.471 35.5938 96.6327 35.1087C96.6387 35.0967 96.6327 35.0847 96.6387 35.0667C96.6687 35.0368 96.6986 35.0129 96.7285 34.9769C99.0704 31.2514 105.359 33.18 104.389 37.792Z" fill="#FF8595"/>
<path d="M36.2583 0.435505C31.6643 -1.27152 26.693 2.28031 25.9682 6.89826C25.9083 7.28758 26.1838 7.55709 26.4833 7.62896C26.4174 9.98885 27.3578 12.3487 29.3942 13.8102C32.964 16.3677 38.5223 14.9302 40.5288 11.061C42.5353 7.19171 40.2952 1.93289 36.2583 0.435505ZM39.5825 10.2164C38.0611 13.6365 33.3054 15.0201 30.2028 12.8878C26.9805 10.6717 26.9026 5.81412 29.514 3.12481C29.6218 3.01101 29.6638 2.89124 29.6698 2.77145C31.1731 1.50765 33.1617 0.860786 35.2161 1.35792C38.8697 2.25036 41.1038 6.80836 39.5825 10.2164Z" fill="#FF8595"/>
<path d="M173.958 11.3544C171.616 5.93385 165.046 3.44819 159.607 5.37683C158.888 5.63438 159.194 6.7904 159.925 6.53285C164.555 4.89171 170.131 6.67654 172.521 11.1208C175.018 15.7627 172.916 22.1715 168.28 24.5913C163.74 26.9632 157.529 25.0585 155.019 20.6083C152.354 15.8885 154.414 9.75519 158.894 7.02396C159.553 6.62266 158.948 5.58648 158.29 5.98778C153.378 8.97656 151.066 15.619 153.791 20.8778C156.379 25.8671 163.045 28.197 168.184 25.9569C173.539 23.627 176.276 16.721 173.958 11.3544Z" fill="#FF8595"/>
<path d="M123.939 13.6723C123.214 8.17983 117.321 3.8674 111.858 5.10724C108.564 5.85593 106.108 8.35355 104.964 11.3663C104.797 11.4142 104.647 11.534 104.587 11.7556C104.293 12.8218 104.192 13.9178 104.258 15.0019C104.234 16.2178 104.407 17.4337 104.827 18.5956C104.91 18.8292 105.09 18.9431 105.288 18.979C106.677 21.9318 109.355 24.2498 112.775 24.693C118.788 25.4717 124.736 19.7337 123.939 13.6723ZM113.589 23.573C109.037 23.3873 105.785 19.3264 105.467 15.0619C105.527 11.3424 107.737 7.62877 111.469 6.46081C116.147 4.99337 121.537 8.35953 122.622 13.0793C123.843 18.3681 118.908 23.7886 113.589 23.573Z" fill="#FF8595"/>
<path d="M136.326 2.07677C133.786 2.17859 131.744 3.96949 130.881 6.22156C130.767 6.28745 130.678 6.40122 130.636 6.56893C130.552 6.95825 130.504 7.34755 130.492 7.74286C130.432 8.20406 130.414 8.67728 130.462 9.14447C130.48 9.32415 130.564 9.46188 130.678 9.55771C131.229 11.8936 132.984 13.9062 135.493 14.3733C138.77 14.9783 142.19 12.4507 142.717 9.19835C143.31 5.53874 140.003 1.92703 136.326 2.07677ZM136.224 13.2593C133.511 13.1275 131.678 10.54 131.672 8.00044C131.923 5.77832 133.499 3.72391 135.829 3.36453C138.811 2.90334 141.752 5.57469 141.579 8.61738C141.435 11.2288 138.775 13.3791 136.224 13.2593Z" fill="#FF8595"/>
<path d="M88.8107 1.56162C86.6545 1.64547 84.8696 2.87935 83.7915 4.58637C83.5758 4.227 83.0188 4.08322 82.7912 4.56239C81.0842 8.1082 82.4378 12.8819 86.2472 14.4392C89.8649 15.9126 94.4649 13.6066 95.4412 9.82123C96.4714 5.8262 92.9555 1.40589 88.8107 1.56162ZM94.0036 10.2645C92.7398 13.1454 88.8826 14.6428 86.0974 13.0256C85.0313 12.4087 84.2526 11.4623 83.7795 10.3722C84.0011 10.2584 84.1508 10.0249 84.067 9.71938C83.2165 6.62279 85.4326 2.92724 88.8167 2.76552C92.5302 2.57985 95.4771 6.89234 94.0036 10.2645Z" fill="#FF8595"/>
<path d="M14.1271 5.55661C10.5752 4.08318 6.55027 6.3891 5.41226 9.84507C5.50809 9.40185 5.64585 8.97065 5.82554 8.55138C6.137 7.85061 5.10677 7.24566 4.78932 7.94643C3.13621 11.654 4.40602 16.5234 8.33516 18.2185C11.6953 19.6679 16.1515 18.1467 17.7028 14.7685C19.2481 11.4264 17.5471 6.97613 14.1271 5.55661ZM16.5828 14.3013C15.271 17.0685 11.6653 18.2964 8.8802 17.1344C6.55026 16.1641 5.29846 13.8102 5.26252 11.4143C5.54403 11.7977 6.22084 11.8456 6.2987 11.2706C6.73594 8.09014 10.0062 5.50868 13.2526 6.51492C16.3492 7.46726 17.9424 11.4383 16.5828 14.3013Z" fill="#FF8595"/>
</svg>
