<svg width="206" height="196" viewBox="0 0 206 196" fill="none" xmlns="http://www.w3.org/2000/svg">
<path d="M185.27 39.959C171.716 38.6737 159.938 47.3157 146.69 48.1698C140.827 48.5411 134.382 47.3279 129.981 43.1727C125.368 38.8309 124.341 32.3483 123.467 26.382C122.684 20.9962 122.008 15.321 119.027 10.6216C116.7 6.95284 113.161 4.3577 109.138 2.77517C99.1569 -1.13503 87.3013 0.477726 77.0871 2.45814C75.7686 2.71419 74.4555 2.99432 73.1417 3.29993C34.6496 12.3325 6.83505 43.5785 1.86068 82.5028C-0.688105 102.428 -0.913719 129.558 22.8796 135.968C32.5839 138.58 42.8152 137.728 52.5684 140.019C57.906 141.27 62.8788 143.558 66.8288 147.428C70.9695 151.47 73.8094 156.587 76.4043 161.714C81.2458 171.344 85.6531 180.932 94.2736 187.865C102.159 194.204 112.463 197.599 122.496 195.147C131.952 192.836 139.872 185.914 141.899 176.214C143.102 170.493 142.526 164.612 142.673 158.816C142.84 152.574 144.255 146.609 147.056 141.006C157.885 119.355 181.522 108.859 195.829 90.0696C202.53 81.2567 207.488 69.8338 205.198 58.5977C203.164 48.6518 195.548 40.9374 185.27 39.959Z" fill="#DCEAEB"/>
</svg>
