<svg width="127" height="39" viewBox="0 0 127 39" fill="none" xmlns="http://www.w3.org/2000/svg">
<path d="M10.6809 38.7502C5.11663 38.2005 1.71886 36.3054 0.705765 33.7593C-0.509952 30.6707 0.20701 27.3506 0.238182 24.2258C0.269354 20.5368 0.300527 16.8478 0.331699 13.1516C0.347285 11.0105 0.581077 8.87672 1.0019 6.72843C1.22011 5.64343 1.57859 4.45717 3.33982 3.73384C4.57112 3.22751 6.25442 3.06115 7.87538 2.90925C30.0856 0.89839 52.7634 0.89839 75.2853 0.52226C83.8109 0.377594 92.3365 0.240162 100.878 0.0954963C106.707 0.00146364 113.05 -0.266168 118.537 0.876693C123.883 1.99062 126.205 4.36314 126.735 6.95267C127.421 10.3451 126.595 13.8822 126.283 17.2818C125.956 20.9997 125.551 24.7104 125.052 28.4211C124.709 31.0034 124.07 33.9184 119.441 35.6761C114.905 37.3904 108.608 37.441 103.044 37.5423C87.0996 37.8172 71.1706 38.092 55.226 38.3596C47.2615 38.4971 39.2814 38.6345 31.3169 38.7719C27.3268 38.837 23.3524 38.9094 19.3623 38.9745C16.4633 39.0179 13.5331 39.0396 10.6809 38.7502Z" fill="#F7E2FC"/>
</svg>
