<svg width="123" height="135" viewBox="0 0 123 135" fill="none" xmlns="http://www.w3.org/2000/svg">
<path d="M122.892 88.06C121.7 73.4713 110.403 63.3798 99.6426 55.0526C93.0734 49.9673 86.2842 45.0056 80.9848 38.5218C75.7098 32.0626 72.037 24.5014 67.3872 17.6074C63.6165 12.0378 59.0644 6.71035 53.1642 3.38441C42.0428 -2.89682 28.157 0.0288324 18.9844 8.34121C10.774 15.7838 5.42091 26.4287 2.51968 37.0688C-1.60749 52.1912 -0.342483 68.2921 3.98006 83.2168C8.09747 97.4299 14.574 112.982 25.7589 123C36.9438 133.017 52.4708 135.374 66.9183 134.954C81.0679 134.544 95.7646 131.169 107.081 122.15C117.074 114.173 123.956 101.136 122.892 88.06Z" fill="#F6E1C2"/>
</svg>
