<svg width="250" height="301" viewBox="0 0 250 301" fill="none" xmlns="http://www.w3.org/2000/svg">
<path d="M168.761 27.5257C157.883 27.3561 147.262 30.8646 138.859 37.41C130.056 44.264 123.352 54.3752 118.933 67.456C114.321 81.1204 113.045 95.3053 111.81 109.017C110.741 120.901 109.729 132.124 106.739 143.142C102.966 157.039 96.5822 167.278 87.766 173.568C83.9549 176.289 79.73 178.422 75.2551 180.678C69.0081 183.832 62.5559 187.095 56.9932 192.172C48.1641 200.231 42.6208 211.329 41.391 223.431C40.1601 235.495 43.3209 247.478 50.2885 257.174C53.0767 261.053 56.4715 264.552 60.4007 267.584C60.6946 267.931 61.0313 268.241 61.4053 268.513C74.4149 278.073 90.8243 280.839 104.223 275.743C114.509 271.827 122.797 263.952 126.965 254.142C129.124 249.064 129.657 243.693 130.171 238.5C130.809 232.089 131.41 226.034 135.1 221.821C139.001 217.381 145.123 215.302 151.609 213.112C154.209 212.23 156.901 211.317 159.463 210.233C167.539 206.817 173.454 201.797 177.143 195.263C178.739 192.436 179.915 189.327 180.676 185.938C182.781 176.514 181.709 167.315 180.666 158.411C180.25 154.839 179.856 151.469 179.652 148.069C179.24 141.209 179.722 136.246 181.218 131.969C183.191 126.328 187.723 122.063 191.899 118.629C200.137 111.869 208.654 104.869 213.069 93.3824C216.825 83.6101 217.441 72.6077 214.81 62.4078C209.59 42.2126 190.661 27.8634 168.761 27.5257ZM54.4353 238.826C51.2926 227.825 53.3394 215.769 59.9199 206.583C65.2371 199.154 73.2306 195.028 81.6946 190.656C83.142 189.907 84.5984 189.155 86.0409 188.388C97.3242 182.384 105.51 174.504 111.085 164.297C120.18 147.629 121.808 129.086 123.376 111.156C123.84 105.852 124.32 100.361 124.996 95.109C128.769 65.5232 138.492 48.0785 154.728 41.7607C170.868 35.4792 190.942 41.8509 199.469 55.9751C208.43 70.8113 205.276 91.4977 192.296 103.066C190.657 104.528 188.893 105.972 187.184 107.372C180.389 112.935 173.363 118.684 170.025 128.263C166.361 138.78 167.764 150.034 169.002 159.967L169.244 161.926C170.721 173.983 171.111 186.163 164.048 193.563C159.943 197.859 153.93 199.931 147.559 202.118C145.529 202.817 143.428 203.537 141.394 204.339C135.497 206.658 127.623 210.572 123.073 218.63C122.296 220.007 121.615 221.506 121.058 223.134C119.448 227.851 118.927 232.536 118.422 237.071C117.776 242.897 117.158 248.408 114.231 253.112C109.552 260.623 101.388 265.692 92.9294 266.346C89.3441 266.626 85.0405 265.951 80.1375 264.35C67.2317 260.128 57.8655 250.825 54.4353 238.826Z" fill="#E7ECE3"/>
<path d="M147.848 18.836C138.15 18.6847 128.708 21.721 121.042 27.6809C112.064 34.67 106.344 44.7867 102.757 55.422C94.5222 79.8227 97.3552 106.112 90.6525 130.828C87.1609 143.694 80.8692 156.064 69.7835 163.971C60.1479 170.845 48.3145 174.128 39.47 182.202C23.0345 197.197 20.509 222.704 33.4398 240.701C36.1567 244.48 39.4168 247.737 43.1324 250.52C43.2008 250.679 43.3081 250.823 43.4723 250.945C54.1513 258.791 68.9517 262.365 81.6265 257.539C90.4146 254.193 97.9017 247.296 101.588 238.607C106.123 227.934 102.508 214.128 110.556 204.957C117.121 197.479 127.94 195.793 136.699 192.085C146.092 188.109 152.754 181.432 155.036 171.242C157.751 159.097 154.624 146.907 153.898 134.748C153.536 128.706 153.72 122.498 155.732 116.735C157.997 110.241 162.73 105.487 167.935 101.218C176.179 94.4477 183.699 88.2397 187.631 78.0094C191.031 69.159 191.565 59.2096 189.2 50.0333C184.351 31.2224 166.961 19.1359 147.848 18.836ZM174.719 93.126C166.788 100.194 157.494 105.717 153.82 116.265C150.317 126.338 152.014 137.405 153.274 147.712C154.722 159.526 155.651 174.022 146.758 183.341C140.34 190.066 130.697 192.017 122.353 195.297C114.569 198.358 107.694 202.837 104.869 211.108C101.361 221.374 103.528 232.517 97.5618 242.096C92.2002 250.697 82.6333 256.849 72.4678 257.632C67.5619 258.01 62.4183 256.928 57.7696 255.411C43.9797 250.9 32.8936 240.641 28.872 226.568C25.3375 214.193 27.5798 200.592 35.0859 190.113C42.0679 180.362 52.6545 175.886 62.8938 170.437C72.6803 165.231 80.5829 158.131 85.9286 148.331C97.1923 127.689 96.3844 103.523 99.2767 80.8731C102.074 58.9383 109.266 32.4497 132.104 23.5632C150.038 16.5851 172.73 23.0713 182.837 39.8125C193.134 56.8717 189.506 79.957 174.719 93.126Z" fill="#2D2D2D"/>
</svg>
