<svg width="153" height="172" viewBox="0 0 153 172" fill="none" xmlns="http://www.w3.org/2000/svg">
<path d="M0.266109 118.129C0.417398 99.8479 13.6873 86.2264 26.4447 74.8523C34.2335 67.9065 42.31 61.0941 48.3732 52.5247C54.408 43.9884 58.3271 34.2288 63.5358 25.2091C67.7616 17.9209 72.9923 10.8614 80.1022 6.16918C93.503 -2.69034 111.229 -0.340375 123.527 9.15789C134.535 17.6625 142.247 30.4218 146.877 43.4036C153.461 61.8538 153.357 82.0252 149.301 101.017C145.438 119.102 138.732 139.076 125.596 152.595C112.461 166.114 93.1596 170.497 74.9589 171.32C57.1337 172.127 38.347 169.293 23.2882 159.114C9.9895 150.111 0.134844 134.515 0.266109 118.129Z" fill="#DEE4F2"/>
</svg>
