<svg width="61" height="64" viewBox="0 0 61 64" fill="none" xmlns="http://www.w3.org/2000/svg">
<path d="M55.8122 11.5398C52.9959 9.8896 49.6214 9.25505 46.5046 8.45224L33.0993 4.96772C25.8114 3.06891 17.5784 -0.316926 9.91133 0.80261C4.01004 1.65789 0.212628 6.22151 0.775601 12.1991C1.09629 15.6919 2.58791 18.9479 4.07579 22.0724C6.1674 26.4862 8.43063 30.8126 10.8194 35.0494C14.9117 42.2972 19.4552 49.2763 24.3578 55.9821C26.4929 60.0432 29.3448 64.2568 33.9844 63.8112C36.7422 63.5355 38.8484 61.4644 40.4061 59.3485C43.1128 55.6571 45.2166 51.4039 47.5273 47.4731C51.5645 40.5832 56.5806 33.6599 59.4509 26.1875C61.5186 20.7971 61.2655 14.739 55.8122 11.5398Z" fill="#DDFAE1"/>
</svg>
