<svg width="107" height="113" viewBox="0 0 107 113" fill="none" xmlns="http://www.w3.org/2000/svg">
<path d="M42.9949 12.3072C42.5173 12.3825 42.0525 12.4104 41.5703 12.4083C41.5623 12.5332 41.5242 12.6754 41.5161 12.8003C40.9451 17.0175 42.3964 20.989 44.4188 24.6307C48.5156 32.0044 55.5775 40.0708 50.5665 48.8153C47.5676 54.0335 41.325 58.84 42.5991 65.5589C43.4366 69.9248 47.1862 72.8098 49.0803 76.6458C51.1306 80.7524 49.8797 85.0415 47.8736 88.9251C44.5016 95.4408 37.3193 104.798 43.8512 111.807C44.4654 112.455 45.4167 111.465 44.8326 110.8C38.6338 104.159 46.5955 94.833 49.5687 88.6678C50.938 85.8332 51.9615 82.6773 51.491 79.5023C50.9046 75.4323 47.8695 72.5355 45.7408 69.1956C43.4953 65.7228 43.3635 62.2319 45.3709 58.6282C46.9472 55.8746 49.1238 53.5358 50.8771 50.8804C52.6604 48.2075 53.8701 45.3048 53.7523 42.0464C53.632 38.2283 52.0617 34.6061 50.1874 31.3598C47.6017 26.881 44.1429 22.6258 43.0694 17.4343C42.6919 15.8086 42.6624 14.0221 42.9949 12.3072Z" fill="#F1AAAA"/>
<path d="M56.162 12.7607C51.8352 16.5814 52.4582 23.0751 54.37 27.983C55.6418 31.2966 57.4894 34.3579 58.6711 37.7235C59.8181 41.029 59.996 44.2528 59.0466 47.6064C57.5289 52.8912 54.0165 57.8448 54.1536 63.4968C54.3223 70.4531 61.6143 75.1003 59.8856 82.3104C58.5288 87.9432 54.0774 92.7977 55.1593 98.9061C55.3053 99.7837 56.6685 99.4375 56.5225 98.5599C55.5645 93.2216 59.4829 88.5546 60.9638 83.6918C61.7319 81.2044 61.8583 78.6466 60.9775 76.1492C59.7785 72.7535 57.2523 70.044 56.1133 66.6136C54.2545 61.0338 57.5968 55.5773 59.5332 50.5317C60.4736 48.065 61.2198 45.47 61.1218 42.8012C61.0387 39.6029 59.8455 36.5645 58.5542 33.7031C55.8893 27.9073 51.1618 19.0943 57.1995 13.7248C57.8041 13.1753 56.8267 12.1766 56.162 12.7607Z" fill="#F1AAAA"/>
<path d="M64.9269 5.93705C65.1537 6.60764 65.3205 7.31293 65.3797 8.04023C65.6317 11.4617 64.2081 14.6882 63.3142 17.9296C62.5219 20.7918 62.1089 23.7555 63.0429 26.6229C63.9596 29.4602 65.77 31.9017 67.4255 34.3526C69.1804 36.9063 71.0488 39.7953 70.9643 43.0503C70.8578 46.1978 68.8247 48.8545 67.2691 51.4359C65.7991 53.8878 64.8159 56.4192 64.7855 59.2823C64.7472 62.2702 65.5911 65.1896 66.5378 68.0095C68.5622 74.0148 72.1111 82.1055 67.1072 87.5995C66.5247 88.2565 67.4847 89.2252 68.1147 88.5809C72.2274 84.0422 71.2551 77.4296 69.4403 72.0649C68.3628 68.8796 67.0228 65.7257 66.4482 62.3702C65.7809 58.5072 66.6101 55.223 68.6187 51.8992C70.1615 49.3652 71.9542 46.8473 72.3151 43.7934C72.676 40.7395 71.402 37.9081 69.8194 35.3751C67.9464 32.4086 65.5103 29.647 64.4362 26.2593C63.266 22.5665 64.4939 18.9318 65.5716 15.3839C66.5096 12.3575 67.3942 8.96117 66.4289 5.83134C65.9039 5.89395 65.4218 5.8918 64.9269 5.93705Z" fill="#F1AAAA"/>
</svg>
