<svg width="198" height="223" viewBox="0 0 198 223" fill="none" xmlns="http://www.w3.org/2000/svg">
<path d="M193.207 152.022C185.789 176.765 169.281 197.747 146.735 210.375C125.706 222.167 99.3085 226.824 76.0883 219.013C65.2537 215.368 54.7694 208.467 49.4104 198.07C43.7595 187.114 46.5047 175.531 50.0391 164.2C53.542 152.983 62.0796 143.897 64.492 132.049C67.645 116.606 58.2754 102.608 47.3585 92.6518C29.2672 76.1246 -0.0461807 63.078 0.571441 34.3618C0.82711 22.4529 8.38352 13.7737 18.9546 9.10215C31.2481 3.65273 45.6215 1.58429 58.9427 0.802317C86.7135 -0.844266 115.056 5.28116 138.925 19.7758C160.5 32.8651 178.284 52.4357 188.479 75.6031C198.992 99.5034 200.704 126.989 193.207 152.022Z" fill="#EBD8D8"/>
</svg>
