<svg width="305" height="247" viewBox="0 0 305 247" fill="none" xmlns="http://www.w3.org/2000/svg">
<path d="M261.944 182.192C263.61 183.232 265.204 184.383 266.942 185.269C267.857 185.743 269.348 186.25 269.979 185.847C271.047 185.157 270.269 183.811 269.905 182.723C269.776 182.365 269.66 181.699 269.807 181.609C270.388 181.259 271.219 180.729 271.689 180.923C273.111 181.515 274.435 182.387 275.748 183.209C278.714 185.048 281.292 187.565 284.826 188.586C285.278 186.038 282.856 185.434 281.887 183.934C281.046 182.618 279.92 181.488 279.135 180.152C278.901 179.754 279.308 178.915 279.58 178.347C279.678 178.153 280.283 178.077 280.624 178.158C281.697 178.391 282.755 178.714 284.343 179.142C271.145 167.804 256.353 159.482 243.361 148.696C252.864 154.913 262.36 161.14 271.889 167.317C274.51 169.014 277.233 170.578 279.969 172.079C280.444 172.334 281.295 172.018 281.925 171.815C282.096 171.755 282.229 171.11 282.131 170.815C280.469 165.999 278.275 161.636 273.888 158.473C268.176 154.351 262.818 149.758 257.159 145.556C215.599 114.657 172.024 86.7283 128.852 58.1881C112.178 47.1605 95.2884 36.437 78.7459 25.209C73.6992 21.7839 68.016 20.6554 62.5702 18.6344C61.5927 18.2779 60.2767 18.5463 59.2034 18.8453C56.9831 19.4664 54.8328 20.2916 52.6244 21.0499C56.863 25.236 63.1771 26.2051 67.0971 30.7419C67.2612 30.9362 67.2307 31.4479 67.0824 31.6951C66.9113 31.9992 66.459 32.4197 66.236 32.359C64.7467 31.9815 63.1578 31.7109 61.8389 30.9858C57.0446 28.3305 52.3423 25.4914 47.5907 22.7493C47.3804 22.6251 46.9761 22.8618 46.6571 22.9247C46.8274 23.5974 46.7763 24.584 47.2113 24.8993C50.008 26.9285 52.9036 28.8073 56.894 31.5078C53.3441 31.3536 51.1562 31.3494 48.9857 31.1411C47.3409 30.9773 46.182 28.8343 44.1341 29.7702C46.2761 32.7046 50.3279 33.4049 52.1359 37.3119C48.5179 36.0638 45.3015 34.8935 42.0303 33.917C41.5437 33.7689 40.7362 34.5734 40.1531 35.0372C40.0631 35.1073 40.2604 35.7833 40.4952 35.9811C41.3734 36.7321 42.3016 37.4297 43.2428 38.1072C45.4518 39.7205 47.6908 41.3103 49.8932 42.9336C50.7565 43.5742 50.759 44.2801 49.8876 44.8269C49.6105 45.0037 49.1601 45.0662 48.816 45.012C47.0011 44.7074 45.336 43.7543 43.5176 45.5168C41.3136 47.6432 38.6179 47.4337 36.0038 45.726C35.6269 45.4778 35.0123 45.5902 34.5136 45.549C34.7429 45.8438 34.946 46.1789 35.2186 46.4303C37.1127 48.1667 37.0362 49.2803 34.5853 50.5399C33.6155 51.0364 35.4791 52.2209 35.6162 53.1878C35.6866 53.6797 34.9903 54.7586 34.8351 54.7282C33.0083 54.2864 31.2264 53.6875 29.5129 53.1623C30.1116 54.1603 31.009 55.0818 31.2246 56.1292C31.6629 58.2574 32.9598 59.6148 34.7287 60.5214C37.1652 61.7672 39.7193 62.7455 42.1851 63.9244C43.5604 64.5861 44.8571 65.4115 47.8243 67.0931C45.1341 66.7868 44.2295 66.8519 43.4414 66.5627C40.5091 65.4932 37.5863 64.387 34.7291 63.1371C32.2205 62.045 29.846 60.6389 27.3375 59.5468C25.611 58.7975 23.7584 58.4393 21.9142 59.5094C26.6068 64.1814 30.7504 69.3542 36.2194 73.1581C36.4129 73.2856 36.5251 73.8913 36.3961 74.065C36.1843 74.3422 35.7136 74.6356 35.3965 74.5848C31.1438 73.9676 26.9999 72.9191 23.0646 71.0884C22.8411 70.9843 22.1748 71.264 22.1862 71.3577C22.2258 72.0736 22.1014 73.1269 22.5196 73.4455C29.6634 78.9419 37.3384 83.6099 45.1555 88.084C49.9204 90.8061 54.6294 93.6351 59.1962 96.6578C95.5059 120.649 131.894 144.519 168.013 168.801C191.111 184.334 213.81 200.451 236.608 216.417C242.424 220.493 248.386 224.147 255.267 226.051C255.538 226.128 256.048 225.775 256.233 225.494C256.378 225.274 256.328 224.752 256.153 224.507C255.714 223.887 255.225 223.278 254.663 222.778C253.236 221.508 251.148 220.664 250.862 218.593C250.662 217.168 251.654 215.55 251.296 214.208C250.719 212.046 251.772 212.999 252.712 213.101C253.339 213.169 254.022 212.886 254.649 212.666C254.729 212.633 254.716 211.877 254.518 211.689C253.423 210.58 252.318 209.464 251.104 208.492C248.661 206.523 246.053 204.762 243.717 202.677C242.951 202 242.828 200.612 242.407 199.544C241.37 199.033 240.242 198.663 239.314 198.009C233.335 193.826 227.386 189.576 221.44 185.343C227.112 188.505 232.551 192.002 237.893 195.665C239.452 196.735 240.691 198.269 242.074 199.583C249.091 204.608 256.213 209.472 264.017 213.233C264.583 213.506 265.389 213.303 266.076 213.325C265.986 212.662 266.142 211.716 265.757 211.39C258.566 205.345 251.546 199.04 243.995 193.476C233.578 185.809 222.694 178.783 212.115 171.34C202.498 164.588 193.191 157.364 183.435 150.823C152.819 130.295 122.061 110.004 91.3651 89.5966C83.1956 84.1717 75.0827 78.6835 66.9528 73.1985C65.6658 72.3364 64.4814 71.3406 63.5959 69.7801C65.7016 70.9516 67.8203 72.1031 69.9096 73.3214C71.2596 74.1101 72.5936 74.9456 73.9009 75.8212C115.433 103.281 157.213 130.387 198.388 158.388C217.505 171.384 236.246 184.951 255.367 197.964C259.238 200.6 263.136 203.197 267.331 205.299C268.351 203.773 267.147 203.295 266.487 202.745C263.835 200.496 261.097 198.333 258.429 196.087C258.194 195.889 258.248 195.364 258.175 194.985C258.565 194.926 258.993 194.719 259.314 194.83C260.39 195.194 261.522 195.537 262.489 196.131C265.479 198 268.396 199.979 271.696 202.153C272.351 198.432 268.744 196.458 267.872 193.326C272.306 193.645 274.512 197.081 278.181 197.875C279.06 196.585 277.648 196.245 277.084 195.815C272.382 192.287 267.582 188.91 262.957 185.288C262.304 184.772 262.449 183.243 262.22 182.172C245.151 171.92 229.104 160.185 212.894 148.673C226.794 157.327 240.536 166.221 254.238 175.176C257.222 177.055 260.176 179.001 261.944 182.192ZM249.288 166.971C249.279 167.095 249.278 167.209 249.269 167.332C244.655 164.293 240.051 161.26 235.437 158.22C235.496 158.13 235.549 158.05 235.619 157.966C240.172 160.966 244.735 163.972 249.288 166.971ZM83.1932 60.9613C83.6638 60.9121 83.9584 60.7756 84.1279 60.8729C85.1082 61.4469 86.0622 62.0608 87.013 62.7016C87.1454 62.7888 87.1589 63.0564 87.2355 63.2506C86.8807 63.1462 86.4966 63.1087 86.1946 62.9241C85.2275 62.3302 84.2933 61.686 83.1932 60.9613ZM47.5774 51.482C47.2719 51.2807 46.7785 51.1425 46.6942 50.8714C46.4209 50.0446 46.8995 49.8282 47.8426 50.392C48.1242 50.5632 48.254 50.9649 48.46 51.2731C48.168 51.3394 47.876 51.4056 47.5774 51.482ZM45.4355 58.3917C44.3924 58.4231 44.0743 58.0411 44.6342 57.3465C44.717 57.2429 45.2917 57.4348 45.5499 57.6192C45.6452 57.6964 45.4758 58.1308 45.4355 58.3917Z" fill="#DCEAEB"/>
<path d="M210.669 216.704C209.203 212.476 204.707 212.317 203.149 208.718C209.988 212.548 216.479 216.177 222.982 219.829C223.186 219.719 223.41 219.579 223.637 219.456C223.452 219.161 223.273 218.856 223.087 218.561C222.661 217.922 221.99 217.322 221.86 216.632C221.661 215.582 222.989 215.45 224.566 216.561C228.737 219.496 232.873 222.464 236.995 225.452C240.787 228.209 244.54 231.027 248.777 233.243C247.334 232.106 245.763 231.099 244.497 229.806C243.163 228.438 242.258 226.664 240.931 225.286C239.32 223.607 237.556 222.028 235.683 220.637C209.196 201.047 182.147 182.265 154.599 164.175C122.145 142.868 89.6443 121.631 57.1932 100.296C47.3574 93.8314 37.3186 87.8074 26.0266 83.7746C24.7836 84.9964 26.2506 85.4744 26.8456 85.9238C31.886 89.6466 36.9762 93.3159 41.7872 97.5199C39.2387 96.2003 36.7804 94.5664 34.1057 93.638C31.6036 92.7801 28.8484 92.6609 26.099 92.2006C25.9811 94.2642 27.6752 94.5753 28.6739 95.2763C31.8907 97.5104 35.276 99.5106 38.5258 101.695C52.836 111.323 67.1395 120.961 81.4167 130.639C83.0332 131.733 84.8817 132.807 85.9116 134.347C88.8539 138.772 93.2929 141.279 97.517 144.09C116.767 156.929 136.03 169.748 155.279 182.587C158.525 184.754 161.729 186.721 165.743 187.612C171.121 188.827 176.018 191.348 178.107 197.179C178.358 197.862 178.936 198.559 179.547 198.961C183.455 201.565 187.426 204.095 191.374 206.638C197.877 207.631 202.533 212.092 207.807 215.394C208.476 215.82 209.226 216.056 210.669 216.704Z" fill="#DCEAEB"/>
<path d="M74.9978 16.5751C87.8465 25.3842 99.6242 33.6458 111.58 41.637C143.473 62.9768 175.484 84.1362 207.35 105.516C218.078 112.712 228.475 120.409 239.09 127.776C241.957 129.765 245.065 131.41 248.097 133.148C248.934 133.628 249.64 133.245 249.88 132.282C249.95 131.998 249.839 131.523 249.635 131.345C247.832 129.87 246.075 128.324 244.149 127.013C226.652 115.127 209.225 103.158 191.589 91.4832C162.198 72.0215 132.746 52.6768 103.19 33.4656C94.3631 27.7084 85.0971 22.5958 74.9978 16.5751Z" fill="#DCEAEB"/>
<path d="M264.823 224.715C264.914 224.775 265.179 224.95 265.444 225.124C265.161 224.866 264.912 224.558 264.583 224.37C264.362 224.239 264.04 224.285 263.77 224.251C264.057 224.369 264.349 224.503 264.823 224.715Z" fill="#DCEAEB"/>
<path d="M32.079 32.5495L32.6816 33.0757L32.8407 32.6344L32.079 32.5495Z" fill="#DCEAEB"/>
</svg>
