<svg width="180" height="170" viewBox="0 0 180 170" fill="none" xmlns="http://www.w3.org/2000/svg">
<path d="M2.66873 59.1555C5.78411 67.5921 12.4723 73.8032 18.2618 80.4253C25.1749 88.3715 28.8993 97.1864 30.8271 107.482C34.2043 125.469 34.3892 144.995 49.6693 157.632C54.1477 161.335 59.3112 164.145 64.8026 166.022C100.267 178.111 138.902 157.392 160.74 129.908C160.857 129.768 160.881 129.613 160.866 129.465C169.843 117.803 177.518 105.016 179.418 90.1534C181.492 73.9824 174.911 55.6454 159.103 48.7855C150.919 45.2206 141.279 45.4938 133.706 40.4069C126.355 35.473 122.609 26.9747 117.572 19.9818C112.692 13.1754 106.329 8.54026 98.4463 5.72246C89.5991 2.57945 79.9266 1.28204 70.6091 0.522054C51.757 -1.00723 31.7189 1.86336 16.7005 14.241C3.8696 24.8487 -3.31424 42.9386 2.66873 59.1555Z" fill="#EBD8D8"/>
</svg>
