<svg width="174" height="191" viewBox="0 0 174 191" fill="none" xmlns="http://www.w3.org/2000/svg">
<path d="M171.361 133.119C169.563 128.233 166.845 123.767 164.608 119.083C161.659 112.891 160.122 106.503 159.924 99.653C159.249 76.6976 171.163 54.8645 167.658 31.8093C165.062 14.6624 150.701 -2.67569 131.804 1.27721C111.921 5.43624 102.85 26.3607 97.0791 43.5051C92.8488 56.0495 88.5991 68.3692 79.8388 78.5644C72.6112 86.9828 63.6392 93.6996 54.5613 99.973C37.7011 111.63 18.9672 122.514 7.6938 140.226C-1.98784 155.449 -4.30261 181.539 16.4308 189.106C24.7412 192.139 33.6234 189.968 41.6998 187.224C52.4423 183.564 62.4354 179.547 73.9146 178.806C98.0276 177.253 123.353 184.67 146.524 175.054C162.836 168.292 178.288 152.028 171.361 133.119Z" fill="#DDFAE1"/>
</svg>
